{
DisplayStrings = (
"\U00F0"
);
classes = (
{
automatic = 1;
code = "A Aacute Abreve Acaron Acircumflex Adblgrave Adieresis Adotaccent Agrave Ainvertedbreve Amacron Aogonek Aring Atilde AE AEacute AEmacron B Bdotaccent C Cacute Ccaron Ccedilla Ccircumflex Cdotaccent D Eth Dcaron Dcroat Ddotaccent Dz Dzcaron E Eacute Ebreve Ecaron Ecedilla Ecircumflex Edblgrave Edieresis Edotaccent Egrave Einvertedbreve Emacron Eogonek Etilde F Fdotaccent G Gacute Gbreve Gcaron Gcircumflex Gcommaaccent Gdotaccent H Hbar Hcaron Hcircumflex I IJ Iacute Ibreve Icaron Icircumflex Idblgrave Idieresis Idotaccent Igrave Iinvertedbreve Imacron Iogonek Itilde J Jcircumflex K Kcaron Kcommaaccent L Lacute Lcaron Lcommaaccent Ldot Lj Lslash M Mdotaccent N Nacute Ncaron Ncommaaccent Ngrave Eng Nj Ntilde O Oacute Obreve Ocaron Ocircumflex Odblgrave Odieresis Ograve Ohungarumlaut Oinvertedbreve Omacron Oogonek Oslash Oslashacute Otilde OE P Pdotaccent Thorn Q R Racute Rcaron Rcommaaccent Rdblgrave Rinvertedbreve S Sacute Scaron Scedilla Scircumflex Scommaaccent Sdotaccent Schwa T Tbar Tcaron Tcedilla Tcommaaccent Tdotaccent U Uacute Ubreve Ucaron Ucircumflex Udblgrave Udieresis Ugrave Uhungarumlaut Uinvertedbreve Umacron Uogonek Uring Utilde V W Wacute Wcircumflex Wdieresis Wgrave X Y Yacute Ycircumflex Ydieresis Ygrave Ymacron Ytilde Z Zacute Zcaron Zdotaccent Delta Sigma Omega Odotaccent";
name = Uppercase;
}
);
copyright = "Copyright \U00A9 2014 by Vernon Adams. All rights reserved.";
customParameters = (
{
name = note;
value = "";
},
{
name = openTypeNameDescription;
value = "Copyright (c) 2011-14 by vernon adams. All rights reserved.";
},
{
name = openTypeNameLicense;
value = "Copyright (c) 2010-14\012vernon adams (vern@newtypography.co.uk)\012\012This Font Software is licensed under the SIL Open Font License\012Version 1.1.\012This license is copied below\012and is also available with a FAQ at:\012http://scripts.sil.org/OFL";
},
{
name = openTypeNameLicenseURL;

glyphs = (
{
glyphname = A;
lastChange = "2014-01-28 19:50:35 -0800";
layers = (
{
anchors = (
{
name = ogonek;
position = "{1285, 0}";
},
{
name = top;
position = "{716, 1446}";
}
);
layerId = "F85E8FEC-B3CD-4A54-BF30-AB1986ECE904";
name = Regular;
paths = (
{
closed = 1;
nodes = (
"86 0 LINE",
"295 0 LINE",
"394 282 LINE",
"1039 282 LINE",
"1137 0 LINE",
"1342 0 LINE",
"802 1446 LINE",
"625 1446 LINE"
);
},
{
closed = 1;
nodes = (
"442 425 LINE",
"719 1216 LINE",
"993 425 LINE"
);
}
);
width = 1428;
},
{
anchors = (
{
name = ogonek;
position = "{1274, 0}";
},
{
name = top;
position = "{767, 1476}";
}
);
layerId = "C6C96970-2BBD-4A47-8C90-C83F37B7F23D";
name = Bold;
paths = (
{
closed = 1;
nodes = (
"70 0 LINE",
"380 0 LINE",
"466 281 LINE",
"1044 281 LINE",
"1127 0 LINE",
"1442 0 LINE",
"950 1476 LINE",
"556 1476 LINE"
);
},
{
closed = 1;
nodes = (
"525 479 LINE",
"760 1255 LINE",
"987 479 LINE"
);
}
);
width = 1512;
}
);
unicode = 0041;
},
{
glyphname = AE;
lastChange = "2014-01-28 21:08:58 -0800";
layers = (
{
anchors = (
{
name = top;
position = "{1017, 1446}";
}
);
layerId = "F85E8FEC-B3CD-4A54-BF30-AB1986ECE904";
name = Regular;
paths = (
{
closed = 1;
nodes = (
"98 3 LINE",
"302 0 LINE",
"375 282 LINE",
"874 282 LINE",
"874 0 LINE",
"1559 0 LINE",
"1559 150 LINE",
"1065 150 LINE",
"1065 664 LINE",
"1489 664 LINE",
"1489 814 LINE",
"1065 814 LINE",
"1065 1296 LINE",
"1550 1296 LINE",
"1550 1446 LINE",
"492 1446 LINE"
);
},
{
closed = 1;
nodes = (
"411 417 LINE",
"632 1296 LINE",
"874 1296 LINE",
"874 417 LINE"
);
}
);
width = 1686;
},
{
anchors = (
{
name = top;
position = "{1096, 1476}";
}
);
layerId = "C6C96970-2BBD-4A47-8C90-C83F37B7F23D";
name = Bold;
paths = (
{
closed = 1;
nodes = (
"83 0 LINE",
"393 0 LINE",
"472 281 LINE",
"893 281 LINE",
"893 0 LINE",
"1710 0 LINE",
"1710 227 LINE",
"1173 227 LINE",
"1173 645 LINE",
"1630 645 LINE",
"1630 858 LINE",
"1173 858 LINE",
"1173 1249 LINE",
"1700 1249 LINE",
"1700 1477 LINE",
"539 1477 LINE"
);
},
{
closed = 1;
nodes = (
"527 477 LINE",
"757 1249 LINE",
"893 1249 LINE",
"893 477 LINE"
);
}
);
width = 1834;
}
);
unicode = 00C6;
},
{
glyphname = B;
lastChange = "2014-01-28 19:50:35 -0800";
layers = (
{
anchors = (
{
name = top;
position = "{696, 1446}";
}
);
layerId = "F85E8FEC-B3CD-4A54-BF30-AB1986ECE904";
name = Regular;
paths = (
{
closed = 1;
nodes = (
"218 0 LINE",
"786 0 LINE SMOOTH",
"1138 0 OFFCURVE",
"1292 124 OFFCURVE",
"1292 411 CURVE SMOOTH",
"1292 595 OFFCURVE",
"1209 735 OFFCURVE",
"1040 773 CURVE",
"1174 819 OFFCURVE",
"1219 922 OFFCURVE",
"1222 1049 CURVE",
"1222 1301 OFFCURVE",
"1143 1446 OFFCURVE",
"742 1446 CURVE SMOOTH",
"218 1446 LINE"
);
},
{
closed = 1;
nodes = (
"420 149 LINE",
"420 696 LINE",
"820 696 LINE SMOOTH",
"1041 696 OFFCURVE",
"1094 565 OFFCURVE",
"1094 433 CURVE SMOOTH",
"1094 197 OFFCURVE",
"995 149 OFFCURVE",
"771 149 CURVE SMOOTH"
);
},
{
closed = 1;
nodes = (
"420 833 LINE",
"420 1295 LINE",
"711 1295 LINE SMOOTH",
"955 1295 OFFCURVE",
"1021 1256 OFFCURVE",
"1021 1047 CURVE SMOOTH",
"1021 917 OFFCURVE",
"973 833 OFFCURVE",
"791 833 CURVE SMOOTH"
);
}
);
width = 1420;
},
{
anchors = (
{
name = top;
position = "{727, 1476}";
}
);
layerId = "C6C96970-2BBD-4A47-8C90-C83F37B7F23D";
name = Bold;
paths = (
{
closed = 1;
nodes = (
"190 0 LINE",
"830 0 LINE SMOOTH",
"1196 0 OFFCURVE",
"1351 139 OFFCURVE",
"1344 448 CURVE SMOOTH",
"1344 641 OFFCURVE",
"1297 776 OFFCURVE",
"1092 804 CURVE",
"1246 843 OFFCURVE",
"1280 938 OFFCURVE",
"1281 1088 CURVE SMOOTH",
"1281 1353 OFFCURVE",
"1171 1476 OFFCURVE",
"758 1476 CURVE SMOOTH",
"190 1476 LINE"
);
},
{
closed = 1;
nodes = (
"487 208 LINE",
"487 703 LINE",
"805 703 LINE SMOOTH",
"1027 703 OFFCURVE",
"1048 602 OFFCURVE",
"1048 455 CURVE SMOOTH",
"1048 250 OFFCURVE",
"1006 208 OFFCURVE",
"775 208 CURVE SMOOTH"
);
},
{
closed = 1;
nodes = (
"487 882 LINE",
"487 1273 LINE",
"739 1273 LINE SMOOTH",
"940 1273 OFFCURVE",
"978 1240 OFFCURVE",
"978 1085 CURVE SMOOTH",
"978 952 OFFCURVE",
"967 882 OFFCURVE",
"794 882 CURVE SMOOTH"
);
}
);
width = 1456.23;
}
);
unicode = 0042;
},
{
glyphname = C;
lastChange = "2014-01-28 19:50:35 -0800";
layers = (
{
anchors = (
{
name = bot;
position = "{765, 0}";
},
{
name = top;
position = "{765, 1446}";
}
);
layerId = "F85E8FEC-B3CD-4A54-BF30-AB1986ECE904";
name = Regular;
paths = (
{
closed = 1;
nodes = (
"761 -22 CURVE SMOOTH",
"1221 -22 OFFCURVE",
"1298 147 OFFCURVE",
"1300 438 CURVE SMOOTH",
"1300 442 OFFCURVE",
"1300 445 OFFCURVE",
"1300 448 CURVE",
"1109 448 LINE",
"1109 440 OFFCURVE",
"1109 432 OFFCURVE",
"1109 424 CURVE SMOOTH",
"1104 165 OFFCURVE",
"1016 140 OFFCURVE",
"765 140 CURVE SMOOTH",
"509 140 OFFCURVE",
"384 199 OFFCURVE",
"384 455 CURVE SMOOTH",
"384 977 LINE SMOOTH",
"384 1234 OFFCURVE",
"505 1306 OFFCURVE",
"759 1306 CURVE SMOOTH",
"1017 1306 OFFCURVE",
"1103 1269 OFFCURVE",
"1109 1007 CURVE SMOOTH",
"1109 998 OFFCURVE",
"1109 989 OFFCURVE",
"1109 980 CURVE",
"1300 997 LINE",
"1300 1001 OFFCURVE",
"1300 1006 OFFCURVE",
"1300 1010 CURVE SMOOTH",
"1297 1308 OFFCURVE",
"1197 1468 OFFCURVE",
"759 1468 CURVE SMOOTH",
"274 1468 OFFCURVE",
"182 1246 OFFCURVE",
"182 940 CURVE SMOOTH",
"182 486 LINE SMOOTH",
"182 185 OFFCURVE",
"278 -22 OFFCURVE"
);
}
);
width = 1456;
},
{
anchors = (
{
name = bot;
position = "{757, 0}";
},
{
name = top;
position = "{780, 1476}";
}
);
layerId = "C6C96970-2BBD-4A47-8C90-C83F37B7F23D";
name = Bold;
paths = (
{
closed = 1;
nodes = (
"780 -26 CURVE SMOOTH",
"1292 -26 OFFCURVE",
"1362 190 OFFCURVE",
"1362 480 CURVE SMOOTH",
"1362 507 LINE",
"1071 507 LINE",
"1071 460 LINE SMOOTH",
"1071 250 OFFCURVE",
"1006 207 OFFCURVE",
"781 207 CURVE SMOOTH",
"559 207 OFFCURVE",
"457 252 OFFCURVE",
"457 454 CURVE SMOOTH",
"457 1012 LINE SMOOTH",
"457 1215 OFFCURVE",
"560 1268 OFFCURVE",
"780 1268 CURVE SMOOTH",
"1005 1268 OFFCURVE",
"1071 1213 OFFCURVE",
"1071 1006 CURVE SMOOTH",
"1071 931 LINE",
"1362 965 LINE",
"1362 983 LINE SMOOTH",
"1362 1281 OFFCURVE",
"1284 1501 OFFCURVE",
"780 1501 CURVE SMOOTH",
"251 1501 OFFCURVE",
"160 1275 OFFCURVE",
"160 977 CURVE SMOOTH",
"160 484 LINE SMOOTH",
"160 193 OFFCURVE",
"254 -26 OFFCURVE"
);
}
);
width = 1490;
}
);
unicode = 0043;
},
{
glyphname = D;
lastChange = "2014-01-28 19:50:35 -0800";
layers = (
{
anchors = (
{
name = mid;
position = "{357, 762}";
},
{
name = top;
position = "{716, 1446}";
}
);
layerId = "F85E8FEC-B3CD-4A54-BF30-AB1986ECE904";
name = Regular;
paths = (
{
closed = 1;
nodes = (
"420 150 LINE",
"420 1295 LINE",
"774 1295 LINE SMOOTH",
"980 1295 OFFCURVE",
"1139 1238 OFFCURVE",
"1139 971 CURVE SMOOTH",
"1139 462 LINE SMOOTH",
"1139 196 OFFCURVE",
"982 150 OFFCURVE",
"774 150 CURVE SMOOTH"
);
},
{
closed = 1;
nodes = (
"218 0 LINE",
"794 0 LINE SMOOTH",
"1161 0 OFFCURVE",
"1340 169 OFFCURVE",
"1340 482 CURVE SMOOTH",
"1340 959 LINE SMOOTH",
"1340 1235 OFFCURVE",
"1193 1446 OFFCURVE",
"792 1446 CURVE SMOOTH",
"218 1446 LINE"
);
}
);
width = 1522;
},
{
anchors = (
{
name = mid;
position = "{353, 781}";
},
{
name = top;
position = "{757, 1476}";
}
);
layerId = "C6C96970-2BBD-4A47-8C90-C83F37B7F23D";
name = Bold;
paths = (
{
closed = 1;
nodes = (
"487 231 LINE",
"487 1245 LINE",
"805 1245 LINE SMOOTH",
"1011 1245 OFFCURVE",
"1077 1160 OFFCURVE",
"1077 1000 CURVE SMOOTH",
"1077 470 LINE SMOOTH",
"1077 306 OFFCURVE",
"1014 231 OFFCURVE",
"805 231 CURVE SMOOTH"
);
},
{
closed = 1;
nodes = (
"190 0 LINE",
"831 0 LINE SMOOTH",
"1246 0 OFFCURVE",
"1374 213 OFFCURVE",
"1374 508 CURVE SMOOTH",
"1374 961 LINE SMOOTH",
"1374 1250 OFFCURVE",
"1258 1476 OFFCURVE",
"830 1476 CURVE SMOOTH",
"190 1476 LINE"
);
}
);
width = 1534;
}
);
unicode = 0044;
},
{
glyphname = E;
lastChange = "2014-01-29 04:15:38 -0800";
layers = (
{
anchors = (
{
name = bot;
position = "{628, 0}";
},
{
name = ogonek;
position = "{844, 0}";
},
{
name = top;
position = "{676, 1446}";
}
);
layerId = "F85E8FEC-B3CD-4A54-BF30-AB1986ECE904";
name = Regular;
paths = (
{
closed = 1;
nodes = (
"218 0 LINE",
"1133 0 LINE",
"1133 150 LINE",
"419 150 LINE",
"419 670 LINE",
"1039 670 LINE",
"1039 820 LINE",
"419 820 LINE",
"419 1296 LINE",
"1121 1296 LINE",
"1121 1446 LINE",
"218 1446 LINE"
);
}
);
width = 1255;
},
{
anchors = (
{
name = bot;
position = "{705, 0}";
},
{
name = ogonek;
position = "{870, 0}";
},
{
name = top;
position = "{721, 1476}";
}
);
layerId = "C6C96970-2BBD-4A47-8C90-C83F37B7F23D";
name = Bold;
paths = (
{
closed = 1;
nodes = (
"190 0 LINE",
"1168 0 LINE",
"1168 224 LINE",
"486 224 LINE",
"486 646 LINE",
"1081 646 LINE",
"1081 860 LINE",
"486 860 LINE",
"486 1252 LINE",
"1157 1252 LINE",
"1157 1476 LINE",
"190 1476 LINE"
);
}
);
width = 1294;
}
);
unicode = 0045;
},
{
glyphname = F;
lastChange = "2014-01-28 19:50:35 -0800";
layers = (
{
anchors = (
{
name = top;
position = "{656, 1446}";
}
);
layerId = "F85E8FEC-B3CD-4A54-BF30-AB1986ECE904";
name = Regular;
paths = (
{
closed = 1;
nodes = (
"218 0 LINE",
"419 0 LINE",
"419 664 LINE",
"1003 664 LINE",
"1003 814 LINE",
"419 814 LINE",
"419 1296 LINE",
"1039 1296 LINE",
"1039 1446 LINE",
"218 1446 LINE"
);
}
);
width = 1159;
},
{
anchors = (
{
name = top;
position = "{676, 1476}";
}
);
layerId = "C6C96970-2BBD-4A47-8C90-C83F37B7F23D";
name = Bold;
paths = (
{
closed = 1;
nodes = (
"190 0 LINE",
"487 0 LINE",
"487 634 LINE",
"1042 634 LINE",
"1042 847 LINE",
"487 847 LINE",
"487 1249 LINE",
"1083 1249 LINE",
"1083 1476 LINE",
"190 1476 LINE"
);
}
);
width = 1173;
}
);
unicode = 0046;
},
{
glyphname = G;
lastChange = "2014-01-28 19:50:35 -0800";
layers = (
{
anchors = (
{
name = bot;
position = "{778, 0}";
},
{
name = top;
position = "{776, 1446}";
}
);
layerId = "F85E8FEC-B3CD-4A54-BF30-AB1986ECE904";
name = Regular;
paths = (
{
closed = 1;
nodes = (
"788 -22 CURVE SMOOTH",
"1074 -22 OFFCURVE",
"1201 89 OFFCURVE",
"1225 246 CURVE",
"1250 0 LINE",
"1360 0 LINE",
"1360 735 LINE",
"815 735 LINE",
"815 588 LINE",
"1158 588 LINE",
"1158 455 LINE SMOOTH",
"1158 199 OFFCURVE",
"1046 140 OFFCURVE",
"788 140 CURVE SMOOTH",
"532 140 OFFCURVE",
"388 199 OFFCURVE",
"388 455 CURVE SMOOTH",
"388 977 LINE SMOOTH",
"388 1234 OFFCURVE",
"534 1306 OFFCURVE",
"788 1306 CURVE SMOOTH",
"1055.4 1306 OFFCURVE",
"1151.19 1278.78 OFFCURVE",
"1159.41 1037.3 CURVE SMOOTH",
"1159.81 1025.7 OFFCURVE",
"1160 1013.61 OFFCURVE",
"1160 1001 CURVE",
"1344 1016 LINE",
"1344 1025.16 OFFCURVE",
"1343.91 1034.22 OFFCURVE",
"1343.71 1043.17 CURVE SMOOTH",
"1338.17 1297.76 OFFCURVE",
"1248.79 1468 OFFCURVE",
"788 1468 CURVE SMOOTH",
"303 1468 OFFCURVE",
"186 1246 OFFCURVE",
"186 940 CURVE SMOOTH",
"186 486 LINE SMOOTH",
"186 185 OFFCURVE",
"305 -22 OFFCURVE"
);
}
);
width = 1556;
},
{
anchors = (
{
name = bot;
position = "{760, 0}";
},
{
name = top;
position = "{815, 1476}";
}
);
layerId = "C6C96970-2BBD-4A47-8C90-C83F37B7F23D";
name = Bold;
paths = (
{
closed = 1;
nodes = (
"813 -26 CURVE SMOOTH",
"1132 -26 OFFCURVE",
"1200 123 OFFCURVE",
"1215 170 CURVE",
"1262 0 LINE",
"1419 0 LINE",
"1419 757 LINE",
"853 757 LINE",
"853 562 LINE",
"1151 562 LINE",
"1151 454 LINE SMOOTH",
"1151 252 OFFCURVE",
"1038 207 OFFCURVE",
"813 207 CURVE SMOOTH",
"591 207 OFFCURVE",
"458 252 OFFCURVE",
"458 454 CURVE SMOOTH",
"458 1012 LINE SMOOTH",
"458 1215 OFFCURVE",
"593 1268 OFFCURVE",
"813 1268 CURVE SMOOTH",
"1035 1268 OFFCURVE",
"1126 1219 OFFCURVE",
"1126 1021 CURVE SMOOTH",
"1126 962 LINE",
"1418 984 LINE",
"1418 1007 LINE SMOOTH",
"1418 1290 OFFCURVE",
"1325 1501 OFFCURVE",
"813 1501 CURVE SMOOTH",
"284 1501 OFFCURVE",
"160 1275 OFFCURVE",
"160 977 CURVE SMOOTH",
"160 484 LINE SMOOTH",
"160 193 OFFCURVE",
"287 -26 OFFCURVE"
);
}
);
width = 1607;
}
);
unicode = 0047;
},
{
glyphname = H;
lastChange = "2014-01-28 19:50:35 -0800";
layers = (
{
anchors = (
{
name = center;
position = "{764, 0}";
},
{
name = top;
position = "{754, 1446}";
}
);
layerId = "F85E8FEC-B3CD-4A54-BF30-AB1986ECE904";
name = Regular;
paths = (
{
closed = 1;
nodes = (
"212 0 LINE",
"413 0 LINE",
"413 659 LINE",
"1115 659 LINE",
"1115 0 LINE",
"1316 0 LINE",
"1316 1446 LINE",
"1115 1446 LINE",
"1115 807 LINE",
"413 807 LINE",
"413 1446 LINE",
"212 1446 LINE"
);
}
);
width = 1528;
},
{
anchors = (
{
name = top;
position = "{825, 1476}";
}
);
layerId = "C6C96970-2BBD-4A47-8C90-C83F37B7F23D";
name = Bold;
paths = (
{
closed = 1;
nodes = (
"190 0 LINE",
"488 0 LINE",
"488 615 LINE",
"1136 615 LINE",
"1136 0 LINE",
"1434 0 LINE",
"1434 1476 LINE",
"1136 1476 LINE",
"1136 848 LINE",
"488 848 LINE",
"488 1476 LINE",
"190 1476 LINE"
);
}
);
width = 1624;
}
);
unicode = 0048;
},
{
glyphname = Hbar;
lastChange = "2014-01-29 04:22:14 -0800";
layers = (
{
components = (
{
name = H;
transform = "{1, 0, 0, 1, 0, 0}";
}
);
layerId = "F85E8FEC-B3CD-4A54-BF30-AB1986ECE904";
name = Regular;
paths = (
{
closed = 1;
nodes = (
"144 1060 LINE",
"1392 1060 LINE",
"1392 1184 LINE",
"144 1184 LINE"
);
}
);
width = 1536;
},
{
components = (
{
name = H;
transform = "{1, 0, 0, 1, 0, 0}";
}
);
layerId = "C6C96970-2BBD-4A47-8C90-C83F37B7F23D";
name = Bold;
paths = (
{
closed = 1;
nodes = (
"84 1132 LINE",
"1540 1132 LINE",
"1540 1236 LINE",
"84 1236 LINE"
);
}
);
width = 1624;
}
);
unicode = 0126;
},
{
glyphname = I;
lastChange = "2014-01-28 19:50:35 -0800";
layers = (
{
anchors = (
{
name = ogonek;
position = "{641, 0}";
},
{
name = top;
position = "{568, 1446}";
}
);
layerId = "F85E8FEC-B3CD-4A54-BF30-AB1986ECE904";
name = Regular;
paths = (
{
closed = 1;
nodes = (
"190 0 LINE",
"942 0 LINE",
"942 150 LINE",
"667 150 LINE",
"667 1297 LINE",
"942 1297 LINE",
"942 1446 LINE",
"190 1446 LINE",
"190 1297 LINE",
"466 1297 LINE",
"466 150 LINE",
"190 150 LINE"
);
}
);
width = 1132;
},
{
anchors = (
{
name = ogonek;
position = "{583, 0}";
},
{
name = top;
position = "{596, 1476}";
}
);
layerId = "C6C96970-2BBD-4A47-8C90-C83F37B7F23D";
name = Bold;
paths = (
{
closed = 1;
nodes = (
"158 0 LINE",
"990 0 LINE",
"990 222 LINE",
"723 222 LINE",
"723 1255 LINE",
"990 1255 LINE",
"990 1476 LINE",
"158 1476 LINE",
"158 1255 LINE",
"427 1255 LINE",
"427 222 LINE",
"158 222 LINE"
);
}
);
width = 1148;
}
);
unicode = 0049;
},
{
glyphname = J;
lastChange = "2014-01-28 19:50:35 -0800";
layers = (
{
anchors = (
{
name = top;
position = "{645, 1446}";
}
);
layerId = "F85E8FEC-B3CD-4A54-BF30-AB1986ECE904";
name = Regular;
paths = (
{
closed = 1;
nodes = (
"522 -17 CURVE SMOOTH",
"847 -17 OFFCURVE",
"988 157 OFFCURVE",
"988 431 CURVE SMOOTH",
"988 1446 LINE",
"234 1446 LINE",
"234 1281 LINE",
"787 1281 LINE",
"787 435 LINE SMOOTH",
"787 248 OFFCURVE",
"707 148 OFFCURVE",
"516 148 CURVE SMOOTH",
"370 148 OFFCURVE",
"204 203 OFFCURVE",
"157 225 CURVE",
"102 70 LINE",
"167 36 OFFCURVE",
"354 -17 OFFCURVE"
);
}
);
width = 1206;
},
{
anchors = (
{
name = top;
position = "{637, 1476}";
}
);
layerId = "C6C96970-2BBD-4A47-8C90-C83F37B7F23D";
name = Bold;
paths = (
{
closed = 1;
nodes = (
"504 -25 CURVE SMOOTH",
"835 -25 OFFCURVE",
"1036 138 OFFCURVE",
"1036 422 CURVE SMOOTH",
"1036 1476 LINE",
"231 1476 LINE",
"231 1250 LINE",
"739 1250 LINE",
"739 441 LINE SMOOTH",
"739 313 OFFCURVE",
"671 209 OFFCURVE",
"485 209 CURVE SMOOTH",
"381 209 OFFCURVE",
"236 242 OFFCURVE",
"139 287 CURVE",
"70 67 LINE",
"200 6 OFFCURVE",
"360 -25 OFFCURVE"
);
}
);
width = 1222;
}
);
unicode = 004A;
},
{
glyphname = K;
lastChange = "2014-01-28 19:50:35 -0800";
layers = (
{
anchors = (
{
name = bot;
position = "{709, 0}";
},
{
name = top;
position = "{733, 1446}";
}
);
layerId = "F85E8FEC-B3CD-4A54-BF30-AB1986ECE904";
name = Regular;
paths = (
{
closed = 1;
nodes = (
"218 0 LINE",
"419 0 LINE",
"419 468 LINE",
"637 690 LINE",
"1127 0 LINE",
"1350 0 LINE",
"778 798 LINE",
"1321 1446 LINE",
"1103 1446 LINE",
"875 1183 OFFCURVE",
"641 927 OFFCURVE",
"419 657 CURVE",
"419 1446 LINE",
"218 1446 LINE"
);
}
);
width = 1418;
},
{
anchors = (
{
name = bot;
position = "{760, 0}";
},
{
name = top;
position = "{734, 1476}";
}
);
layerId = "C6C96970-2BBD-4A47-8C90-C83F37B7F23D";
name = Bold;
paths = (
{
closed = 1;
nodes = (
"190 0 LINE",
"487 0 LINE",
"487 541 LINE",
"626 679 LINE",
"1091 0 LINE",
"1426 0 LINE",
"872 804 LINE",
"1389 1476 LINE",
"1061 1476 LINE",
"487 760 LINE",
"487 1476 LINE",
"190 1476 LINE"
);
}
);
width = 1448;
}
);
unicode = 004B;
},
{
glyphname = L;
lastChange = "2014-01-29 04:35:48 -0800";
layers = (
{
anchors = (
{
name = bot;
position = "{623, 0}";
},
{
name = mid;
position = "{307, 725}";
},
{
name = top;
position = "{595, 1446}";
}
);
layerId = "F85E8FEC-B3CD-4A54-BF30-AB1986ECE904";
name = Regular;
paths = (
{
closed = 1;
nodes = (
"218 0 LINE",
"1068 0 LINE",
"1068 155 LINE",
"419 155 LINE",
"419 1446 LINE",
"218 1446 LINE"
);
}
);
width = 1145;
},
{
anchors = (
{
name = bot;
position = "{635, 0}";
},
{
name = mid;
position = "{403, 811}";
},
{
name = top;
position = "{422, 1476}";
}
);
layerId = "C6C96970-2BBD-4A47-8C90-C83F37B7F23D";
name = Bold;
paths = (
{
closed = 1;
nodes = (
"190 0 LINE",
"1104 0 LINE",
"1104 232 LINE",
"487 232 LINE",
"487 1476 LINE",
"190 1476 LINE"
);
}
);
width = 1172;
}
);
unicode = 004C;
},
{
glyphname = Lslash;
lastChange = "2014-01-29 04:36:35 -0800";
layers = (
{
components = (
{
name = L;
transform = "{1, 0, 0, 1, 0, 0}";
}
);
layerId = "F85E8FEC-B3CD-4A54-BF30-AB1986ECE904";
name = Regular;
paths = (
{
closed = 1;
nodes = (
"52 616 LINE",
"826 1002 LINE",
"826 1126 LINE",
"52 740 LINE"
);
}
);
width = 1145;
},
{
components = (
{
name = L;
transform = "{1, 0, 0, 1, 0, 0}";
}
);
layerId = "C6C96970-2BBD-4A47-8C90-C83F37B7F23D";
name = Bold;
paths = (
{
closed = 1;
nodes = (
"24 560 LINE",
"793 871 LINE",
"793 1094 LINE",
"24 783 LINE"
);
}
);
width = 1172;
}
);
unicode = 0141;
},
{
glyphname = M;
lastChange = "2014-01-28 21:08:27 -0800";
layers = (
{
anchors = (
{
name = top;
position = "{886, 1446}";
}
);
layerId = "F85E8FEC-B3CD-4A54-BF30-AB1986ECE904";
name = Regular;
paths = (
{
closed = 1;
nodes = (
"218 0 LINE",
"410 0 LINE",
"410 1117 LINE",
"816 458 LINE",
"965 458 LINE",
"1370 1121 LINE",
"1370 0 LINE",
"1560 0 LINE",
"1560 1446 LINE",
"1382 1446 LINE",
"890 638 LINE",
"403 1446 LINE",
"218 1446 LINE"
);
}
);
width = 1778;
},
{
anchors = (
{
name = top;
position = "{962, 1476}";
}
);
layerId = "C6C96970-2BBD-4A47-8C90-C83F37B7F23D";
name = Bold;
paths = (
{
closed = 1;
nodes = (
"190 0 LINE",
"468 0 LINE",
"468 1087 LINE",
"838 429 LINE",
"1037 429 LINE",
"1406 1091 LINE",
"1406 0 LINE",
"1684 0 LINE",
"1684 1476 LINE",
"1351 1476 LINE",
"937 761 LINE",
"517 1476 LINE",
"190 1476 LINE"
);
}
);
width = 1874;
}
);
unicode = 004D;
},
{
glyphname = N;
lastChange = "2014-01-28 19:50:35 -0800";
layers = (
{
anchors = (
{
name = bot;
position = "{797, 0}";
},
{
name = top;
position = "{797, 1446}";
}
);
layerId = "F85E8FEC-B3CD-4A54-BF30-AB1986ECE904";
name = Regular;
paths = (
{
closed = 1;
nodes = (
"218 0 LINE",
"395 0 LINE",
"395 1104 LINE",
"1197 0 LINE",
"1376 0 LINE",
"1376 1446 LINE",
"1199 1446 LINE",
"1199 290 LINE",
"371 1446 LINE",
"218 1446 LINE"
);
}
);
width = 1594;
},
{
anchors = (
{
name = bot;
position = "{880, 0}";
},
{
name = top;
position = "{842, 1476}";
}
);
layerId = "C6C96970-2BBD-4A47-8C90-C83F37B7F23D";
name = Bold;
paths = (
{
closed = 1;
nodes = (
"190 0 LINE",
"457 0 LINE",
"457 996 LINE",
"1221 0 LINE",
"1444 0 LINE",
"1444 1476 LINE",
"1180 1476 LINE",
"1180 464 LINE",
"413 1476 LINE",
"190 1476 LINE"
);
}
);
width = 1634;
}
);
unicode = 004E;
},
{
glyphname = Eng;
lastChange = "2014-01-28 19:50:35 -0800";
layers = (
{
layerId = "F85E8FEC-B3CD-4A54-BF30-AB1986ECE904";
name = Regular;
paths = (
{
closed = 1;
nodes = (
"821 -373 LINE",
"1152 -373 OFFCURVE",
"1370 -259 OFFCURVE",
"1370 122 CURVE SMOOTH",
"1370 1446 LINE",
"1193 1446 LINE",
"1193 470 LINE",
"365 1446 LINE",
"212 1446 LINE",
"212 0 LINE",
"389 0 LINE",
"389 1104 LINE",
"1182 190 LINE",
"1182 115 LINE SMOOTH",
"1182 -197 OFFCURVE",
"1037 -210 OFFCURVE",
"793 -232 CURVE"
);
}
);
width = 1582;
},
{
layerId = "C6C96970-2BBD-4A47-8C90-C83F37B7F23D";
name = Bold;
paths = (
{
closed = 1;
nodes = (
"901 -382 LINE",
"1343 -382 OFFCURVE",
"1450 -219 OFFCURVE",
"1450 162 CURVE SMOOTH",
"1450 1477 LINE",
"1183 1477 LINE",
"1183 560 LINE",
"415 1477 LINE",
"190 1477 LINE",
"190 0 LINE",
"458 0 LINE",
"458 996 LINE",
"1177 153 LINE",
"1177 117 LINE SMOOTH",
"1177 -159 OFFCURVE",
"1106 -171 OFFCURVE",
"873 -192 CURVE"
);
}
);
width = 1640;
}
);
unicode = 014A;
},
{
glyphname = O;
lastChange = "2014-01-28 19:50:35 -0800";
layers = (
{
anchors = (
{
name = bot;
position = "{782, 0}";
},
{
name = ogonek;
position = "{818, 0}";
},
{
name = top;
position = "{782, 1446}";
}
);
layerId = "F85E8FEC-B3CD-4A54-BF30-AB1986ECE904";
name = Regular;
paths = (
{
closed = 1;
nodes = (
"782 140 CURVE SMOOTH",
"526 140 OFFCURVE",
"388 199 OFFCURVE",
"388 455 CURVE SMOOTH",
"388 978 LINE SMOOTH",
"388 1235 OFFCURVE",
"528 1306 OFFCURVE",
"782 1306 CURVE SMOOTH",
"1038 1306 OFFCURVE",
"1159 1235 OFFCURVE",
"1159 978 CURVE SMOOTH",
"1159 455 LINE SMOOTH",
"1159 199 OFFCURVE",
"1040 140 OFFCURVE"
);
},
{
closed = 1;
nodes = (
"782 -22 CURVE SMOOTH",
"1247 -22 OFFCURVE",
"1360 203 OFFCURVE",
"1360 500 CURVE SMOOTH",
"1360 928 LINE SMOOTH",
"1360 1234 OFFCURVE",
"1249 1468 OFFCURVE",
"782 1468 CURVE SMOOTH",
"297 1468 OFFCURVE",
"186 1247 OFFCURVE",
"186 941 CURVE SMOOTH",
"186 486 LINE SMOOTH",
"186 185 OFFCURVE",
"299 -22 OFFCURVE"
);
}
);
width = 1546;
},
{
anchors = (
{
name = ogonek;
position = "{875, 0}";
},
{
name = top;
position = "{814, 1476}";
}
);
layerId = "C6C96970-2BBD-4A47-8C90-C83F37B7F23D";
name = Bold;
paths = (
{
closed = 1;
nodes = (
"814 207 CURVE SMOOTH",
"592 207 OFFCURVE",
"458 265 OFFCURVE",
"458 468 CURVE SMOOTH",
"458 1003 LINE SMOOTH",
"458 1205 OFFCURVE",
"594 1268 OFFCURVE",
"814 1268 CURVE SMOOTH",
"1036 1268 OFFCURVE",
"1148 1201 OFFCURVE",
"1148 1003 CURVE SMOOTH",
"1148 468 LINE SMOOTH",
"1148 266 OFFCURVE",
"1038 207 OFFCURVE"
);
},
{
closed = 1;
nodes = (
"814 -26 CURVE SMOOTH",
"1322 -26 OFFCURVE",
"1446 227 OFFCURVE",
"1446 517 CURVE SMOOTH",
"1446 948 LINE SMOOTH",
"1446 1247 OFFCURVE",
"1324 1501 OFFCURVE",
"814 1501 CURVE SMOOTH",
"281 1501 OFFCURVE",
"160 1262 OFFCURVE",
"160 963 CURVE SMOOTH",
"160 501 LINE SMOOTH",
"160 209 OFFCURVE",
"283 -26 OFFCURVE"
);
}
);
width = 1606;
}
);
unicode = 004F;
},
{
glyphname = Oslash;
lastChange = "2014-01-29 04:16:59 -0800";
layers = (
{
anchors = (
{
name = top;
position = "{791, 1446}";
}
);
components = (
{
name = O;
transform = "{1, 0, 0, 1, 0, 0}";
}
);
layerId = "F85E8FEC-B3CD-4A54-BF30-AB1986ECE904";
name = Regular;
paths = (
{
closed = 1;
nodes = (
"479 -195 LINE",
"1158 1638 LINE",
"1054 1676 LINE",
"376 -157 LINE"
);
}
);
width = 1546;
},
{
components = (
{
name = O;
transform = "{1, 0, 0, 1, 0, 0}";
}
);
layerId = "C6C96970-2BBD-4A47-8C90-C83F37B7F23D";
name = Bold;
paths = (
{
closed = 1;
nodes = (
"504 -217 LINE",
"1227 1675 LINE",
"1140 1698 LINE",
"417 -194 LINE"
);
}
);
width = 1606;
}
);
unicode = 00D8;
},
{
glyphname = OE;
lastChange = "2014-01-28 19:50:35 -0800";
layers = (
{
anchors = (
{
name = top;
position = "{779, 0}";
}
);
layerId = "F85E8FEC-B3CD-4A54-BF30-AB1986ECE904";
name = Regular;
paths = (
{
closed = 1;
nodes = (
"775 0 CURVE SMOOTH",
"1399 0 LINE",
"1399 150 LINE",
"976 150 LINE",
"976 664 LINE",
"1329 664 LINE",
"1329 814 LINE",
"976 814 LINE",
"976 1296 LINE",
"1390 1296 LINE",
"1390 1446 LINE",
"775 1446 LINE SMOOTH",
"290 1446 OFFCURVE",
"183 1224 OFFCURVE",
"183 918 CURVE SMOOTH",
"183 510 LINE SMOOTH",
"183 209 OFFCURVE",
"292 0 OFFCURVE"
);
},
{
closed = 1;
nodes = (
"765 150 LINE SMOOTH",
"516 150 OFFCURVE",
"385 226 OFFCURVE",
"385 479 CURVE SMOOTH",
"385 955 LINE SMOOTH",
"385 1208 OFFCURVE",
"517 1295 OFFCURVE",
"764 1295 CURVE SMOOTH",
"775 1295 LINE",
"775 150 LINE"
);
}
);
width = 1557;
},
{
layerId = "C6C96970-2BBD-4A47-8C90-C83F37B7F23D";
name = Bold;
paths = (
{
closed = 1;
nodes = (
"717 0 CURVE SMOOTH",
"1507 0 LINE",
"1507 190 LINE",
"1156 190 LINE",
"1156 665 LINE",
"1422 665 LINE",
"1422 858 LINE",
"1156 858 LINE",
"1156 1287 LINE",
"1505 1287 LINE",
"1505 1476 LINE",
"717 1476 LINE SMOOTH",
"264 1475 OFFCURVE",
"160 1247 OFFCURVE",
"160 958 CURVE SMOOTH",
"160 506 LINE SMOOTH",
"160 211 OFFCURVE",
"266 0 OFFCURVE"
);
},
{
closed = 1;
nodes = (
"714 191 LINE SMOOTH",
"494 191 OFFCURVE",
"430 302 OFFCURVE",
"430 444 CURVE SMOOTH",
"430 1022 LINE SMOOTH",
"430 1165 OFFCURVE",
"495 1279 OFFCURVE",
"713 1279 CURVE SMOOTH",
"886 1279 LINE",
"886 191 LINE"
);
}
);
width = 1633;
}
);
unicode = 0152;
},
{
glyphname = P;
lastChange = "2014-01-28 19:50:35 -0800";
layers = (
{
anchors = (
{
name = top;
position = "{716, 1446}";
}
);
layerId = "F85E8FEC-B3CD-4A54-BF30-AB1986ECE904";
name = Regular;
paths = (
{
closed = 1;
nodes = (
"218 0 LINE",
"420 0 LINE",
"420 529 LINE",
"793 529 LINE SMOOTH",
"1039 529 OFFCURVE",
"1198 645 OFFCURVE",
"1198 991 CURVE SMOOTH",
"1198 1320 OFFCURVE",
"1039 1446 OFFCURVE",
"796 1446 CURVE SMOOTH",
"218 1446 LINE"
);
},
{
closed = 1;
nodes = (
"420 682 LINE",
"420 1293 LINE",
"802 1293 LINE SMOOTH",
"983 1293 OFFCURVE",
"996 1118 OFFCURVE",
"996 977 CURVE SMOOTH",
"996 828 OFFCURVE",
"972 682 OFFCURVE",
"797 682 CURVE SMOOTH"
);
}
);
width = 1326;
},
{
anchors = (
{
name = top;
position = "{706, 1476}";
}
);
layerId = "C6C96970-2BBD-4A47-8C90-C83F37B7F23D";
name = Bold;
paths = (
{
closed = 1;
nodes = (
"190 0 LINE",
"487 0 LINE",
"487 509 LINE",
"740 509 LINE SMOOTH",
"1126 509 OFFCURVE",
"1250 663 OFFCURVE",
"1250 1005 CURVE SMOOTH",
"1250 1337 OFFCURVE",
"1095 1476 OFFCURVE",
"769 1476 CURVE SMOOTH",
"190 1476 LINE"
);
},
{
closed = 1;
nodes = (
"487 726 LINE",
"487 1265 LINE",
"797 1265 LINE SMOOTH",
"937 1265 OFFCURVE",
"972 1145 OFFCURVE",
"972 990 CURVE SMOOTH",
"972 813 OFFCURVE",
"937 726 OFFCURVE",
"787 726 CURVE SMOOTH"
);
}
);
width = 1336;
}
);
unicode = 0050;
},
{
glyphname = Thorn;
lastChange = "2014-01-28 19:50:35 -0800";
layers = (
{
layerId = "F85E8FEC-B3CD-4A54-BF30-AB1986ECE904";
name = Regular;
paths = (
{
closed = 1;
nodes = (
"212 0 LINE",
"414 0 LINE",
"414 331 LINE",
"787 331 LINE SMOOTH",
"1033 331 OFFCURVE",
"1192 427 OFFCURVE",
"1192 773 CURVE SMOOTH",
"1192 1102 OFFCURVE",
"1031 1208 OFFCURVE",
"788 1208 CURVE SMOOTH",
"414 1208 LINE",
"414 1446 LINE",
"212 1446 LINE"
);
},
{
closed = 1;
nodes = (
"414 484 LINE",
"414 1055 LINE",
"794 1055 LINE SMOOTH",
"975 1055 OFFCURVE",
"990 900 OFFCURVE",
"990 759 CURVE SMOOTH",
"990 610 OFFCURVE",
"966 484 OFFCURVE",
"791 484 CURVE SMOOTH"
);
}
);
width = 1320;
},
{
layerId = "C6C96970-2BBD-4A47-8C90-C83F37B7F23D";
name = Bold;
paths = (
{
closed = 1;
nodes = (
"216 0 LINE",
"513 0 LINE",
"513 356 LINE",
"778 356 LINE SMOOTH",
"1164 356 OFFCURVE",
"1272 469 OFFCURVE",
"1272 811 CURVE SMOOTH",
"1272 1143 OFFCURVE",
"1133 1240 OFFCURVE",
"806 1240 CURVE SMOOTH",
"513 1240 LINE",
"513 1476 LINE",
"216 1476 LINE"
);
},
{
closed = 1;
nodes = (
"513 567 LINE",
"513 1033 LINE",
"834 1033 LINE SMOOTH",
"974 1033 OFFCURVE",
"1004 951 OFFCURVE",
"1004 797 CURVE SMOOTH",
"1004 619 OFFCURVE",
"975 567 OFFCURVE",
"825 567 CURVE SMOOTH"
);
}
);
width = 1362;
}
);
unicode = 00DE;
},
{
glyphname = Q;
lastChange = "2014-01-28 19:50:35 -0800";
layers = (
{
layerId = "F85E8FEC-B3CD-4A54-BF30-AB1986ECE904";
name = Regular;
paths = (
{
closed = 1;
nodes = (
"944 -384 LINE",
"1085 -308 LINE",
"895.384 -17 LINE",
"1265.78 17.6398 OFFCURVE",
"1360 228.804 OFFCURVE",
"1360 500 CURVE SMOOTH",
"1360 928 LINE SMOOTH",
"1360 1234 OFFCURVE",
"1249 1468 OFFCURVE",
"782 1468 CURVE SMOOTH",
"297 1468 OFFCURVE",
"186 1247 OFFCURVE",
"186 941 CURVE SMOOTH",
"186 486 LINE SMOOTH",
"186 199.645 OFFCURVE",
"288.271 -2 OFFCURVE",
"714.097 -21 CURVE"
);
},
{
closed = 1;
nodes = (
"782 140 CURVE SMOOTH",
"526 140 OFFCURVE",
"388 199 OFFCURVE",
"388 455 CURVE SMOOTH",
"388 978 LINE SMOOTH",
"388 1235 OFFCURVE",
"528 1306 OFFCURVE",
"782 1306 CURVE SMOOTH",
"1038 1306 OFFCURVE",
"1159 1235 OFFCURVE",
"1159 978 CURVE SMOOTH",
"1159 455 LINE SMOOTH",
"1159 199 OFFCURVE",
"1040 140 OFFCURVE"
);
}
);
width = 1542;
},
{
layerId = "C6C96970-2BBD-4A47-8C90-C83F37B7F23D";
name = Bold;
paths = (
{
closed = 1;
nodes = (
"1010 -534 LINE",
"1199 -426 LINE",
"954.024 -19 LINE",
"1345.37 24.5302 OFFCURVE",
"1446 255.752 OFFCURVE",
"1446 517 CURVE SMOOTH",
"1446 948 LINE SMOOTH",
"1446 1247 OFFCURVE",
"1324 1501 OFFCURVE",
"814 1501 CURVE SMOOTH",
"281 1501 OFFCURVE",
"160 1262 OFFCURVE",
"160 963 CURVE SMOOTH",
"160 501 LINE SMOOTH",
"160 233.619 OFFCURVE",
"263.134 14.0318 OFFCURVE",
"688.221 -21 CURVE"
);
},
{
closed = 1;
nodes = (
"814 207 CURVE SMOOTH",
"592 207 OFFCURVE",
"458 265 OFFCURVE",
"458 468 CURVE SMOOTH",
"458 1003 LINE SMOOTH",
"458 1205 OFFCURVE",
"594 1268 OFFCURVE",
"814 1268 CURVE SMOOTH",
"1036 1268 OFFCURVE",
"1148 1201 OFFCURVE",
"1148 1003 CURVE SMOOTH",
"1148 468 LINE SMOOTH",
"1148 266 OFFCURVE",
"1038 207 OFFCURVE"
);
}
);
width = 1606;
}
);
unicode = 0051;
},
{
glyphname = R;
lastChange = "2014-01-28 19:50:35 -0800";
layers = (
{
anchors = (
{
name = bot;
position = "{732, 0}";
},
{
name = top;
position = "{716, 1446}";
}
);
layerId = "F85E8FEC-B3CD-4A54-BF30-AB1986ECE904";
name = Regular;
paths = (
{
closed = 1;
nodes = (
"218 0 LINE",
"420 0 LINE",
"420 599 LINE",
"420 599 OFFCURVE",
"865 600 OFFCURVE",
"876 600 CURVE",
"1163 0 LINE",
"1370 0 LINE",
"1063 636 LINE",
"1184 687 OFFCURVE",
"1267 784 OFFCURVE",
"1267 1018 CURVE SMOOTH",
"1267 1341 OFFCURVE",
"1106 1446 OFFCURVE",
"863 1446 CURVE SMOOTH",
"218 1446 LINE"
);
},
{
closed = 1;
nodes = (
"420 752 LINE",
"420 1293 LINE",
"869 1293 LINE SMOOTH",
"1050 1293 OFFCURVE",
"1065 1139 OFFCURVE",
"1065 1000 CURVE SMOOTH",
"1065 861 OFFCURVE",
"1021 752 OFFCURVE",
"846 752 CURVE SMOOTH"
);
}
);
width = 1464;
},
{
anchors = (
{
name = bot;
position = "{781, 0}";
},
{
name = top;
position = "{696, 1476}";
}
);
layerId = "C6C96970-2BBD-4A47-8C90-C83F37B7F23D";
name = Bold;
paths = (
{
closed = 1;
nodes = (
"190 0 LINE",
"487 0 LINE",
"487 583 LINE",
"821 583 LINE",
"1080 0 LINE",
"1388 0 LINE",
"1103 626 LINE",
"1283 699 OFFCURVE",
"1320 853 OFFCURVE",
"1320 1035 CURVE SMOOTH",
"1320 1301 OFFCURVE",
"1219 1476 OFFCURVE",
"827 1476 CURVE SMOOTH",
"190 1476 LINE"
);
},
{
closed = 1;
nodes = (
"487 795 LINE",
"487 1265 LINE",
"864 1265 LINE SMOOTH",
"1011 1265 OFFCURVE",
"1036 1142 OFFCURVE",
"1036 1022 CURVE SMOOTH",
"1036 896 OFFCURVE",
"1004 795 OFFCURVE",
"852 795 CURVE SMOOTH"
);
}
);
width = 1484;
}
);
unicode = 0052;
},
{
glyphname = S;
lastChange = "2014-01-28 19:50:35 -0800";
layers = (
{
anchors = (
{
name = bot;
position = "{662, 0}";
},
{
name = top;
position = "{676, 1446}";
}
);
layerId = "F85E8FEC-B3CD-4A54-BF30-AB1986ECE904";
name = Regular;
paths = (
{
closed = 1;
nodes = (
"691 -22 CURVE SMOOTH",
"1027.25 -22 OFFCURVE",
"1164.39 138.537 OFFCURVE",
"1164.39 405.635 CURVE SMOOTH",
"1164.39 625.081 OFFCURVE",
"1075.51 717.532 OFFCURVE",
"879 784 CURVE SMOOTH",
"515 907 LINE SMOOTH",
"370.846 955.387 OFFCURVE",
"360.367 1017.73 OFFCURVE",
"368 1137 CURVE SMOOTH",
"376 1260 OFFCURVE",
"492 1306 OFFCURVE",
"691 1306 CURVE SMOOTH",
"879 1306 OFFCURVE",
"1005 1257 OFFCURVE",
"1092 1210 CURVE",
"1141 1367 LINE",
"1048 1425 OFFCURVE",
"903 1468 OFFCURVE",
"656 1468 CURVE SMOOTH",
"378.94 1468 OFFCURVE",
"171.458 1366.33 OFFCURVE",
"171.458 1089.32 CURVE SMOOTH",
"171.458 891.506 OFFCURVE",
"253.401 801.896 OFFCURVE",
"453 736 CURVE SMOOTH",
"802 620 LINE",
"948.604 572.904 OFFCURVE",
"978.077 518.308 OFFCURVE",
"978.077 437.363 CURVE SMOOTH",
"978.077 228.745 OFFCURVE",
"922.263 140 OFFCURVE",
"687 140 CURVE SMOOTH",
"510 140 OFFCURVE",
"325 202 OFFCURVE",
"215 267 CURVE",
"144 113 LINE",
"296 25 OFFCURVE",
"476 -22 OFFCURVE"
);
}
);
width = 1304;
},
{
anchors = (
{
name = bot;
position = "{702, 0}";
},
{
name = top;
position = "{670, 1476}";
}
);
layerId = "C6C96970-2BBD-4A47-8C90-C83F37B7F23D";
name = Bold;
paths = (
{
closed = 1;
nodes = (
"688 -26 CURVE SMOOTH",
"1025 -26 OFFCURVE",
"1169 172 OFFCURVE",
"1169 422 CURVE SMOOTH",
"1169 654 OFFCURVE",
"1069 777 OFFCURVE",
"870 837 CURVE SMOOTH",
"619 912 LINE SMOOTH",
"462 959 OFFCURVE",
"423 1008 OFFCURVE",
"428 1121 CURVE SMOOTH",
"433 1227 OFFCURVE",
"523 1268 OFFCURVE",
"675 1268 CURVE SMOOTH",
"819 1268 OFFCURVE",
"949 1229 OFFCURVE",
"1059 1177 CURVE",
"1143 1386 LINE",
"1007 1465 OFFCURVE",
"844 1501 OFFCURVE",
"649 1501 CURVE SMOOTH",
"358 1501 OFFCURVE",
"136 1369 OFFCURVE",
"136 1094 CURVE SMOOTH",
"136 905 OFFCURVE",
"201 752 OFFCURVE",
"442 681 CURVE SMOOTH",
"694 607 LINE SMOOTH",
"887 550 OFFCURVE",
"901 482 OFFCURVE",
"897 390 CURVE SMOOTH",
"892 281 OFFCURVE",
"851 207 OFFCURVE",
"681 207 CURVE SMOOTH",
"498 207 OFFCURVE",
"335 265 OFFCURVE",
"222 325 CURVE",
"120 108 LINE",
"268 25 OFFCURVE",
"487 -26 OFFCURVE"
);
}
);
width = 1281;
}
);
unicode = 0053;
},
{
glyphname = T;
lastChange = "2014-01-28 21:10:14 -0800";
layers = (
{
anchors = (
{
name = bot;
position = "{602, 0}";
},
{
name = center;
position = "{602, 0}";
},
{
name = mid;
position = "{603, 753}";
},
{
name = top;
position = "{614, 1446}";
}
);
layerId = "F85E8FEC-B3CD-4A54-BF30-AB1986ECE904";
name = Regular;
paths = (
{
closed = 1;
nodes = (
"501 0 LINE",
"702 0 LINE",
"702 1281 LINE",
"1120 1281 LINE",
"1120 1446 LINE",
"84 1446 LINE",
"84 1281 LINE",
"501 1281 LINE"
);
}
);
width = 1204;
},
{
anchors = (
{
name = bot;
position = "{575, 0}";
},
{
name = mid;
position = "{603, 762}";
},
{
name = top;
position = "{601, 1476}";
}
);
layerId = "C6C96970-2BBD-4A47-8C90-C83F37B7F23D";
name = Bold;
paths = (
{
closed = 1;
nodes = (
"449 0 LINE",
"745 0 LINE",
"745 1250 LINE",
"1156 1250 LINE",
"1156 1476 LINE",
"38 1476 LINE",
"38 1250 LINE",
"449 1250 LINE"
);
}
);
width = 1194;
}
);
unicode = 0054;
},
{
glyphname = U;
lastChange = "2014-01-28 19:50:35 -0800";
layers = (
{
anchors = (
{
name = ogonek;
position = "{841, 0}";
},
{
name = top;
position = "{779, 1446}";
}
);
layerId = "F85E8FEC-B3CD-4A54-BF30-AB1986ECE904";
name = Regular;
paths = (
{
closed = 1;
nodes = (
"779 -22 CURVE SMOOTH",
"1232 -22 OFFCURVE",
"1338 205 OFFCURVE",
"1338 473 CURVE SMOOTH",
"1338 1446 LINE",
"1136 1446 LINE",
"1136 452 LINE SMOOTH",
"1136 186 OFFCURVE",
"982 140 OFFCURVE",
"779 140 CURVE SMOOTH",
"578 140 OFFCURVE",
"402 186 OFFCURVE",
"402 452 CURVE SMOOTH",
"402 1446 LINE",
"200 1446 LINE",
"200 473 LINE SMOOTH",
"200 202 OFFCURVE",
"306 -22 OFFCURVE"
);
}
);
width = 1538;
},
{
anchors = (
{
name = ogonek;
position = "{873, 0}";
},
{
name = top;
position = "{809, 1476}";
}
);
layerId = "C6C96970-2BBD-4A47-8C90-C83F37B7F23D";
name = Bold;
paths = (
{
closed = 1;
nodes = (
"796 -26 CURVE SMOOTH",
"1294 -26 OFFCURVE",
"1398 199 OFFCURVE",
"1398 480 CURVE SMOOTH",
"1398 1477 LINE",
"1101 1477 LINE",
"1101 455 LINE SMOOTH",
"1101 263 OFFCURVE",
"1004 207 OFFCURVE",
"796 207 CURVE SMOOTH",
"591 207 OFFCURVE",
"473 260 OFFCURVE",
"473 455 CURVE SMOOTH",
"473 1477 LINE",
"176 1477 LINE",
"176 468 LINE SMOOTH",
"176 186 OFFCURVE",
"291 -26 OFFCURVE"
);
}
);
width = 1574;
}
);
unicode = 0055;
},
{
glyphname = V;
lastChange = "2014-01-28 19:50:35 -0800";
layers = (
{
layerId = "F85E8FEC-B3CD-4A54-BF30-AB1986ECE904";
name = Regular;
paths = (
{
closed = 1;
nodes = (
"602 0 LINE",
"779 0 LINE",
"1300 1446 LINE",
"1091 1446 LINE",
"692 294 LINE",
"293 1446 LINE",
"86 1446 LINE"
);
}
);
width = 1386;
},
{
layerId = "C6C96970-2BBD-4A47-8C90-C83F37B7F23D";
name = Bold;
paths = (
{
closed = 1;
nodes = (
"564 0 LINE",
"924 0 LINE",
"1444 1476 LINE",
"1126 1476 LINE",
"748 283 LINE",
"358 1476 LINE",
"40 1476 LINE"
);
}
);
width = 1484;
}
);
unicode = 0056;
},
{
glyphname = W;
lastChange = "2014-01-28 19:50:35 -0800";
layers = (
{
anchors = (
{
name = top;
position = "{1037, 1446}";
}
);
layerId = "F85E8FEC-B3CD-4A54-BF30-AB1986ECE904";
name = Regular;
paths = (
{
closed = 1;
nodes = (
"522 0 LINE",
"674 0 LINE",
"1037 1232 LINE",
"1390 0 LINE",
"1542 0 LINE",
"1936 1446 LINE",
"1753 1446 LINE",
"1462 346 LINE",
"1133 1446 LINE",
"918 1446 LINE",
"603 346 LINE",
"296 1446 LINE",
"112 1446 LINE"
);
}
);
width = 2048;
},
{
anchors = (
{
name = top;
position = "{966, 1476}";
}
);
layerId = "C6C96970-2BBD-4A47-8C90-C83F37B7F23D";
name = Bold;
paths = (
{
closed = 1;
nodes = (
"423 0 LINE",
"689 0 LINE",
"973 1053 LINE",
"1283 0 LINE",
"1532 0 LINE",
"1914 1476 LINE",
"1629 1476 LINE",
"1389 466 LINE",
"1093 1476 LINE",
"842 1476 LINE",
"583 455 LINE",
"328 1476 LINE",
"40 1476 LINE"
);
}
);
width = 1954;
}
);
unicode = 0057;
},
{
glyphname = X;
lastChange = "2014-01-28 19:50:35 -0800";
layers = (
{
layerId = "F85E8FEC-B3CD-4A54-BF30-AB1986ECE904";
name = Regular;
paths = (
{
closed = 1;
nodes = (
"94 0 LINE",
"306 0 LINE",
"667 568 LINE",
"1024 0 LINE",
"1242 0 LINE",
"773 734 LINE",
"1227 1446 LINE",
"1010 1446 LINE",
"669 898 LINE",
"319 1446 LINE",
"116 1446 LINE",
"565 731 LINE"
);
}
);
width = 1336;
},
{
layerId = "C6C96970-2BBD-4A47-8C90-C83F37B7F23D";
name = Bold;
paths = (
{
closed = 1;
nodes = (
"38 0 LINE",
"348 0 LINE",
"669 501 LINE",
"987 0 LINE",
"1314 0 LINE",
"830 749 LINE",
"1297 1476 LINE",
"969 1476 LINE",
"669 997 LINE",
"359 1476 LINE",
"50 1476 LINE",
"513 748 LINE"
);
}
);
width = 1352;
}
);
unicode = 0058;
},
{
glyphname = Y;
lastChange = "2014-01-28 19:50:35 -0800";
layers = (
{
anchors = (
{
name = top;
position = "{679, 1446}";
}
);
layerId = "F85E8FEC-B3CD-4A54-BF30-AB1986ECE904";
name = Regular;
paths = (
{
closed = 1;
nodes = (
"560 0 LINE",
"761 0 LINE",
"761 568 LINE",
"1270 1446 LINE",
"1063 1446 LINE",
"661 744 LINE",
"261 1446 LINE",
"48 1446 LINE",
"560 568 LINE"
);
}
);
width = 1318;
},
{
anchors = (
{
name = top;
position = "{676, 1476}";
}
);
layerId = "C6C96970-2BBD-4A47-8C90-C83F37B7F23D";
name = Bold;
paths = (
{
closed = 1;
nodes = (
"509 0 LINE",
"805 0 LINE",
"805 567 LINE",
"1304 1476 LINE",
"1004 1476 LINE",
"659 859 LINE",
"313 1476 LINE",
"0 1476 LINE",
"509 567 LINE"
);
}
);
width = 1304;
}
);
unicode = 0059;
},
{
glyphname = Z;
lastChange = "2014-01-28 19:50:35 -0800";
layers = (
{
anchors = (
{
name = top;
position = "{663, 1446}";
}
);
layerId = "F85E8FEC-B3CD-4A54-BF30-AB1986ECE904";
name = Regular;
paths = (
{
closed = 1;
nodes = (
"180 0 LINE",
"1096 0 LINE",
"1096 165 LINE",
"402 165 LINE",
"1083 1295 LINE",
"1083 1446 LINE",
"211 1446 LINE",
"211 1281 LINE",
"862 1281 LINE",
"180 150 LINE"
);
}
);
width = 1242;
},
{
anchors = (
{
name = top;
position = "{656, 1476}";
}
);
layerId = "C6C96970-2BBD-4A47-8C90-C83F37B7F23D";
name = Bold;
paths = (
{
closed = 1;
nodes = (
"126 0 LINE",
"1102 0 LINE",
"1102 210 LINE",
"472 210 LINE",
"1090 1297 LINE",
"1090 1476 LINE",
"154 1476 LINE",
"154 1258 LINE",
"746 1258 LINE",
"126 177 LINE"
);
}
);
width = 1184;
}
);
unicode = 005A;
},
{
glyphname = a;
lastChange = "2014-01-29 03:48:59 -0800";
layers = (
{
anchors = (
{
name = ogonek;
position = "{1055, 10}";
},
{
name = top;
position = "{584, 1060}";
}
);
layerId = "F85E8FEC-B3CD-4A54-BF30-AB1986ECE904";
name = Regular;
paths = (
{
closed = 1;
nodes = (
"465 -22 CURVE SMOOTH",
"660 -22 OFFCURVE",
"749 78 OFFCURVE",
"796 150 CURVE",
"828 50 OFFCURVE",
"879 -8 OFFCURVE",
"1020 -8 CURVE SMOOTH",
"1058 -8 LINE",
"1080 136 LINE",
"989 136 OFFCURVE",
"969 156 OFFCURVE",
"969 268 CURVE SMOOTH",
"969 720 LINE SMOOTH",
"969 938 OFFCURVE",
"872 1080 OFFCURVE",
"592 1080 CURVE SMOOTH",
"314 1080 OFFCURVE",
"174 988 OFFCURVE",
"174 779 CURVE SMOOTH",
"174 731 LINE",
"355 731 LINE",
"355 778 LINE SMOOTH",
"355 863 OFFCURVE",
"373 936 OFFCURVE",
"586 936 CURVE SMOOTH",
"754.714 936 OFFCURVE",
"781 867 OFFCURVE",
"781.029 781.025 CURVE SMOOTH",
"781 665 OFFCURVE",
"715 641 OFFCURVE",
"539 590 CURVE SMOOTH",
"201 492 OFFCURVE",
"132 420 OFFCURVE",
"132 260 CURVE SMOOTH",
"132 97 OFFCURVE",
"210 -22 OFFCURVE"
);
},
{
closed = 1;
nodes = (
"488 118 CURVE SMOOTH",
"352 118 OFFCURVE",
"311 167 OFFCURVE",
"311 274 CURVE SMOOTH",
"311 369 OFFCURVE",
"385 407 OFFCURVE",
"549 454 CURVE SMOOTH",
"683 492 OFFCURVE",
"752 547 OFFCURVE",
"781 576 CURVE",
"781 297 LINE",
"751 199 OFFCURVE",
"601 118 OFFCURVE"
);
}
);
width = 1172;
},
{
anchors = (
{
name = ogonek;
position = "{1007, 0}";
},
{
name = top;
position = "{594, 1074}";
}
);
layerId = "C6C96970-2BBD-4A47-8C90-C83F37B7F23D";
name = Bold;
paths = (
{
closed = 1;
nodes = (
"423.371 -23 CURVE SMOOTH",
"580.371 -23 OFFCURVE",
"699 43 OFFCURVE",
"757 119 CURVE",
"796 32 OFFCURVE",
"873 -8 OFFCURVE",
"1022 -8 CURVE SMOOTH",
"1079.37 -8 LINE",
"1090.37 190 LINE",
"1023.37 190 OFFCURVE",
"1003.37 210 OFFCURVE",
"1003.37 308 CURVE SMOOTH",
"1003.37 733 LINE SMOOTH",
"1003.37 955 OFFCURVE",
"893.371 1097 OFFCURVE",
"572.371 1097 CURVE SMOOTH",
"278.371 1097 OFFCURVE",
"144.371 963 OFFCURVE",
"144.371 755 CURVE SMOOTH",
"144.371 723 LINE",
"399.371 723 LINE",
"399.371 765 LINE SMOOTH",
"399.371 848 OFFCURVE",
"430.371 907 OFFCURVE",
"566.371 907 CURVE SMOOTH",
"688.371 907 OFFCURVE",
"735 863 OFFCURVE",
"735 777 CURVE",
"735 702 OFFCURVE",
"658 666 OFFCURVE",
"491 613 CURVE SMOOTH",
"185 516 OFFCURVE",
"107.371 420 OFFCURVE",
"112.371 268 CURVE SMOOTH",
"117.371 90 OFFCURVE",
"239.371 -23 OFFCURVE"
);
},
{
closed = 1;
nodes = (
"514 158 CURVE SMOOTH",
"426 159 OFFCURVE",
"379 198 OFFCURVE",
"377 285 CURVE SMOOTH",
"376 346 OFFCURVE",
"403 403 OFFCURVE",
"522 447 CURVE SMOOTH",
"612 480 OFFCURVE",
"699 518 OFFCURVE",
"735 547 CURVE",
"735 272 LINE",
"685 194 OFFCURVE",
"580 157 OFFCURVE"
);
}
);
width = 1174.37;
}
);
unicode = 0061;
userData = {
com.typemytype.robofont.layerData = {
};
};
},
{
glyphname = ae;
lastChange = "2014-01-29 04:55:29 -0800";
layers = (
{
anchors = (
{
name = top;
position = "{896, 1060}";
}
);
background = {
paths = (
{
closed = 1;
nodes = (
"471 -22 CURVE SMOOTH",
"666 -22 OFFCURVE",
"749 78 OFFCURVE",
"796 150 CURVE",
"828 50 OFFCURVE",
"879 -8 OFFCURVE",
"1020 -8 CURVE SMOOTH",
"1058 -8 LINE",
"1080 136 LINE",
"989 136 OFFCURVE",
"969 156 OFFCURVE",
"969 268 CURVE SMOOTH",
"969 720 LINE SMOOTH",
"969 938 OFFCURVE",
"872 1080 OFFCURVE",
"592 1080 CURVE SMOOTH",
"314 1080 OFFCURVE",
"174 988 OFFCURVE",
"174 779 CURVE SMOOTH",
"174 731 LINE",
"355 731 LINE",
"355 778 LINE SMOOTH",
"355 863 OFFCURVE",
"373 936 OFFCURVE",
"586 936 CURVE SMOOTH",
"754.714 936 OFFCURVE",
"781.029 866.724 OFFCURVE",
"781.029 781.025 CURVE SMOOTH",
"781.029 669.459 OFFCURVE",
"714.591 647.749 OFFCURVE",
"539 597 CURVE SMOOTH",
"201 499 OFFCURVE",
"132 423 OFFCURVE",
"132 283 CURVE SMOOTH",
"132 120 OFFCURVE",
"246 -22 OFFCURVE"
);
},
{
closed = 1;
nodes = (
"500 120 CURVE SMOOTH",
"394.175 120 OFFCURVE",
"313.663 162.911 OFFCURVE",
"313.663 277.21 CURVE SMOOTH",
"313.663 371.516 OFFCURVE",
"388.279 416.832 OFFCURVE",
"550 464 CURVE SMOOTH",
"684 503 OFFCURVE",
"752 554 OFFCURVE",
"781 583 CURVE",
"781 277 LINE",
"751 179 OFFCURVE",
"613 120 OFFCURVE"
);
}
);
};
layerId = "F85E8FEC-B3CD-4A54-BF30-AB1986ECE904";
name = Regular;
paths = (
{
closed = 1;
nodes = (
"131 120 OFFCURVE",
"244 -22 OFFCURVE",
"469 -22 CURVE SMOOTH",
"706 -22 OFFCURVE",
"807 68 OFFCURVE",
"858 178 CURVE",
"900 75 OFFCURVE",
"996 -22 OFFCURVE",
"1189 -22 CURVE SMOOTH",
"1479 -22 OFFCURVE",
"1582 60 OFFCURVE",
"1603 318 CURVE",
"1433 318 LINE",
"1420 135 OFFCURVE",
"1355 121 OFFCURVE",
"1189 121 CURVE SMOOTH",
"1042 121 OFFCURVE",
"969 186 OFFCURVE",
"969 328 CURVE SMOOTH",
"969 511 LINE",
"1609 511 LINE",
"1609 758 LINE SMOOTH",
"1609 959 OFFCURVE",
"1473 1080 OFFCURVE",
"1197 1080 CURVE SMOOTH",
"1052 1080 OFFCURVE",
"949 1037 OFFCURVE",
"887 939 CURVE",
"850 1035 OFFCURVE",
"728 1080 OFFCURVE",
"590 1080 CURVE SMOOTH",
"312 1080 OFFCURVE",
"172 989 OFFCURVE",
"172 759 CURVE SMOOTH",
"172 731 LINE",
"353 731 LINE",
"353 758 LINE SMOOTH",
"353 857 OFFCURVE",
"366 936 OFFCURVE",
"579 936 CURVE SMOOTH",
"771 936 OFFCURVE",
"782 850 OFFCURVE",
"782 773 CURVE SMOOTH",
"782 667 OFFCURVE",
"754 626 OFFCURVE",
"529 575 CURVE SMOOTH",
"206 502 OFFCURVE",
"131 423 OFFCURVE",
"131 283 CURVE SMOOTH"
);
},
{
closed = 1;
nodes = (
"1437 633 LINE",
"969 633 LINE",
"969 760 LINE SMOOTH",
"969 891 OFFCURVE",
"1046 938 OFFCURVE",
"1196 938 CURVE SMOOTH",
"1341 938 OFFCURVE",
"1437 906 OFFCURVE",
"1437 778 CURVE SMOOTH"
);
},
{
closed = 1;
nodes = (
"781 279 LINE",
"751 181 OFFCURVE",
"615 120 OFFCURVE",
"502 120 CURVE SMOOTH",
"392 120 OFFCURVE",
"312 165 OFFCURVE",
"312 284 CURVE SMOOTH",
"312 378 OFFCURVE",
"410 407 OFFCURVE",
"562 449 CURVE SMOOTH",
"718 492 OFFCURVE",
"781 544 OFFCURVE",
"781 564 CURVE"
);
}
);
width = 1741;
},
{
anchors = (
{
name = top;
position = "{890, 1074}";
}
);
layerId = "C6C96970-2BBD-4A47-8C90-C83F37B7F23D";
name = Bold;
paths = (
{
closed = 1;
nodes = (
"621 -23 OFFCURVE",
"734 31 OFFCURVE",
"847 130 CURVE",
"901 29 OFFCURVE",
"1017 -23 OFFCURVE",
"1186 -23 CURVE SMOOTH",
"1476 -23 OFFCURVE",
"1616 41 OFFCURVE",
"1622 353 CURVE",
"1370 353 LINE",
"1366 184 OFFCURVE",
"1313 166 OFFCURVE",
"1190 166 CURVE SMOOTH",
"1077 166 OFFCURVE",
"1012 203 OFFCURVE",
"1012 321 CURVE SMOOTH",
"1012 514 LINE",
"1624 514 LINE",
"1624 745 LINE SMOOTH",
"1624 961 OFFCURVE",
"1513 1097 OFFCURVE",
"1187 1097 CURVE SMOOTH",
"1056 1097 OFFCURVE",
"950 1055 OFFCURVE",
"878 967 CURVE",
"831 1056 OFFCURVE",
"707 1097 OFFCURVE",
"573 1097 CURVE SMOOTH",
"278 1097 OFFCURVE",
"144 953 OFFCURVE",
"144 745 CURVE SMOOTH",
"144 719 LINE",
"400 719 LINE",
"400 755 LINE SMOOTH",
"400 838 OFFCURVE",
"430 908 OFFCURVE",
"567 908 CURVE SMOOTH",
"695 908 OFFCURVE",
"739 852 OFFCURVE",
"739 770 CURVE SMOOTH",
"739 631 OFFCURVE",
"657 640 OFFCURVE",
"448 586 CURVE SMOOTH",
"141 508 OFFCURVE",
"107 420 OFFCURVE",
"112 268 CURVE SMOOTH",
"117 90 OFFCURVE",
"236 -23 OFFCURVE",
"420 -23 CURVE SMOOTH"
);
},
{
closed = 1;
nodes = (
"1371 655 LINE",
"1012 655 LINE",
"1012 760 LINE SMOOTH",
"1012 874 OFFCURVE",
"1084 907 OFFCURVE",
"1193 907 CURVE SMOOTH",
"1302 907 OFFCURVE",
"1371 884 OFFCURVE",
"1371 765 CURVE SMOOTH"
);
},
{
closed = 1;
nodes = (
"425 157 OFFCURVE",
"375 206 OFFCURVE",
"373 290 CURVE SMOOTH",
"372 351 OFFCURVE",
"396 418 OFFCURVE",
"527 447 CURVE SMOOTH",
"626 470 OFFCURVE",
"714 499 OFFCURVE",
"739 520 CURVE",
"739 259 LINE",
"689 183 OFFCURVE",
"581 157 OFFCURVE",
"515 157 CURVE SMOOTH"
);
}
);
width = 1734;
}
);
unicode = 00E6;
},
{
glyphname = b;
lastChange = "2014-01-28 19:50:35 -0800";
layers = (
{
anchors = (
{
name = top;
position = "{664, 1060}";
}
);
layerId = "F85E8FEC-B3CD-4A54-BF30-AB1986ECE904";
name = Regular;
paths = (
{
closed = 1;
nodes = (
"626 -22 CURVE SMOOTH",
"902 -22 OFFCURVE",
"1056 139 OFFCURVE",
"1056 352 CURVE SMOOTH",
"1056 736 LINE SMOOTH",
"1056 940 OFFCURVE",
"921 1080 OFFCURVE",
"650 1080 CURVE SMOOTH",
"551 1080 OFFCURVE",
"442 1049 OFFCURVE",
"374 1010 CURVE",
"374 1506 LINE",
"186 1506 LINE",
"186 0 LINE",
"325 0 LINE",
"349 71 LINE",
"405 36 OFFCURVE",
"500 -22 OFFCURVE"
);
},
{
closed = 1;
nodes = (
"598 126 CURVE SMOOTH",
"509 126 OFFCURVE",
"429 157 OFFCURVE",
"374 188 CURVE",
"374 870 LINE",
"444 902 OFFCURVE",
"553 936 OFFCURVE",
"641 936 CURVE SMOOTH",
"779 936 OFFCURVE",
"868 877 OFFCURVE",
"868 750 CURVE SMOOTH",
"868 332 LINE SMOOTH",
"868 202 OFFCURVE",
"746 126 OFFCURVE"
);
}
);
width = 1204;
},
{
anchors = (
{
name = top;
position = "{692, 1074}";
}
);
layerId = "C6C96970-2BBD-4A47-8C90-C83F37B7F23D";
name = Bold;
paths = (
{
closed = 1;
nodes = (
"655 -23 CURVE SMOOTH",
"916 -23 OFFCURVE",
"1082 120 OFFCURVE",
"1082 329 CURVE SMOOTH",
"1082 753 LINE SMOOTH",
"1082 934 OFFCURVE",
"974 1097 OFFCURVE",
"672 1097 CURVE SMOOTH",
"582 1097 OFFCURVE",
"497 1074 OFFCURVE",
"432 1040 CURVE",
"432 1516 LINE",
"160 1516 LINE",
"160 0 LINE",
"347 0 LINE",
"374 65 LINE",
"443 19 OFFCURVE",
"538 -23 OFFCURVE"
);
},
{
closed = 1;
nodes = (
"610 168 CURVE SMOOTH",
"537 168 OFFCURVE",
"473 185 OFFCURVE",
"432 216 CURVE",
"432 857 LINE",
"453 867 OFFCURVE",
"525 907 OFFCURVE",
"623 907 CURVE SMOOTH",
"744 907 OFFCURVE",
"810 865 OFFCURVE",
"810 758 CURVE SMOOTH",
"810 323 LINE SMOOTH",
"810 215 OFFCURVE",
"727 168 OFFCURVE"
);
}
);
width = 1206;
}
);
unicode = 0062;
},
{
glyphname = c;
lastChange = "2014-01-29 03:46:13 -0800";
layers = (
{
anchors = (
{
name = bot;
position = "{559, 0}";
},
{
name = top;
position = "{594, 1060}";
}
);
layerId = "F85E8FEC-B3CD-4A54-BF30-AB1986ECE904";
name = Regular;
paths = (
{
closed = 1;
nodes = (
"579 -22 CURVE SMOOTH",
"867 -22 OFFCURVE",
"969 66 OFFCURVE",
"990 310 CURVE",
"816 310 LINE",
"802 150 OFFCURVE",
"765 122 OFFCURVE",
"579 122 CURVE SMOOTH",
"427 122 OFFCURVE",
"336 176 OFFCURVE",
"336 328 CURVE SMOOTH",
"336 743 LINE SMOOTH",
"336 884 OFFCURVE",
"417 936 OFFCURVE",
"579 936 CURVE SMOOTH",
"755 936 OFFCURVE",
"812 901 OFFCURVE",
"813 707 CURVE",
"992 724 LINE",
"992 1009 OFFCURVE",
"828 1080 OFFCURVE",
"574 1080 CURVE SMOOTH",
"311 1080 OFFCURVE",
"148 948 OFFCURVE",
"148 748 CURVE SMOOTH",
"148 344 LINE SMOOTH",
"148 148 OFFCURVE",
"263 -22 OFFCURVE"
);
}
);
width = 1106;
},
{
anchors = (
{
name = bot;
position = "{575, 0}";
},
{
name = top;
position = "{596, 1074}";
}
);
layerId = "C6C96970-2BBD-4A47-8C90-C83F37B7F23D";
name = Bold;
paths = (
{
closed = 1;
nodes = (
"573 -23 CURVE SMOOTH",
"915 -23 OFFCURVE",
"1002 77 OFFCURVE",
"1008 380 CURVE",
"754 380 LINE",
"754 197 OFFCURVE",
"721 168 OFFCURVE",
"579 168 CURVE SMOOTH",
"455 168 OFFCURVE",
"396 207 OFFCURVE",
"396 322 CURVE SMOOTH",
"396 756 LINE SMOOTH",
"396 867 OFFCURVE",
"463 907 OFFCURVE",
"579 907 CURVE SMOOTH",
"719 907 OFFCURVE",
"752 874 OFFCURVE",
"753 679 CURVE",
"1009 699 LINE",
"1009 1007 OFFCURVE",
"858 1097 OFFCURVE",
"569 1097 CURVE SMOOTH",
"288 1097 OFFCURVE",
"124 972 OFFCURVE",
"124 757 CURVE SMOOTH",
"124 327 LINE SMOOTH",
"124 140 OFFCURVE",
"206 -23 OFFCURVE"
);
}
);
width = 1111;
}
);
unicode = 0063;
},
{
glyphname = d;
lastChange = "2014-01-29 04:32:38 -0800";
layers = (
{
anchors = (
{
name = caron.alt;
position = "{826, 1060}";
},
{
name = mid;
position = "{917, 1275}";
},
{
name = top;
position = "{584, 1060}";
}
);
layerId = "F85E8FEC-B3CD-4A54-BF30-AB1986ECE904";
name = Regular;
paths = (
{
closed = 1;
nodes = (
"568 -22 CURVE SMOOTH",
"677 -22 OFFCURVE",
"793 22 OFFCURVE",
"855 70 CURVE",
"886 0 LINE",
"1014 0 LINE",
"1014 1506 LINE",
"826 1506 LINE",
"826 1040 LINE",
"760 1064 OFFCURVE",
"658 1080 OFFCURVE",
"591 1080 CURVE SMOOTH",
"283 1080 OFFCURVE",
"148 948 OFFCURVE",
"148 735 CURVE SMOOTH",
"148 335 LINE SMOOTH",
"148 131 OFFCURVE",
"263 -22 OFFCURVE"
);
},
{
closed = 1;
nodes = (
"580 126 CURVE SMOOTH",
"442 126 OFFCURVE",
"336 189 OFFCURVE",
"336 321 CURVE SMOOTH",
"336 756 LINE SMOOTH",
"336 886 OFFCURVE",
"445 936 OFFCURVE",
"593 936 CURVE SMOOTH",
"681 936 OFFCURVE",
"770 919 OFFCURVE",
"826 892 CURVE",
"826 189 LINE",
"783 163 OFFCURVE",
"687 126 OFFCURVE"
);
}
);
width = 1200;
},
{
anchors = (
{
name = caron.alt;
position = "{943, 1074}";
},
{
name = mid;
position = "{910, 1313}";
},
{
name = top;
position = "{532, 1074}";
}
);
layerId = "C6C96970-2BBD-4A47-8C90-C83F37B7F23D";
name = Bold;
paths = (
{
closed = 1;
nodes = (
"551 -23 CURVE SMOOTH",
"661 -23 OFFCURVE",
"759 14 OFFCURVE",
"829 63 CURVE",
"858 0 LINE",
"1042 0 LINE",
"1042 1516 LINE",
"770 1516 LINE",
"770 1059 LINE",
"707 1082 OFFCURVE",
"631 1097 OFFCURVE",
"570 1097 CURVE SMOOTH",
"257 1097 OFFCURVE",
"124 951 OFFCURVE",
"124 753 CURVE SMOOTH",
"124 324 LINE SMOOTH",
"124 108 OFFCURVE",
"260 -23 OFFCURVE"
);
},
{
closed = 1;
nodes = (
"583 168 CURVE SMOOTH",
"463 168 OFFCURVE",
"396 211 OFFCURVE",
"396 320 CURVE SMOOTH",
"396 759 LINE SMOOTH",
"396 868 OFFCURVE",
"469 907 OFFCURVE",
"593 907 CURVE SMOOTH",
"669 907 OFFCURVE",
"734 887 OFFCURVE",
"770 870 CURVE",
"770 211 LINE",
"728 186 OFFCURVE",
"658 168 OFFCURVE"
);
}
);
width = 1198;
}
);
unicode = 0064;
},
{
glyphname = eth;
lastChange = "2014-01-29 04:58:58 -0800";
layers = (
{
layerId = "F85E8FEC-B3CD-4A54-BF30-AB1986ECE904";
name = Regular;
paths = (
{
closed = 1;
nodes = (
"150 314 LINE SMOOTH",
"150 118 OFFCURVE",
"271 -20 OFFCURVE",
"587 -20 CURVE SMOOTH",
"970 -20 OFFCURVE",
"1010 170 OFFCURVE",
"1010 365 CURVE SMOOTH",
"1010 736 LINE SMOOTH",
"1010 1058 OFFCURVE",
"924 1312 OFFCURVE",
"693 1427 CURVE",
"792 1565 LINE",
"697 1617 LINE",
"596 1470 LINE",
"436 1508 OFFCURVE",
"300 1488 OFFCURVE",
"238 1477 CURVE",
"210 1349 LINE",
"277 1355 OFFCURVE",
"388 1363 OFFCURVE",
"506 1341 CURVE",
"376 1152 LINE",
"471 1100 LINE",
"612 1304 LINE",
"734 1238 OFFCURVE",
"822 1112 OFFCURVE",
"822 911 CURVE",
"795 934 OFFCURVE",
"693 975 OFFCURVE",
"577 975 CURVE SMOOTH",
"314 975 OFFCURVE",
"150 846 OFFCURVE",
"150 646 CURVE SMOOTH"
);
},
{
closed = 1;
nodes = (
"825 359 LINE",
"828 229 OFFCURVE",
"820 121 OFFCURVE",
"587 121 CURVE SMOOTH",
"440 121 OFFCURVE",
"337 166 OFFCURVE",
"337 308 CURVE SMOOTH",
"337 652 LINE SMOOTH",
"337 783 OFFCURVE",
"441 833 OFFCURVE",
"587 833 CURVE SMOOTH",
"647 833 OFFCURVE",
"778 813 OFFCURVE",
"825 783 CURVE"
);
}
);
width = 1158;
},
{
layerId = "C6C96970-2BBD-4A47-8C90-C83F37B7F23D";
name = Bold;
paths = (
{
closed = 1;
nodes = (
"166 342 LINE SMOOTH",
"166 118 OFFCURVE",
"326 -23 OFFCURVE",
"677 -23 CURVE SMOOTH",
"1060 -23 OFFCURVE",
"1180 195 OFFCURVE",
"1180 460 CURVE SMOOTH",
"1180 536 LINE SMOOTH",
"1180 1137 OFFCURVE",
"933 1376 OFFCURVE",
"684 1448 CURVE",
"758 1598 LINE",
"638 1655 LINE",
"553 1485 LINE",
"438 1509 OFFCURVE",
"331 1507 OFFCURVE",
"257 1502 CURVE",
"233 1335 LINE",
"302 1334 OFFCURVE",
"386 1333 OFFCURVE",
"471 1318 CURVE",
"394 1167 LINE",
"513 1110 LINE",
"602 1284 LINE",
"720 1250 OFFCURVE",
"841 1138 OFFCURVE",
"864 921 CURVE",
"837 944 OFFCURVE",
"687 975 OFFCURVE",
"621 975 CURVE SMOOTH",
"358 975 OFFCURVE",
"166 846 OFFCURVE",
"166 618 CURVE SMOOTH"
);
},
{
closed = 1;
nodes = (
"910 258 OFFCURVE",
"890 178 OFFCURVE",
"677 178 CURVE SMOOTH",
"510 178 OFFCURVE",
"444 221 OFFCURVE",
"444 333 CURVE SMOOTH",
"444 612 LINE SMOOTH",
"444 743 OFFCURVE",
"531 793 OFFCURVE",
"677 793 CURVE SMOOTH",
"737 793 OFFCURVE",
"844 766 OFFCURVE",
"887 736 CURVE",
"902 654 OFFCURVE",
"910 497 OFFCURVE",
"910 428 CURVE SMOOTH"
);
}
);
width = 1312;
}
);
unicode = 00F0;
},
{
glyphname = e;
lastChange = "2014-01-29 03:31:32 -0800";
layers = (
{
anchors = (
{
name = bot;
position = "{589, 0}";
},
{
name = ogonek;
position = "{697, 0}";
},
{
name = top;
position = "{584, 1060}";
}
);
layerId = "F85E8FEC-B3CD-4A54-BF30-AB1986ECE904";
name = Regular;
paths = (
{
closed = 1;
nodes = (
"589 -22 CURVE SMOOTH",
"883 -22 OFFCURVE",
"978 32 OFFCURVE",
"1004 282 CURVE",
"838 282 LINE",
"822 122 OFFCURVE",
"766 122 OFFCURVE",
"589 122 CURVE SMOOTH",
"389 122 OFFCURVE",
"336 185 OFFCURVE",
"336 357 CURVE SMOOTH",
"336 506 LINE",
"1006 506 LINE",
"1006 758 LINE SMOOTH",
"1006 959 OFFCURVE",
"873 1080 OFFCURVE",
"582 1080 CURVE SMOOTH",
"278 1080 OFFCURVE",
"148 943 OFFCURVE",
"148 743 CURVE SMOOTH",
"148 374 LINE SMOOTH",
"148 110 OFFCURVE",
"273 -22 OFFCURVE"
);
},
{
closed = 1;
nodes = (
"336 633 LINE",
"336 760 LINE SMOOTH",
"336 891 OFFCURVE",
"432 936 OFFCURVE",
"582 936 CURVE SMOOTH",
"727 936 OFFCURVE",
"824 906 OFFCURVE",
"824 778 CURVE SMOOTH",
"824 633 LINE"
);
}
);
width = 1138;
},
{
anchors = (
{
name = bot;
position = "{586, 0}";
},
{
name = ogonek;
position = "{688, 0}";
},
{
name = top;
position = "{602, 1074}";
}
);
layerId = "C6C96970-2BBD-4A47-8C90-C83F37B7F23D";
name = Bold;
paths = (
{
closed = 1;
nodes = (
"586 -23 CURVE SMOOTH",
"866 -23 OFFCURVE",
"1030 32 OFFCURVE",
"1038 330 CURVE",
"786 330 LINE",
"781 168 OFFCURVE",
"716 166 OFFCURVE",
"591 166 CURVE SMOOTH",
"461 166 OFFCURVE",
"396 183 OFFCURVE",
"396 310 CURVE SMOOTH",
"396 485 LINE",
"1039 485 LINE",
"1039 745 LINE SMOOTH",
"1039 961 OFFCURVE",
"913 1097 OFFCURVE",
"582 1097 CURVE SMOOTH",
"303 1097 OFFCURVE",
"124 974 OFFCURVE",
"124 755 CURVE SMOOTH",
"124 336 LINE SMOOTH",
"124 60 OFFCURVE",
"323 -23 OFFCURVE"
);
},
{
closed = 1;
nodes = (
"396 651 LINE",
"396 772 LINE SMOOTH",
"396 886 OFFCURVE",
"480 907 OFFCURVE",
"589 907 CURVE SMOOTH",
"698 907 OFFCURVE",
"782 896 OFFCURVE",
"782 777 CURVE SMOOTH",
"782 651 LINE"
);
}
);
width = 1149;
}
);
unicode = 0065;
},
{
glyphname = f;
lastChange = "2014-01-29 03:31:49 -0800";
layers = (
{
anchors = (
{
name = top;
position = "{388, 1446}";
}
);
layerId = "F85E8FEC-B3CD-4A54-BF30-AB1986ECE904";
name = Regular;
paths = (
{
closed = 1;
nodes = (
"279 0 LINE",
"467 0 LINE",
"467 918 LINE",
"724 918 LINE",
"724 1060 LINE",
"467 1060 LINE",
"467 1239 LINE SMOOTH",
"467 1315 OFFCURVE",
"505 1372 OFFCURVE",
"620 1372 CURVE SMOOTH",
"736 1372 LINE",
"724 1505 LINE",
"605 1505 LINE SMOOTH",
"387 1505 OFFCURVE",
"279 1419 OFFCURVE",
"279 1221 CURVE SMOOTH",
"279 1060 LINE",
"102 1060 LINE",
"102 918 LINE",
"279 918 LINE"
);
}
);
width = 782;
},
{
anchors = (
{
name = top;
position = "{422, 1476}";
}
);
layerId = "C6C96970-2BBD-4A47-8C90-C83F37B7F23D";
name = Bold;
paths = (
{
closed = 1;
nodes = (
"229 0 LINE",
"501 0 LINE",
"501 901 LINE",
"715 901 LINE",
"715 1074 LINE",
"501 1074 LINE",
"501 1186 LINE SMOOTH",
"501 1258 OFFCURVE",
"522 1327 OFFCURVE",
"640 1327 CURVE SMOOTH",
"724 1327 LINE",
"717 1516 LINE",
"591 1516 LINE SMOOTH",
"336 1516 OFFCURVE",
"229 1380 OFFCURVE",
"229 1125 CURVE SMOOTH",
"229 1074 LINE",
"86 1074 LINE",
"86 901 LINE",
"229 901 LINE"
);
}
);
width = 770;
}
);
unicode = 0066;
},
{
glyphname = g;
lastChange = "2014-01-29 03:32:10 -0800";
layers = (
{
anchors = (
{
name = top;
position = "{565, 1060}";
}
);
layerId = "F85E8FEC-B3CD-4A54-BF30-AB1986ECE904";
name = Regular;
paths = (
{
closed = 1;
nodes = (
"603 -408 CURVE SMOOTH",
"883 -408 OFFCURVE",
"1010 -223 OFFCURVE",
"1010 25 CURVE SMOOTH",
"1010 1060 LINE",
"822 1060 LINE",
"822 975 LINE",
"792 1025 OFFCURVE",
"658 1080 OFFCURVE",
"550 1080 CURVE SMOOTH",
"274 1080 OFFCURVE",
"148 941 OFFCURVE",
"148 728 CURVE SMOOTH",
"148 379 LINE SMOOTH",
"148 159 OFFCURVE",
"279 40 OFFCURVE",
"550 40 CURVE SMOOTH",
"623 40 OFFCURVE",
"762 60 OFFCURVE",
"822 116 CURVE",
"822 -31 LINE SMOOTH",
"822 -188 OFFCURVE",
"748.874 -265 OFFCURVE",
"564.376 -265 CURVE SMOOTH",
"464.483 -265 OFFCURVE",
"352.626 -248 OFFCURVE",
"295 -227 CURVE",
"253 -368 LINE",
"331 -397 OFFCURVE",
"460 -408 OFFCURVE"
);
},
{
closed = 1;
nodes = (
"579 184 CURVE SMOOTH",
"441 184 OFFCURVE",
"336 223 OFFCURVE",
"336 350 CURVE SMOOTH",
"336 748 LINE SMOOTH",
"336 878 OFFCURVE",
"430 936 OFFCURVE",
"578 936 CURVE SMOOTH",
"745 936 OFFCURVE",
"822 882 OFFCURVE",
"822 790 CURVE SMOOTH",
"822 264 LINE",
"792 240 OFFCURVE",
"719 184 OFFCURVE"
);
}
);
width = 1182;
},
{
anchors = (
{
name = top;
position = "{562, 1074}";
}
);
layerId = "C6C96970-2BBD-4A47-8C90-C83F37B7F23D";
name = Bold;
paths = (
{
closed = 1;
nodes = (
"574 -441 CURVE SMOOTH",
"919 -441 OFFCURVE",
"1059 -277 OFFCURVE",
"1059 -12 CURVE SMOOTH",
"1059 1075 LINE",
"857 1075 LINE",
"834 997 LINE",
"767 1052 OFFCURVE",
"651 1097 OFFCURVE",
"533 1097 CURVE SMOOTH",
"230 1097 OFFCURVE",
"124 935 OFFCURVE",
"124 751 CURVE SMOOTH",
"124 366 LINE SMOOTH",
"124 155 OFFCURVE",
"284 32 OFFCURVE",
"543 32 CURVE SMOOTH",
"625 32 OFFCURVE",
"723 50 OFFCURVE",
"787 88 CURVE",
"787 -30 LINE SMOOTH",
"787 -178 OFFCURVE",
"720 -242 OFFCURVE",
"564 -242 CURVE SMOOTH",
"481 -242 OFFCURVE",
"376 -228 OFFCURVE",
"275 -200 CURVE",
"219 -385 LINE",
"294 -421 OFFCURVE",
"441 -441 OFFCURVE"
);
},
{
closed = 1;
nodes = (
"588 213 CURVE SMOOTH",
"475 213 OFFCURVE",
"396 248 OFFCURVE",
"396 356 CURVE SMOOTH",
"396 757 LINE SMOOTH",
"396 865 OFFCURVE",
"464 907 OFFCURVE",
"588 907 CURVE SMOOTH",
"711 907 OFFCURVE",
"787 860 OFFCURVE",
"787 832 CURVE SMOOTH",
"787 261 LINE",
"750 234 OFFCURVE",
"680 213 OFFCURVE"
);
}
);
width = 1211;
}
);
unicode = 0067;
},
{
glyphname = h;
lastChange = "2014-01-29 03:32:31 -0800";
layers = (
{
anchors = (
{
name = mid;
position = "{285, 1276}";
},
{
name = top;
position = "{687, 1060}";
}
);
layerId = "F85E8FEC-B3CD-4A54-BF30-AB1986ECE904";
name = Regular;
paths = (
{
closed = 1;
nodes = (
"186 0 LINE",
"374 0 LINE",
"374 758 LINE SMOOTH",
"374 860 OFFCURVE",
"458 936 OFFCURVE",
"642 936 CURVE SMOOTH",
"773 936 OFFCURVE",
"862 888 OFFCURVE",
"862 783 CURVE SMOOTH",
"862 0 LINE",
"1050 0 LINE",
"1050 773 LINE SMOOTH",
"1050 941 OFFCURVE",
"951 1080 OFFCURVE",
"690 1080 CURVE SMOOTH",
"536 1080 OFFCURVE",
"436 1032 OFFCURVE",
"374 960 CURVE",
"374 1505 LINE",
"186 1505 LINE"
);
}
);
width = 1224;
},
{
anchors = (
{
name = top;
position = "{811, 1305}";
}
);
layerId = "C6C96970-2BBD-4A47-8C90-C83F37B7F23D";
name = Bold;
paths = (
{
closed = 1;
nodes = (
"162 0 LINE",
"434 0 LINE",
"434 738 LINE SMOOTH",
"434 842 OFFCURVE",
"549 894 OFFCURVE",
"647 894 CURVE SMOOTH",
"732 894 OFFCURVE",
"830 869 OFFCURVE",
"830 756 CURVE SMOOTH",
"830 0 LINE",
"1102 0 LINE",
"1102 795 LINE SMOOTH",
"1102 976 OFFCURVE",
"976 1097 OFFCURVE",
"770 1097 CURVE SMOOTH",
"621 1097 OFFCURVE",
"480 1045 OFFCURVE",
"434 970 CURVE",
"434 1515 LINE",
"162 1515 LINE"
);
}
);
width = 1254;
}
);
unicode = 0068;
},
{
glyphname = hbar;
lastChange = "2014-01-29 04:29:10 -0800";
layers = (
{
components = (
{
name = h;
transform = "{1, 0, 0, 1, 0, 0}";
}
);
layerId = "F85E8FEC-B3CD-4A54-BF30-AB1986ECE904";
name = Regular;
paths = (
{
closed = 1;
nodes = (
"29 1249 LINE",
"844 1249 LINE",
"844 1373 LINE",
"29 1373 LINE"
);
}
);
width = 1224;
},
{
components = (
{
name = h;
transform = "{1, 0, 0, 1, 0, 0}";
}
);
layerId = "C6C96970-2BBD-4A47-8C90-C83F37B7F23D";
name = Bold;
paths = (
{
closed = 1;
nodes = (
"735 1221 LINE",
"735 1364 LINE",
"5 1364 LINE",
"5 1221 LINE"
);
}
);
width = 1254;
}
);
unicode = 0127;
},
{
glyphname = dotlessi;
lastChange = "2014-01-29 03:33:15 -0800";
layers = (
{
anchors = (
{
name = ogonek;
position = "{308, 0}";
},
{
name = top;
position = "{299, 1060}";
}
);
layerId = "F85E8FEC-B3CD-4A54-BF30-AB1986ECE904";
name = Regular;
paths = (
{
closed = 1;
nodes = (
"196 0 LINE",
"384 0 LINE",
"384 1060 LINE",
"196 1060 LINE"
);
}
);
width = 564;
},
{
anchors = (
{
name = ogonek;
position = "{273, 0}";
},
{
name = top;
position = "{267, 1074}";
}
);
layerId = "C6C96970-2BBD-4A47-8C90-C83F37B7F23D";
name = Bold;
paths = (
{
closed = 1;
nodes = (
"134 0 LINE",
"385 0 LINE",
"385 1074 LINE",
"134 1074 LINE"
);
}
);
width = 488;
}
);
unicode = 0131;
},
{
glyphname = dotlessj;
lastChange = "2014-01-28 21:11:09 -0800";
layers = (
{
anchors = (
{
name = top;
position = "{322, 1060}";
}
);
layerId = "F85E8FEC-B3CD-4A54-BF30-AB1986ECE904";
name = Regular;
paths = (
{
closed = 1;
nodes = (
"32 -353 LINE",
"98 -353 LINE SMOOTH",
"304 -353 OFFCURVE",
"420 -305 OFFCURVE",
"420 7 CURVE SMOOTH",
"420 1060 LINE",
"232 1060 LINE",
"232 -4 LINE SMOOTH",
"232 -174 OFFCURVE",
"175 -197 OFFCURVE",
"42 -197 CURVE SMOOTH",
"13 -197 LINE"
);
}
);
width = 602;
},
{
anchors = (
{
name = top;
position = "{353, 1074}";
}
);
layerId = "C6C96970-2BBD-4A47-8C90-C83F37B7F23D";
name = Bold;
paths = (
{
closed = 1;
nodes = (
"-12 -329 LINE",
"97 -329 LINE SMOOTH",
"364 -329 OFFCURVE",
"471 -183 OFFCURVE",
"471 30 CURVE SMOOTH",
"471 1074 LINE",
"198 1074 LINE",
"198 43 LINE SMOOTH",
"198 -39 OFFCURVE",
"167 -135 OFFCURVE",
"27 -135 CURVE SMOOTH",
"-18 -135 LINE"
);
}
);
width = 650;
}
);
unicode = 0237;
},
{
glyphname = k;
lastChange = "2014-01-29 03:33:42 -0800";
layers = (
{
anchors = (
{
name = bot;
position = "{626, 0}";
},
{
name = top;
position = "{614, 1060}";
}
);
layerId = "F85E8FEC-B3CD-4A54-BF30-AB1986ECE904";
name = Regular;
paths = (
{
closed = 1;
nodes = (
"186 0 LINE",
"374 0 LINE",
"374 334 LINE",
"533 492 LINE",
"913 0 LINE",
"1130 0 LINE",
"656 594 LINE",
"1087 1060 LINE",
"881 1060 LINE",
"374 524 LINE",
"374 1506 LINE",
"186 1506 LINE"
);
}
);
width = 1145;
},
{
anchors = (
{
name = bot;
position = "{656, 0}";
},
{
name = top;
position = "{781, 1305}";
}
);
layerId = "C6C96970-2BBD-4A47-8C90-C83F37B7F23D";
name = Bold;
paths = (
{
closed = 1;
nodes = (
"162 0 LINE",
"434 0 LINE",
"434 374 LINE",
"554 497 LINE",
"890 0 LINE",
"1187 0 LINE",
"765 611 LINE",
"1169 1074 LINE",
"859 1074 LINE",
"434 602 LINE",
"434 1516 LINE",
"162 1516 LINE"
);
}
);
width = 1199;
}
);
unicode = 006B;
},
{
glyphname = kgreenlandic;
lastChange = "2014-01-28 19:50:35 -0800";
layers = (
{
layerId = "F85E8FEC-B3CD-4A54-BF30-AB1986ECE904";
name = Regular;
paths = (
{
closed = 1;
nodes = (
"186 0 LINE",
"374 0 LINE",
"374 354 LINE",
"521 498 LINE",
"905 0 LINE",
"1122 0 LINE",
"665 583 LINE",
"1079 1060 LINE",
"871 1060 LINE",
"702 877 OFFCURVE",
"544 692 OFFCURVE",
"374 510 CURVE",
"374 1060 LINE",
"186 1060 LINE"
);
}
);
width = 1148;
},
{
layerId = "C6C96970-2BBD-4A47-8C90-C83F37B7F23D";
name = Bold;
paths = (
{
closed = 1;
nodes = (
"171 0 LINE",
"444 0 LINE",
"444 385 LINE",
"540 483 LINE",
"864 0 LINE",
"1190 0 LINE",
"771 605 LINE",
"1169 1074 LINE",
"845 1074 LINE",
"793 1018 OFFCURVE",
"496 657 OFFCURVE",
"444 602 CURVE",
"444 1074 LINE",
"171 1074 LINE"
);
}
);
width = 1213;
}
);
unicode = 0138;
},
{
glyphname = l;
lastChange = "2014-01-29 04:34:10 -0800";
layers = (
{
anchors = (
{
name = bot;
position = "{380, 0}";
},
{
name = caron.alt;
position = "{234, 1060}";
},
{
name = top;
position = "{301, 1506}";
}
);
layerId = "F85E8FEC-B3CD-4A54-BF30-AB1986ECE904";
name = Regular;
paths = (
{
closed = 1;
nodes = (
"530 -8 CURVE SMOOTH",
"584 -8 LINE",
"606 150 LINE",
"573 150 LINE SMOOTH",
"416 150 OFFCURVE",
"378 183 OFFCURVE",
"378 356 CURVE SMOOTH",
"378 1505 LINE",
"190 1505 LINE",
"190 358 LINE SMOOTH",
"190 49 OFFCURVE",
"298 -8 OFFCURVE"
);
}
);
width = 692;
},
{
anchors = (
{
name = bot;
position = "{466, 0}";
},
{
name = caron.alt;
position = "{319, 1074}";
},
{
name = mid;
position = "{304, 941}";
},
{
name = top;
position = "{329, 1513}";
}
);
layerId = "C6C96970-2BBD-4A47-8C90-C83F37B7F23D";
name = Bold;
paths = (
{
closed = 1;
nodes = (
"527 -12 CURVE SMOOTH",
"641 -12 LINE",
"662 190 LINE",
"628 190 LINE SMOOTH",
"482 190 OFFCURVE",
"436 239 OFFCURVE",
"436 357 CURVE SMOOTH",
"436 1515 LINE",
"164 1515 LINE",
"164 353 LINE SMOOTH",
"164 83 OFFCURVE",
"288 -12 OFFCURVE"
);
}
);
width = 708;
}
);
unicode = 006C;
},
{
glyphname = lslash;
lastChange = "2014-01-29 04:28:26 -0800";
layers = (
{
components = (
{
name = l;
transform = "{1, 0, 0, 1, 0, 0}";
}
);
layerId = "F85E8FEC-B3CD-4A54-BF30-AB1986ECE904";
name = Regular;
paths = (
{
closed = 1;
nodes = (
"52 616 LINE",
"604 887 LINE",
"604 1011 LINE",
"52 740 LINE"
);
}
);
width = 708;
},
{
components = (
{
name = l;
transform = "{1, 0, 0, 1, 0, 0}";
}
);
layerId = "C6C96970-2BBD-4A47-8C90-C83F37B7F23D";
name = Bold;
paths = (
{
closed = 1;
nodes = (
"599 915 LINE",
"599 1059 LINE",
"25 823 LINE",
"25 680 LINE"
);
}
);
width = 708;
}
);
unicode = 0142;
},
{
glyphname = m;
lastChange = "2014-01-28 19:50:35 -0800";
layers = (
{
anchors = (
{
name = top;
position = "{994, 1060}";
}
);
layerId = "F85E8FEC-B3CD-4A54-BF30-AB1986ECE904";
name = Regular;
paths = (
{
closed = 1;
nodes = (
"186 0 LINE",
"374 0 LINE",
"374 755 LINE SMOOTH",
"374 857 OFFCURVE",
"446 936 OFFCURVE",
"630 936 CURVE SMOOTH",
"761 936 OFFCURVE",
"844 886 OFFCURVE",
"844 781 CURVE SMOOTH",
"844 0 LINE",
"1032 0 LINE",
"1032 755 LINE SMOOTH",
"1032 857 OFFCURVE",
"1104 936 OFFCURVE",
"1288 936 CURVE SMOOTH",
"1419 936 OFFCURVE",
"1496 886 OFFCURVE",
"1496 781 CURVE SMOOTH",
"1496 0 LINE",
"1684 0 LINE",
"1684 770 LINE SMOOTH",
"1684 938 OFFCURVE",
"1597 1080 OFFCURVE",
"1336 1080 CURVE SMOOTH",
"1182 1080 OFFCURVE",
"1082.35 1030.62 OFFCURVE",
"989 941 CURVE",
"939 1024 OFFCURVE",
"842 1080 OFFCURVE",
"678 1080 CURVE SMOOTH",
"524 1080 OFFCURVE",
"436 1029 OFFCURVE",
"374 957 CURVE",
"374 1060 LINE",
"186 1060 LINE"
);
}
);
width = 1860;
},
{
anchors = (
{
name = top;
position = "{1054, 1074}";
}
);
layerId = "C6C96970-2BBD-4A47-8C90-C83F37B7F23D";
name = Bold;
paths = (
{
closed = 1;
nodes = (
"160 0 LINE",
"432 0 LINE",
"432 739 LINE SMOOTH",
"432 844 OFFCURVE",
"559 897 OFFCURVE",
"657 897 CURVE SMOOTH",
"742 897 OFFCURVE",
"817 875 OFFCURVE",
"817 762 CURVE SMOOTH",
"817 0 LINE",
"1089 0 LINE",
"1089 750 LINE",
"1097 846 OFFCURVE",
"1220 897 OFFCURVE",
"1317 897 CURVE SMOOTH",
"1401 897 OFFCURVE",
"1470 875 OFFCURVE",
"1470 762 CURVE SMOOTH",
"1470 0 LINE",
"1742 0 LINE",
"1742 794 LINE SMOOTH",
"1742 975 OFFCURVE",
"1607 1097 OFFCURVE",
"1401 1097 CURVE SMOOTH",
"1231 1097 OFFCURVE",
"1122 1042 OFFCURVE",
"1044 964 CURVE",
"989 1056 OFFCURVE",
"887 1097 OFFCURVE",
"749 1097 CURVE SMOOTH",
"570 1097 OFFCURVE",
"463 1011 OFFCURVE",
"432 978 CURVE",
"432 1074 LINE",
"160 1074 LINE"
);
}
);
width = 1894;
}
);
unicode = 006D;
},
{
glyphname = n;
lastChange = "2014-01-29 03:30:22 -0800";
layers = (
{
anchors = (
{
name = bot;
position = "{613, 0}";
},
{
name = top;
position = "{684, 1060}";
}
);
layerId = "F85E8FEC-B3CD-4A54-BF30-AB1986ECE904";
name = Regular;
paths = (
{
closed = 1;
nodes = (
"186 0 LINE",
"374 0 LINE",
"374 755 LINE SMOOTH",
"374 857 OFFCURVE",
"456 936 OFFCURVE",
"640 936 CURVE SMOOTH",
"771 936 OFFCURVE",
"862 886 OFFCURVE",
"862 781 CURVE SMOOTH",
"862 0 LINE",
"1050 0 LINE",
"1050 770 LINE SMOOTH",
"1050 938 OFFCURVE",
"949 1080 OFFCURVE",
"688 1080 CURVE SMOOTH",
"534 1080 OFFCURVE",
"436 1029 OFFCURVE",
"374 957 CURVE",
"374 1060 LINE",
"186 1060 LINE"
);
}
);
width = 1224;
},
{
anchors = (
{
name = bot;
position = "{656, 0}";
},
{
name = top;
position = "{712, 1074}";
}
);
layerId = "C6C96970-2BBD-4A47-8C90-C83F37B7F23D";
name = Bold;
paths = (
{
closed = 1;
nodes = (
"160 0 LINE",
"432 0 LINE",
"432 735 LINE SMOOTH",
"432 840 OFFCURVE",
"543 894 OFFCURVE",
"641 894 CURVE SMOOTH",
"726 894 OFFCURVE",
"830 868 OFFCURVE",
"830 755 CURVE SMOOTH",
"830 0 LINE",
"1102 0 LINE",
"1102 770 LINE SMOOTH",
"1102 951 OFFCURVE",
"997 1090 OFFCURVE",
"791 1098 CURVE SMOOTH",
"572 1107 OFFCURVE",
"455 999 OFFCURVE",
"432 979 CURVE",
"432 1074 LINE",
"160 1074 LINE"
);
}
);
width = 1254;
}
);
unicode = 006E;
},
{
glyphname = eng;
lastChange = "2014-01-28 19:50:35 -0800";
layers = (
{
layerId = "F85E8FEC-B3CD-4A54-BF30-AB1986ECE904";
name = Regular;
paths = (
{
closed = 1;
nodes = (
"641 -316 LINE",
"987 -316 OFFCURVE",
"1050 -162 OFFCURVE",
"1050 219 CURVE SMOOTH",
"1050 770 LINE SMOOTH",
"1050 938 OFFCURVE",
"949 1080 OFFCURVE",
"688 1080 CURVE SMOOTH",
"534 1080 OFFCURVE",
"436 1029 OFFCURVE",
"374 957 CURVE",
"374 1060 LINE",
"186 1060 LINE",
"186 0 LINE",
"374 0 LINE",
"374 755 LINE SMOOTH",
"374 857 OFFCURVE",
"456 936 OFFCURVE",
"640 936 CURVE SMOOTH",
"771 936 OFFCURVE",
"862 886 OFFCURVE",
"862 781 CURVE SMOOTH",
"862 212 LINE SMOOTH",
"862 -100 OFFCURVE",
"861 -175 OFFCURVE",
"613 -175 CURVE"
);
}
);
width = 1226;
},
{
layerId = "C6C96970-2BBD-4A47-8C90-C83F37B7F23D";
name = Bold;
paths = (
{
closed = 1;
nodes = (
"553 -365 LINE",
"995 -365 OFFCURVE",
"1102 -202 OFFCURVE",
"1102 179 CURVE SMOOTH",
"1102 794 LINE SMOOTH",
"1102 975 OFFCURVE",
"962 1097 OFFCURVE",
"756 1097 CURVE SMOOTH",
"607 1097 OFFCURVE",
"479 1030 OFFCURVE",
"433 948 CURVE",
"433 1074 LINE",
"160 1074 LINE",
"160 0 LINE",
"433 0 LINE",
"433 758 LINE SMOOTH",
"433 863 OFFCURVE",
"543 907 OFFCURVE",
"642 907 CURVE SMOOTH",
"726 907 OFFCURVE",
"829 881 OFFCURVE",
"829 768 CURVE SMOOTH",
"829 172 LINE SMOOTH",
"829 -140 OFFCURVE",
"769 -153 OFFCURVE",
"525 -175 CURVE"
);
}
);
width = 1254;
}
);
unicode = 014B;
},
{
glyphname = o;
lastChange = "2014-01-28 19:50:35 -0800";
layers = (
{
anchors = (
{
name = bot;
position = "{594, 0}";
},
{
name = ogonek;
position = "{635, 0}";
},
{
name = top;
position = "{585, 1060}";
}
);
layerId = "F85E8FEC-B3CD-4A54-BF30-AB1986ECE904";
name = Regular;
paths = (
{
closed = 1;
nodes = (
"587 122 CURVE SMOOTH",
"437 122 OFFCURVE",
"336 168 OFFCURVE",
"336 299 CURVE SMOOTH",
"336 758 LINE SMOOTH",
"336 889 OFFCURVE",
"437 936 OFFCURVE",
"587 936 CURVE SMOOTH",
"734 936 OFFCURVE",
"838 889 OFFCURVE",
"838 758 CURVE SMOOTH",
"838 299 LINE SMOOTH",
"838 168 OFFCURVE",
"734 122 OFFCURVE"
);
},
{
closed = 1;
nodes = (
"587 -22 CURVE SMOOTH",
"903 -22 OFFCURVE",
"1026 119 OFFCURVE",
"1026 315 CURVE SMOOTH",
"1026 742 LINE SMOOTH",
"1026 938 OFFCURVE",
"903 1080 OFFCURVE",
"587 1080 CURVE SMOOTH",
"268 1080 OFFCURVE",
"148 938 OFFCURVE",
"148 742 CURVE SMOOTH",
"148 315 LINE SMOOTH",
"148 119 OFFCURVE",
"268 -22 OFFCURVE"
);
}
);
width = 1174;
},
{
anchors = (
{
name = bot;
position = "{592, 0}";
},
{
name = ogonek;
position = "{657, 0}";
},
{
name = top;
position = "{592, 1074}";
}
);
layerId = "C6C96970-2BBD-4A47-8C90-C83F37B7F23D";
name = Bold;
paths = (
{
closed = 1;
nodes = (
"590 166 CURVE SMOOTH",
"465 166 OFFCURVE",
"396 204 OFFCURVE",
"396 313 CURVE SMOOTH",
"396 760 LINE SMOOTH",
"396 869 OFFCURVE",
"472 907 OFFCURVE",
"590 907 CURVE SMOOTH",
"713 907 OFFCURVE",
"784 869 OFFCURVE",
"784 760 CURVE SMOOTH",
"784 313 LINE SMOOTH",
"784 204 OFFCURVE",
"706 166 OFFCURVE"
);
},
{
closed = 1;
nodes = (
"590 -23 CURVE SMOOTH",
"939 -23 OFFCURVE",
"1056 112 OFFCURVE",
"1056 325 CURVE SMOOTH",
"1056 748 LINE SMOOTH",
"1056 967 OFFCURVE",
"883 1097 OFFCURVE",
"590 1097 CURVE SMOOTH",
"295 1097 OFFCURVE",
"124 967 OFFCURVE",
"124 748 CURVE SMOOTH",
"124 325 LINE SMOOTH",
"124 111 OFFCURVE",
"251 -23 OFFCURVE"
);
}
);
width = 1180;
}
);
unicode = 006F;
},
{
glyphname = oslash;
lastChange = "2014-01-29 04:19:18 -0800";
layers = (
{
anchors = (
{
name = top;
position = "{587, 1060}";
}
);
components = (
{
name = o;
transform = "{1, 0, 0, 1, 0, 0}";
}
);
layerId = "F85E8FEC-B3CD-4A54-BF30-AB1986ECE904";
name = Regular;
paths = (
{
closed = 1;
nodes = (
"363 -226 LINE",
"901 1220 LINE",
"811 1251 LINE",
"271 -195 LINE"
);
}
);
width = 1174;
},
{
anchors = (
{
name = top;
position = "{600, 1074}";
}
);
components = (
{
name = o;
transform = "{1, 0, 0, 1, 0, 0}";
}
);
layerId = "C6C96970-2BBD-4A47-8C90-C83F37B7F23D";
name = Bold;
paths = (
{
closed = 1;
nodes = (
"367 -214 LINE",
"896 1260 LINE",
"824 1281 LINE",
"295 -194 LINE"
);
}
);
width = 1180;
}
);
unicode = 00F8;
},
{
glyphname = oe;
lastChange = "2014-01-28 19:50:35 -0800";
layers = (
{
anchors = (
{
name = top;
position = "{867, 0}";
}
);
layerId = "F85E8FEC-B3CD-4A54-BF30-AB1986ECE904";
name = Regular;
paths = (
{
closed = 1;
nodes = (
"569 -20 CURVE SMOOTH",
"730 -20 OFFCURVE",
"822 34 OFFCURVE",
"883 122 CURVE",
"947 35 OFFCURVE",
"1054 -20 OFFCURVE",
"1198 -20 CURVE SMOOTH",
"1488 -20 OFFCURVE",
"1582 73 OFFCURVE",
"1603 331 CURVE",
"1433 331 LINE",
"1420 148 OFFCURVE",
"1364 121 OFFCURVE",
"1198 121 CURVE SMOOTH",
"1051 121 OFFCURVE",
"979 186 OFFCURVE",
"979 328 CURVE SMOOTH",
"979 506 LINE",
"1604 506 LINE",
"1604 758 LINE SMOOTH",
"1604 959 OFFCURVE",
"1474 1080 OFFCURVE",
"1198 1080 CURVE SMOOTH",
"1053 1080 OFFCURVE",
"949 1043 OFFCURVE",
"883 950 CURVE",
"813 1043 OFFCURVE",
"707 1080 OFFCURVE",
"569 1080 CURVE SMOOTH",
"306 1080 OFFCURVE",
"150 947 OFFCURVE",
"150 747 CURVE SMOOTH",
"150 317 LINE SMOOTH",
"150 121 OFFCURVE",
"253 -20 OFFCURVE"
);
},
{
closed = 1;
nodes = (
"569 121 CURVE SMOOTH",
"422 121 OFFCURVE",
"338 170 OFFCURVE",
"338 301 CURVE SMOOTH",
"338 763 LINE SMOOTH",
"338 894 OFFCURVE",
"430 938 OFFCURVE",
"569 938 CURVE SMOOTH",
"714 938 OFFCURVE",
"791 888 OFFCURVE",
"791 763 CURVE SMOOTH",
"791 301 LINE SMOOTH",
"791 171 OFFCURVE",
"708 121 OFFCURVE"
);
},
{
closed = 1;
nodes = (
"979 633 LINE",
"979 760 LINE SMOOTH",
"979 891 OFFCURVE",
"1048 938 OFFCURVE",
"1198 938 CURVE SMOOTH",
"1343 938 OFFCURVE",
"1422 906 OFFCURVE",
"1422 778 CURVE SMOOTH",
"1422 633 LINE"
);
}
);
width = 1734;
},
{
layerId = "C6C96970-2BBD-4A47-8C90-C83F37B7F23D";
name = Bold;
paths = (
{
closed = 1;
nodes = (
"584 -23 CURVE SMOOTH",
"734 -23 OFFCURVE",
"835 22 OFFCURVE",
"905 90 CURVE",
"985 18 OFFCURVE",
"1097 -23 OFFCURVE",
"1222 -23 CURVE SMOOTH",
"1512 -23 OFFCURVE",
"1663 45 OFFCURVE",
"1670 357 CURVE",
"1416 357 LINE",
"1412 188 OFFCURVE",
"1349 166 OFFCURVE",
"1227 166 CURVE SMOOTH",
"1113 166 OFFCURVE",
"1042 203 OFFCURVE",
"1042 321 CURVE SMOOTH",
"1042 512 LINE",
"1670 512 LINE",
"1670 745 LINE SMOOTH",
"1670 961 OFFCURVE",
"1546 1097 OFFCURVE",
"1220 1097 CURVE SMOOTH",
"1089 1097 OFFCURVE",
"981 1061 OFFCURVE",
"903 977 CURVE",
"825 1060 OFFCURVE",
"716 1097 OFFCURVE",
"584 1097 CURVE SMOOTH",
"307 1097 OFFCURVE",
"124 970 OFFCURVE",
"124 749 CURVE SMOOTH",
"124 326 LINE SMOOTH",
"124 112 OFFCURVE",
"246 -23 OFFCURVE"
);
},
{
closed = 1;
nodes = (
"584 166 CURVE SMOOTH",
"461 166 OFFCURVE",
"397 205 OFFCURVE",
"397 314 CURVE SMOOTH",
"397 762 LINE SMOOTH",
"397 870 OFFCURVE",
"470 907 OFFCURVE",
"584 907 CURVE SMOOTH",
"707 907 OFFCURVE",
"769 869 OFFCURVE",
"769 762 CURVE SMOOTH",
"769 314 LINE SMOOTH",
"769 205 OFFCURVE",
"698 166 OFFCURVE"
);
},
{
closed = 1;
nodes = (
"1042 655 LINE",
"1042 760 LINE SMOOTH",
"1042 874 OFFCURVE",
"1118 907 OFFCURVE",
"1227 907 CURVE SMOOTH",
"1336 907 OFFCURVE",
"1413 884 OFFCURVE",
"1413 765 CURVE SMOOTH",
"1413 655 LINE"
);
}
);
width = 1780;
}
);
unicode = 0153;
},
{
glyphname = p;
lastChange = "2014-01-28 19:50:35 -0800";
layers = (
{
anchors = (
{
name = top;
position = "{648, 1060}";
}
);
layerId = "F85E8FEC-B3CD-4A54-BF30-AB1986ECE904";
name = Regular;
paths = (
{
closed = 1;
nodes = (
"186 -408 LINE",
"374 -408 LINE",
"374 34 LINE",
"425 8 OFFCURVE",
"505 -22 OFFCURVE",
"624 -22 CURVE SMOOTH",
"900 -22 OFFCURVE",
"1050 131 OFFCURVE",
"1050 344 CURVE SMOOTH",
"1050 729 LINE SMOOTH",
"1050 933 OFFCURVE",
"919 1080 OFFCURVE",
"648 1080 CURVE SMOOTH",
"527 1080 OFFCURVE",
"412 1030 OFFCURVE",
"356 980 CURVE",
"334 1060 LINE",
"186 1060 LINE"
);
},
{
closed = 1;
nodes = (
"612 122 CURVE SMOOTH",
"503 122 OFFCURVE",
"422 152 OFFCURVE",
"374 179 CURVE",
"374 824 LINE",
"391 850 OFFCURVE",
"486 936 OFFCURVE",
"619 936 CURVE SMOOTH",
"757 936 OFFCURVE",
"862 871 OFFCURVE",
"862 744 CURVE SMOOTH",
"862 324 LINE SMOOTH",
"862 194 OFFCURVE",
"760 122 OFFCURVE"
);
}
);
width = 1198;
},
{
anchors = (
{
name = top;
position = "{692, 1074}";
}
);
layerId = "C6C96970-2BBD-4A47-8C90-C83F37B7F23D";
name = Bold;
paths = (
{
closed = 1;
nodes = (
"160 -410 LINE",
"432 -410 LINE",
"432 17 LINE",
"484 -6 OFFCURVE",
"552 -23 OFFCURVE",
"637 -23 CURVE SMOOTH",
"940 -23 OFFCURVE",
"1078 142 OFFCURVE",
"1078 326 CURVE SMOOTH",
"1078 751 LINE SMOOTH",
"1078 957 OFFCURVE",
"929 1097 OFFCURVE",
"669 1097 CURVE SMOOTH",
"552 1097 OFFCURVE",
"448 1056 OFFCURVE",
"377 1004 CURVE",
"350 1074 LINE",
"160 1074 LINE"
);
},
{
closed = 1;
nodes = (
"614 166 CURVE SMOOTH",
"509 166 OFFCURVE",
"447 205 OFFCURVE",
"432 213 CURVE",
"432 841 LINE",
"463 872 OFFCURVE",
"536 907 OFFCURVE",
"623 907 CURVE SMOOTH",
"737 907 OFFCURVE",
"806 863 OFFCURVE",
"806 755 CURVE SMOOTH",
"806 320 LINE SMOOTH",
"806 211 OFFCURVE",
"738 166 OFFCURVE"
);
}
);
width = 1202;
}
);
unicode = 0070;
},
{
glyphname = thorn;
lastChange = "2014-01-28 19:50:35 -0800";
layers = (
{
layerId = "F85E8FEC-B3CD-4A54-BF30-AB1986ECE904";
name = Regular;
paths = (
{
closed = 1;
nodes = (
"177 -408 LINE",
"365 -408 LINE",
"365 34 LINE",
"416 8 OFFCURVE",
"496 -24 OFFCURVE",
"615 -24 CURVE SMOOTH",
"891 -24 OFFCURVE",
"1044 131 OFFCURVE",
"1044 344 CURVE SMOOTH",
"1044 729 LINE SMOOTH",
"1044 933 OFFCURVE",
"910 1076 OFFCURVE",
"639 1076 CURVE SMOOTH",
"530 1076 OFFCURVE",
"425 1039 OFFCURVE",
"365 994 CURVE",
"365 1506 LINE",
"179 1506 LINE"
);
},
{
closed = 1;
nodes = (
"603 117 CURVE SMOOTH",
"494 117 OFFCURVE",
"413 152 OFFCURVE",
"365 179 CURVE",
"365 824 LINE",
"382 850 OFFCURVE",
"477 934 OFFCURVE",
"610 934 CURVE SMOOTH",
"748 934 OFFCURVE",
"856 869 OFFCURVE",
"856 742 CURVE SMOOTH",
"856 324 LINE SMOOTH",
"856 194 OFFCURVE",
"751 117 OFFCURVE"
);
}
);
width = 1194;
},
{
layerId = "C6C96970-2BBD-4A47-8C90-C83F37B7F23D";
name = Bold;
paths = (
{
closed = 1;
nodes = (
"158 -410 LINE",
"431 -410 LINE",
"431 17 LINE",
"484 -6 OFFCURVE",
"551 -24 OFFCURVE",
"636 -24 CURVE SMOOTH",
"939 -24 OFFCURVE",
"1080 142 OFFCURVE",
"1080 326 CURVE SMOOTH",
"1080 751 LINE SMOOTH",
"1080 957 OFFCURVE",
"928 1095 OFFCURVE",
"668 1095 CURVE SMOOTH",
"577 1095 OFFCURVE",
"494 1071 OFFCURVE",
"431 1036 CURVE",
"431 1516 LINE",
"158 1516 LINE"
);
},
{
closed = 1;
nodes = (
"614 165 CURVE SMOOTH",
"509 165 OFFCURVE",
"446 205 OFFCURVE",
"431 213 CURVE",
"431 841 LINE",
"463 872 OFFCURVE",
"535 906 OFFCURVE",
"623 906 CURVE SMOOTH",
"736 906 OFFCURVE",
"807 862 OFFCURVE",
"807 755 CURVE SMOOTH",
"807 320 LINE SMOOTH",
"807 211 OFFCURVE",
"737 165 OFFCURVE"
);
}
);
width = 1212;
}
);
unicode = 00FE;
},
{
glyphname = q;
lastChange = "2014-01-28 19:50:35 -0800";
layers = (
{
layerId = "F85E8FEC-B3CD-4A54-BF30-AB1986ECE904";
name = Regular;
paths = (
{
closed = 1;
nodes = (
"826 -408 LINE",
"1014 -408 LINE",
"1014 1060 LINE",
"826 1060 LINE",
"826 975 LINE",
"796 1025 OFFCURVE",
"668 1080 OFFCURVE",
"560 1080 CURVE SMOOTH",
"284 1080 OFFCURVE",
"148 941 OFFCURVE",
"148 728 CURVE SMOOTH",
"148 314 LINE SMOOTH",
"148 110 OFFCURVE",
"302 -22 OFFCURVE",
"573 -22 CURVE SMOOTH",
"646 -22 OFFCURVE",
"761 -3 OFFCURVE",
"826 47 CURVE"
);
},
{
closed = 1;
nodes = (
"585 122 CURVE SMOOTH",
"447 122 OFFCURVE",
"336 157 OFFCURVE",
"336 284 CURVE SMOOTH",
"336 748 LINE SMOOTH",
"336 878 OFFCURVE",
"440 936 OFFCURVE",
"588 936 CURVE SMOOTH",
"755 936 OFFCURVE",
"826 869 OFFCURVE",
"826 810 CURVE SMOOTH",
"826 201 LINE",
"816 180 OFFCURVE",
"725 122 OFFCURVE"
);
}
);
width = 1200;
},
{
layerId = "C6C96970-2BBD-4A47-8C90-C83F37B7F23D";
name = Bold;
paths = (
{
closed = 1;
nodes = (
"770 -410 LINE",
"1042 -410 LINE",
"1042 1074 LINE",
"839 1074 LINE",
"820 1005 LINE",
"759 1056 OFFCURVE",
"655 1097 OFFCURVE",
"543 1097 CURVE SMOOTH",
"282 1097 OFFCURVE",
"124 960 OFFCURVE",
"124 750 CURVE SMOOTH",
"124 317 LINE SMOOTH",
"124 136 OFFCURVE",
"235 -23 OFFCURVE",
"537 -23 CURVE SMOOTH",
"619 -23 OFFCURVE",
"705 -4 OFFCURVE",
"770 33 CURVE"
);
},
{
closed = 1;
nodes = (
"588 166 CURVE SMOOTH",
"467 166 OFFCURVE",
"396 200 OFFCURVE",
"396 308 CURVE SMOOTH",
"396 756 LINE SMOOTH",
"396 865 OFFCURVE",
"472 907 OFFCURVE",
"588 907 CURVE SMOOTH",
"685 907 OFFCURVE",
"745 878 OFFCURVE",
"770 839 CURVE",
"770 220 LINE",
"767 213 OFFCURVE",
"702 166 OFFCURVE"
);
}
);
width = 1194;
}
);
unicode = 0071;
},
{
glyphname = r;
lastChange = "2014-01-29 03:35:16 -0800";
layers = (
{
anchors = (
{
name = bot;
position = "{286, 0}";
},
{
name = top;
position = "{477, 1060}";
}
);
layerId = "F85E8FEC-B3CD-4A54-BF30-AB1986ECE904";
name = Regular;
paths = (
{
closed = 1;
nodes = (
"186 0 LINE",
"374 0 LINE",
"374 722 LINE SMOOTH",
"374 828 OFFCURVE",
"555 914 OFFCURVE",
"736 914 CURVE",
"742 1075 LINE",
"602 1075 OFFCURVE",
"425 1027 OFFCURVE",
"374 890 CURVE",
"374 1060 LINE",
"186 1060 LINE"
);
}
);
width = 798;
},
{
anchors = (
{
name = bot;
position = "{386, 0}";
},
{
name = top;
position = "{542, 1074}";
}
);
layerId = "C6C96970-2BBD-4A47-8C90-C83F37B7F23D";
name = Bold;
paths = (
{
closed = 1;
nodes = (
"160 0 LINE",
"432 0 LINE",
"432 720 LINE",
"453 806 OFFCURVE",
"667 852 OFFCURVE",
"805 859 CURVE",
"811 1090 LINE",
"721 1100 OFFCURVE",
"483 1045 OFFCURVE",
"432 946 CURVE",
"432 1074 LINE",
"160 1074 LINE"
);
}
);
width = 831;
}
);
unicode = 0072;
},
{
glyphname = s;
lastChange = "2014-01-29 03:35:46 -0800";
layers = (
{
anchors = (
{
name = bot;
position = "{515, 0}";
},
{
name = top;
position = "{520, 1060}";
}
);
layerId = "F85E8FEC-B3CD-4A54-BF30-AB1986ECE904";
name = Regular;
paths = (
{
closed = 1;
nodes = (
"524 -22 CURVE SMOOTH",
"776 -22 OFFCURVE",
"872 116 OFFCURVE",
"872 283 CURVE SMOOTH",
"872 448 OFFCURVE",
"838 515 OFFCURVE",
"660 585 CURVE SMOOTH",
"411 683 LINE",
"338 709 OFFCURVE",
"320 733 OFFCURVE",
"320 799 CURVE SMOOTH",
"320 895 OFFCURVE",
"352 936 OFFCURVE",
"524 936 CURVE SMOOTH",
"613 936 OFFCURVE",
"742 903 OFFCURVE",
"803 878 CURVE",
"846 1022 LINE",
"768 1053 OFFCURVE",
"638 1080 OFFCURVE",
"489 1080 CURVE SMOOTH",
"227 1080 OFFCURVE",
"145 969 OFFCURVE",
"145 790 CURVE SMOOTH",
"145 658 OFFCURVE",
"197 590 OFFCURVE",
"352 536 CURVE",
"604 443 LINE SMOOTH",
"704 406 OFFCURVE",
"712 363 OFFCURVE",
"712 281 CURVE SMOOTH",
"712 192 OFFCURVE",
"666 122 OFFCURVE",
"499 122 CURVE SMOOTH",
"355 122 OFFCURVE",
"231 176 OFFCURVE",
"184 202 CURVE",
"138 64 LINE",
"186 37 OFFCURVE",
"326 -22 OFFCURVE"
);
}
);
width = 982;
},
{
anchors = (
{
name = bot;
position = "{506, 0}";
},
{
name = top;
position = "{546, 1074}";
}
);
layerId = "C6C96970-2BBD-4A47-8C90-C83F37B7F23D";
name = Bold;
paths = (
{
closed = 1;
nodes = (
"527 -23 CURVE SMOOTH",
"784 -23 OFFCURVE",
"912 122 OFFCURVE",
"912 303 CURVE SMOOTH",
"912 471 OFFCURVE",
"851 569 OFFCURVE",
"670 626 CURVE SMOOTH",
"448 696 LINE SMOOTH",
"393 713 OFFCURVE",
"370 751 OFFCURVE",
"375 806 CURVE SMOOTH",
"380 867 OFFCURVE",
"410 907 OFFCURVE",
"525 907 CURVE SMOOTH",
"627 907 OFFCURVE",
"761 870 OFFCURVE",
"824 837 CURVE",
"888 1006 LINE",
"811 1050 OFFCURVE",
"684 1097 OFFCURVE",
"500 1097 CURVE SMOOTH",
"274 1097 OFFCURVE",
"116 1001 OFFCURVE",
"114 796 CURVE SMOOTH",
"111 652 OFFCURVE",
"167 542 OFFCURVE",
"336 489 CURVE SMOOTH",
"572 415 LINE SMOOTH",
"654 389 OFFCURVE",
"670 338 OFFCURVE",
"661 279 CURVE SMOOTH",
"652 219 OFFCURVE",
"619 166 OFFCURVE",
"517 166 CURVE SMOOTH",
"411 166 OFFCURVE",
"278 197 OFFCURVE",
"163 246 CURVE",
"108 61 LINE",
"220 4 OFFCURVE",
"345 -23 OFFCURVE"
);
}
);
width = 994;
}
);
unicode = 0073;
userData = {
com.typemytype.robofont.layerData = {
};
};
},
{
glyphname = germandbls;
lastChange = "2014-01-29 04:41:14 -0800";
layers = (
{
layerId = "F85E8FEC-B3CD-4A54-BF30-AB1986ECE904";
name = Regular;
paths = (
{
closed = 1;
nodes = (
"190 0 LINE",
"378 0 LINE",
"378 1131 LINE SMOOTH",
"378 1305 OFFCURVE",
"497 1332 OFFCURVE",
"643 1332 CURVE SMOOTH",
"781 1332 OFFCURVE",
"869 1296 OFFCURVE",
"869 1119 CURVE SMOOTH",
"869 989 OFFCURVE",
"818 912 OFFCURVE",
"600 912 CURVE",
"600 770 LINE",
"838 770 OFFCURVE",
"991 743 OFFCURVE",
"991 485 CURVE SMOOTH",
"991 182 OFFCURVE",
"786 168 OFFCURVE",
"518 148 CURVE",
"536 0 LINE",
"942 0 OFFCURVE",
"1166 119 OFFCURVE",
"1166 488 CURVE SMOOTH",
"1166 786 OFFCURVE",
"1019 829 OFFCURVE",
"902 878 CURVE",
"1010 908 OFFCURVE",
"1057 979 OFFCURVE",
"1057 1135 CURVE SMOOTH",
"1057 1347 OFFCURVE",
"933 1483 OFFCURVE",
"652 1483 CURVE SMOOTH",
"396 1483 OFFCURVE",
"190 1401 OFFCURVE",
"190 1103 CURVE SMOOTH"
);
}
);
width = 1281;
},
{
layerId = "C6C96970-2BBD-4A47-8C90-C83F37B7F23D";
name = Bold;
paths = (
{
closed = 1;
nodes = (
"923 264 OFFCURVE",
"854 169 OFFCURVE",
"604 169 CURVE",
"622 -20 LINE",
"1051 -20 OFFCURVE",
"1212 156 OFFCURVE",
"1212 400 CURVE SMOOTH",
"1212 547 OFFCURVE",
"1166 759 OFFCURVE",
"879 819 CURVE",
"1043 864 OFFCURVE",
"1115 990 OFFCURVE",
"1115 1122 CURVE SMOOTH",
"1115 1336 OFFCURVE",
"986 1507 OFFCURVE",
"613 1507 CURVE SMOOTH",
"294 1507 OFFCURVE",
"140 1350 OFFCURVE",
"140 1118 CURVE SMOOTH",
"140 0 LINE",
"450 0 LINE",
"450 1129 LINE SMOOTH",
"450 1244 OFFCURVE",
"488 1318 OFFCURVE",
"633 1318 CURVE SMOOTH",
"813 1318 OFFCURVE",
"836 1207 OFFCURVE",
"836 1110 CURVE SMOOTH",
"836 1001 OFFCURVE",
"800 893 OFFCURVE",
"618 893 CURVE",
"618 703 LINE",
"822 683 OFFCURVE",
"923 649 OFFCURVE",
"923 422 CURVE SMOOTH"
);
}
);
width = 1286;
}
);
unicode = 00DF;
},
{
glyphname = t;
lastChange = "2014-01-29 04:33:24 -0800";
layers = (
{
anchors = (
{
name = bot;
position = "{453, 32}";
},
{
name = caron.alt;
position = "{248, 1060}";
},
{
name = mid;
position = "{378, 597}";
},
{
name = top;
position = "{446, 1280}";
}
);
layerId = "F85E8FEC-B3CD-4A54-BF30-AB1986ECE904";
name = Regular;
paths = (
{
closed = 1;
nodes = (
"676 -8 CURVE SMOOTH",
"704 -8 LINE",
"724 150 LINE",
"703 150 LINE SMOOTH",
"524 150 OFFCURVE",
"445 175 OFFCURVE",
"445 315 CURVE SMOOTH",
"445 918 LINE",
"711 918 LINE",
"711 1060 LINE",
"445 1060 LINE",
"445 1388 LINE",
"287 1388 LINE",
"264 1060 LINE",
"80 1060 LINE",
"80 918 LINE",
"257 918 LINE",
"257 303 LINE SMOOTH",
"257 70 OFFCURVE",
"386 -8 OFFCURVE"
);
}
);
width = 832;
},
{
anchors = (
{
name = bot;
position = "{455, 24}";
},
{
name = caron.alt;
position = "{386, 1074}";
},
{
name = mid;
position = "{362, 620}";
},
{
name = top;
position = "{382, 1408}";
}
);
layerId = "C6C96970-2BBD-4A47-8C90-C83F37B7F23D";
name = Bold;
paths = (
{
closed = 1;
nodes = (
"631 -12 CURVE SMOOTH",
"728 -12 LINE",
"738 190 LINE",
"676 190 LINE SMOOTH",
"496 190 OFFCURVE",
"476 227 OFFCURVE",
"476 360 CURVE SMOOTH",
"476 901 LINE",
"731 901 LINE",
"731 1074 LINE",
"476 1074 LINE",
"476 1419 LINE",
"237 1419 LINE",
"212 1074 LINE",
"34 1074 LINE",
"34 901 LINE",
"204 901 LINE",
"204 341 LINE SMOOTH",
"204 65 OFFCURVE",
"307 -12 OFFCURVE"
);
}
);
width = 802;
}
);
unicode = 0074;
},
{
glyphname = u;
lastChange = "2014-01-29 03:36:37 -0800";
layers = (
{
anchors = (
{
name = ogonek;
position = "{957, 0}";
},
{
name = top;
position = "{622, 1060}";
}
);
layerId = "F85E8FEC-B3CD-4A54-BF30-AB1986ECE904";
name = Regular;
paths = (
{
closed = 1;
nodes = (
"539 -22 CURVE SMOOTH",
"693 -22 OFFCURVE",
"794 38 OFFCURVE",
"848 133 CURVE",
"868 0 LINE",
"1036 0 LINE",
"1036 1060 LINE",
"848 1060 LINE",
"848 309 LINE SMOOTH",
"848 220 OFFCURVE",
"760 122 OFFCURVE",
"576 122 CURVE SMOOTH",
"445 122 OFFCURVE",
"362 184 OFFCURVE",
"362 289 CURVE SMOOTH",
"362 1060 LINE",
"174 1060 LINE",
"174 290 LINE SMOOTH",
"174 122 OFFCURVE",
"278 -22 OFFCURVE"
);
}
);
width = 1222;
},
{
anchors = (
{
name = ogonek;
position = "{960, 0}";
},
{
name = top;
position = "{633, 1074}";
}
);
layerId = "C6C96970-2BBD-4A47-8C90-C83F37B7F23D";
name = Bold;
paths = (
{
closed = 1;
nodes = (
"485 -23 CURVE SMOOTH",
"634 -30 OFFCURVE",
"784 29 OFFCURVE",
"827 118 CURVE",
"835 0 LINE",
"1091 0 LINE",
"1091 1074 LINE",
"819 1074 LINE",
"819 350 LINE SMOOTH",
"819 230 OFFCURVE",
"705 182 OFFCURVE",
"606 182 CURVE SMOOTH",
"522 182 OFFCURVE",
"424 223 OFFCURVE",
"424 335 CURVE SMOOTH",
"424 1074 LINE",
"152 1074 LINE",
"152 291 LINE SMOOTH",
"152 110 OFFCURVE",
"279 -13 OFFCURVE"
);
}
);
width = 1247;
}
);
unicode = 0075;
},
{
glyphname = v;
lastChange = "2014-01-28 19:50:35 -0800";
layers = (
{
layerId = "F85E8FEC-B3CD-4A54-BF30-AB1986ECE904";
name = Regular;
paths = (
{
closed = 1;
nodes = (
"475 0 LINE",
"665 0 LINE",
"1040 1060 LINE",
"856 1060 LINE",
"572 200 LINE",
"253 1060 LINE",
"64 1060 LINE"
);
}
);
width = 1104;
},
{
layerId = "C6C96970-2BBD-4A47-8C90-C83F37B7F23D";
name = Bold;
paths = (
{
closed = 1;
nodes = (
"416 0 LINE",
"705 0 LINE",
"1069 1074 LINE",
"812 1074 LINE",
"561 266 LINE",
"305 1074 LINE",
"34 1074 LINE"
);
}
);
width = 1103;
}
);
unicode = 0076;
},
{
glyphname = w;
lastChange = "2014-01-28 19:50:35 -0800";
layers = (
{
anchors = (
{
name = top;
position = "{812, 1060}";
}
);
layerId = "F85E8FEC-B3CD-4A54-BF30-AB1986ECE904";
name = Regular;
paths = (
{
closed = 1;
nodes = (
"357 0 LINE",
"535 0 LINE",
"806 845 LINE",
"1077 0 LINE",
"1252 0 LINE",
"1562 1060 LINE",
"1388 1060 LINE",
"1161 228 LINE",
"895 1060 LINE",
"714 1060 LINE",
"459 228 LINE",
"224 1060 LINE",
"52 1060 LINE"
);
}
);
width = 1614;
},
{
anchors = (
{
name = top;
position = "{834, 1074}";
}
);
layerId = "C6C96970-2BBD-4A47-8C90-C83F37B7F23D";
name = Bold;
paths = (
{
closed = 1;
nodes = (
"343 0 LINE",
"601 0 LINE",
"830 741 LINE",
"1050 0 LINE",
"1316 0 LINE",
"1602 1074 LINE",
"1349 1074 LINE",
"1170 295 LINE",
"938 1074 LINE",
"717 1074 LINE",
"492 304 LINE",
"300 1074 LINE",
"46 1074 LINE"
);
}
);
width = 1648;
}
);
unicode = 0077;
},
{
glyphname = x;
lastChange = "2014-01-28 19:50:35 -0800";
layers = (
{
layerId = "F85E8FEC-B3CD-4A54-BF30-AB1986ECE904";
name = Regular;
paths = (
{
closed = 1;
nodes = (
"64 0 LINE",
"251 0 LINE",
"534 403 LINE",
"817 0 LINE",
"1000 0 LINE",
"626 535 LINE",
"995 1060 LINE",
"814 1060 LINE",
"535 666 LINE",
"259 1060 LINE",
"70 1060 LINE",
"441 533 LINE"
);
}
);
width = 1056;
},
{
layerId = "C6C96970-2BBD-4A47-8C90-C83F37B7F23D";
name = Bold;
paths = (
{
closed = 1;
nodes = (
"36 0 LINE",
"325 0 LINE",
"549 338 LINE",
"775 0 LINE",
"1046 0 LINE",
"684 536 LINE",
"1044 1074 LINE",
"767 1074 LINE",
"544 738 LINE",
"321 1074 LINE",
"37 1074 LINE",
"406 540 LINE"
);
}
);
width = 1082;
}
);
unicode = 0078;
},
{
glyphname = y;
lastChange = "2014-01-28 19:50:35 -0800";
layers = (
{
anchors = (
{
name = top;
position = "{585, 1060}";
}
);
layerId = "F85E8FEC-B3CD-4A54-BF30-AB1986ECE904";
name = Regular;
paths = (
{
closed = 1;
nodes = (
"198 -406 LINE",
"510.396 -406 OFFCURVE",
"600.944 -280 OFFCURVE",
"712 45 CURVE SMOOTH",
"1060 1060 LINE",
"870 1060 LINE",
"599 216 LINE",
"275 1060 LINE",
"76 1060 LINE",
"513 4 LINE",
"461.074 -189 OFFCURVE",
"357.738 -259 OFFCURVE",
"198 -259 CURVE"
);
}
);
width = 1118;
},
{
anchors = (
{
name = top;
position = "{562, 1074}";
}
);
layerId = "C6C96970-2BBD-4A47-8C90-C83F37B7F23D";
name = Bold;
paths = (
{
closed = 1;
nodes = (
"148 -485 LINE",
"478 -444 OFFCURVE",
"606 -248 OFFCURVE",
"741 140 CURVE SMOOTH",
"1067 1074 LINE",
"797 1074 LINE",
"574 353 LINE",
"295 1074 LINE",
"33 1074 LINE",
"437 36 LINE",
"395 -89 OFFCURVE",
"328 -220 OFFCURVE",
"128 -260 CURVE"
);
}
);
width = 1083;
}
);
unicode = 0079;
},
{
glyphname = z;
lastChange = "2014-01-29 03:38:59 -0800";
layers = (
{
anchors = (
{
name = bot;
position = "{523, 0}";
},
{
name = top;
position = "{514, 1060}";
}
);
background = {
paths = (
{
closed = 1;
nodes = (
"140 0 LINE",
"854 0 LINE",
"854 124 LINE",
"335 124 LINE",
"845 945 LINE",
"845 1060 LINE",
"158 1060 LINE",
"158 936 LINE",
"647 936 LINE",
"140 118 LINE"
);
}
);
};
layerId = "F85E8FEC-B3CD-4A54-BF30-AB1986ECE904";
name = Regular;
paths = (
{
closed = 1;
nodes = (
"140 0 LINE",
"854 0 LINE",
"854 132 LINE",
"338 132 LINE",
"845 935 LINE",
"845 1060 LINE",
"158 1060 LINE",
"158 924 LINE",
"641 924 LINE",
"140 126 LINE"
);
}
);
width = 959;
},
{
anchors = (
{
name = bot;
position = "{466, 0}";
},
{
name = top;
position = "{502, 1074}";
}
);
layerId = "C6C96970-2BBD-4A47-8C90-C83F37B7F23D";
name = Bold;
paths = (
{
closed = 1;
nodes = (
"104 0 LINE",
"813 0 LINE",
"813 190 LINE",
"399 190 LINE",
"818 910 LINE",
"818 1074 LINE",
"114 1074 LINE",
"114 888 LINE",
"526 888 LINE",
"104 167 LINE"
);
}
);
width = 906;
}
);
unicode = 007A;
},
{
glyphname = ordfeminine;
lastChange = "2014-01-28 19:50:35 -0800";
layers = (
{
components = (
{
name = a;
transform = "{0.810, 0, 0, 0.860, 0, 0}";
}
);
layerId = "F85E8FEC-B3CD-4A54-BF30-AB1986ECE904";
name = Regular;
width = 1172;
},
{
layerId = "C6C96970-2BBD-4A47-8C90-C83F37B7F23D";
name = Bold;
paths = (
{
closed = 1;
nodes = (
"386 517 LINE",
"513 517 OFFCURVE",
"606 591 OFFCURVE",
"653 656 CURVE",
"684 582 OFFCURVE",
"717 531 OFFCURVE",
"837 531 CURVE SMOOTH",
"922 531 LINE",
"940 701 LINE",
"870 701 OFFCURVE",
"854 728 OFFCURVE",
"854 812 CURVE SMOOTH",
"854 1166 LINE SMOOTH",
"854 1356 OFFCURVE",
"765 1478 OFFCURVE",
"506 1478 CURVE SMOOTH",
"269 1478 OFFCURVE",
"161 1363 OFFCURVE",
"161 1185 CURVE SMOOTH",
"161 1158 LINE",
"366 1158 LINE",
"366 1194 LINE SMOOTH",
"366 1265 OFFCURVE",
"391 1316 OFFCURVE",
"501 1316 CURVE SMOOTH",
"599 1316 OFFCURVE",
"634 1278 OFFCURVE",
"634 1204 CURVE",
"633 1088 OFFCURVE",
"565 1087 OFFCURVE",
"409 1037 CURVE SMOOTH",
"164 959 OFFCURVE",
"130 897 OFFCURVE",
"134 767 CURVE SMOOTH",
"138 615 OFFCURVE",
"236 518 OFFCURVE",
"384 518 CURVE"
);
},
{
closed = 1;
nodes = (
"458 684 LINE SMOOTH",
"385 684 OFFCURVE",
"346 724 OFFCURVE",
"344 796 CURVE SMOOTH",
"342 848 OFFCURVE",
"370 896 OFFCURVE",
"463 924 CURVE SMOOTH",
"536 946 OFFCURVE",
"606 976 OFFCURVE",
"633 1002 CURVE",
"633 770 LINE",
"593 706 OFFCURVE",
"512 684 OFFCURVE",
"459 684 CURVE SMOOTH"
);
}
);
width = 1024;
}
);
unicode = 00AA;
userData = {
com.typemytype.robofont.layerData = {
};
};
},
{
glyphname = ordmasculine;
lastChange = "2014-01-28 19:50:35 -0800";
layers = (
{
components = (
{
name = o;
transform = "{0.810, 0, 0, 0.860, 0, 0}";
}
);
layerId = "F85E8FEC-B3CD-4A54-BF30-AB1986ECE904";
name = Regular;
width = 1174;
},
{
layerId = "C6C96970-2BBD-4A47-8C90-C83F37B7F23D";
name = Bold;
paths = (
{
closed = 1;
nodes = (
"509 675 LINE SMOOTH",
"408 675 OFFCURVE",
"352 708 OFFCURVE",
"352 802 CURVE SMOOTH",
"352 1187 LINE SMOOTH",
"352 1281 OFFCURVE",
"414 1314 OFFCURVE",
"510 1314 CURVE SMOOTH",
"610 1314 OFFCURVE",
"667 1281 OFFCURVE",
"667 1187 CURVE SMOOTH",
"667 802 LINE SMOOTH",
"667 708 OFFCURVE",
"605 675 OFFCURVE",
"511 675 CURVE SMOOTH"
);
},
{
closed = 1;
nodes = (
"513 512 CURVE SMOOTH",
"794.448 512.546 OFFCURVE",
"888 628 OFFCURVE",
"888 811 CURVE SMOOTH",
"888 1175 LINE SMOOTH",
"888 1363 OFFCURVE",
"749 1475 OFFCURVE",
"512 1475 CURVE SMOOTH",
"273 1475 OFFCURVE",
"136 1363 OFFCURVE",
"136 1175 CURVE SMOOTH",
"136 811 LINE SMOOTH",
"136 627 OFFCURVE",
"238 512 OFFCURVE"
);
}
);
width = 1024;
}
);
unicode = 00BA;
},
{
glyphname = Delta;
lastChange = "2014-01-28 20:52:31 -0800";
layers = (
{
layerId = "F85E8FEC-B3CD-4A54-BF30-AB1986ECE904";
name = Regular;
paths = (
{
closed = 1;
nodes = (
"161 0 LINE",
"1260 0 LINE",
"802 1446 LINE",
"625 1446 LINE"
);
},
{
closed = 1;
nodes = (
"392 143 LINE",
"719 1196 LINE",
"1036 143 LINE"
);
}
);
width = 1428;
},
{
layerId = "C6C96970-2BBD-4A47-8C90-C83F37B7F23D";
name = Bold;
paths = (
{
closed = 1;
nodes = (
"108 0 LINE",
"1309 0 LINE",
"831 1476 LINE",
"614 1476 LINE"
);
},
{
closed = 1;
nodes = (
"379 198 LINE",
"688 1141 LINE",
"965 198 LINE"
);
}
);
width = 1419;
}
);
unicode = 0394;
},
{
glyphname = Sigma;
lastChange = "2014-01-28 21:02:39 -0800";
layers = (
{
layerId = "F85E8FEC-B3CD-4A54-BF30-AB1986ECE904";
name = Regular;
paths = (
{
closed = 1;
nodes = (
"1076 0 LINE",
"1076 162 LINE",
"321 162 LINE",
"777 738 LINE",
"777 807 LINE",
"317 1286 LINE",
"1076 1286 LINE",
"1076 1446 LINE",
"112 1446 LINE",
"112 1298 LINE",
"597 762 LINE",
"112 155 LINE",
"112 0 LINE"
);
}
);
width = 1156;
},
{
layerId = "C6C96970-2BBD-4A47-8C90-C83F37B7F23D";
name = Bold;
paths = (
{
closed = 1;
nodes = (
"1090 0 LINE",
"1090 226 LINE",
"446 226 LINE",
"873 734 LINE",
"873 812 LINE",
"449 1252 LINE",
"1090 1252 LINE",
"1090 1476 LINE",
"92 1476 LINE",
"92 1291 LINE",
"573 761 LINE",
"92 191 LINE",
"92 0 LINE"
);
}
);
width = 1196;
}
);
unicode = 03A3;
},
{
glyphname = mu;
lastChange = "2014-01-29 04:25:09 -0800";
layers = (
{
anchors = (
{
name = ogonek;
position = "{957, 0}";
},
{
name = top;
position = "{622, 1060}";
}
);
layerId = "F85E8FEC-B3CD-4A54-BF30-AB1986ECE904";
name = Regular;
paths = (
{
closed = 1;
nodes = (
"848 1060 LINE",
"848 309 LINE SMOOTH",
"848 220 OFFCURVE",
"760 122 OFFCURVE",
"576 122 CURVE SMOOTH",
"445 122 OFFCURVE",
"362 184 OFFCURVE",
"362 289 CURVE SMOOTH",
"362 1060 LINE",
"174 1060 LINE",
"174 -383 LINE",
"362 -383 LINE",
"362 6.7051 LINE",
"410.409 -12 OFFCURVE",
"469.069 -22 OFFCURVE",
"539 -22 CURVE SMOOTH",
"693 -22 OFFCURVE",
"794 38 OFFCURVE",
"848 133 CURVE",
"868 0 LINE",
"1036 0 LINE",
"1036 1060 LINE"
);
}
);
width = 1224;
},
{
layerId = "C6C96970-2BBD-4A47-8C90-C83F37B7F23D";
name = Bold;
paths = (
{
closed = 1;
nodes = (
"148 -236 LINE",
"400 -236 LINE",
"400 2 LINE",
"456 -12 OFFCURVE",
"507 -19 OFFCURVE",
"552 -19 CURVE SMOOTH",
"688 -19 OFFCURVE",
"777 41 OFFCURVE",
"815 135 CURVE",
"821 0 LINE",
"1088 0 LINE",
"1088 1074 LINE",
"815 1074 LINE",
"815 317 LINE SMOOTH",
"815 217 OFFCURVE",
"701 166 OFFCURVE",
"602 166 CURVE SMOOTH",
"518 166 OFFCURVE",
"420 196 OFFCURVE",
"420 308 CURVE SMOOTH",
"420 1074 LINE",
"148 1074 LINE"
);
}
);
width = 1246;
}
);
unicode = 03BC;
},
{
glyphname = pi;
lastChange = "2014-01-28 20:50:18 -0800";
layers = (
{
layerId = "F85E8FEC-B3CD-4A54-BF30-AB1986ECE904";
name = Regular;
paths = (
{
closed = 1;
nodes = (
"31 875 LINE",
"31 875 OFFCURVE",
"138 935 OFFCURVE",
"251 935 CURVE",
"251 0 LINE",
"439 0 LINE",
"439 935 LINE",
"745 935 LINE",
"745 267 LINE SMOOTH",
"745 31 OFFCURVE",
"839 -21 OFFCURVE",
"1044 -22 CURVE",
"1092 124 LINE",
"956 154 OFFCURVE",
"933 167 OFFCURVE",
"933 333 CURVE SMOOTH",
"933 935 LINE",
"1115 935 LINE",
"1115 1060 LINE",
"218 1060 LINE SMOOTH",
"97 1060 OFFCURVE",
"31 1000 OFFCURVE",
"31 1000 CURVE"
);
}
);
width = 1180;
},
{
background = {
paths = (
{
closed = 1;
nodes = (
"73 875 LINE",
"73 875 OFFCURVE",
"180 935 OFFCURVE",
"293 935 CURVE",
"293 0 LINE",
"481 0 LINE",
"481 935 LINE",
"787 935 LINE",
"787 267 LINE SMOOTH",
"787 31 OFFCURVE",
"881 -21 OFFCURVE",
"1086 -22 CURVE",
"1134 124 LINE",
"998 154 OFFCURVE",
"975 167 OFFCURVE",
"975 333 CURVE SMOOTH",
"975 935 LINE",
"1157 935 LINE",
"1157 1060 LINE",
"260 1060 LINE SMOOTH",
"139 1060 OFFCURVE",
"73 1000 OFFCURVE",
"73 1000 CURVE"
);
}
);
};
layerId = "C6C96970-2BBD-4A47-8C90-C83F37B7F23D";
name = Bold;
paths = (
{
closed = 1;
nodes = (
"134 1074 OFFCURVE",
"75 1032 OFFCURVE",
"36 986 CURVE",
"36 801 LINE",
"95 845 OFFCURVE",
"131 881 OFFCURVE",
"238 891 CURVE",
"238 0 LINE",
"490 0 LINE",
"490 893 LINE",
"755 893 LINE",
"755 297 LINE",
"755 32 OFFCURVE",
"876 -23 OFFCURVE",
"1110 -20 CURVE",
"1155 156 LINE",
"1027 181 OFFCURVE",
"1007 184 OFFCURVE",
"1007 343 CURVE",
"1007 893 LINE",
"1189 893 LINE",
"1189 1074 LINE",
"237 1074 LINE"
);
}
);
width = 1257;
}
);
unicode = 03C0;
},
{
glyphname = zero;
lastChange = "2014-01-29 04:26:55 -0800";
layers = (
{
guideLines = (
{
position = "{334, 819}";
}
);
layerId = "F85E8FEC-B3CD-4A54-BF30-AB1986ECE904";
name = Regular;
paths = (
{
closed = 1;
nodes = (
"149 1468 OFFCURVE",
"132 1096 OFFCURVE",
"132 790 CURVE SMOOTH",
"132 636 LINE SMOOTH",
"132 335 OFFCURVE",
"151 -22 OFFCURVE",
"634 -22 CURVE SMOOTH",
"1117 -22 OFFCURVE",
"1136 335 OFFCURVE",
"1136 636 CURVE SMOOTH",
"1136 790 LINE SMOOTH",
"1136 1096 OFFCURVE",
"1119 1468 OFFCURVE",
"634 1468 CURVE SMOOTH"
);
},
{
closed = 1;
nodes = (
"934 619 LINE SMOOTH",
"934 363 OFFCURVE",
"920 140 OFFCURVE",
"634 140 CURVE SMOOTH",
"348 140 OFFCURVE",
"334 363 OFFCURVE",
"334 619 CURVE SMOOTH",
"334 816 LINE SMOOTH",
"334 1073 OFFCURVE",
"350 1306 OFFCURVE",
"634 1306 CURVE SMOOTH",
"918 1306 OFFCURVE",
"934 1073 OFFCURVE",
"934 816 CURVE SMOOTH"
);
}
);
width = 1250;
},
{
layerId = "C6C96970-2BBD-4A47-8C90-C83F37B7F23D";
name = Bold;
paths = (
{
closed = 1;
nodes = (
"719 198 CURVE SMOOTH",
"508 198 OFFCURVE",
"450 364 OFFCURVE",
"450 493 CURVE SMOOTH",
"450 979 LINE SMOOTH",
"450 1109 OFFCURVE",
"499 1277 OFFCURVE",
"719 1277 CURVE SMOOTH",
"937 1277 OFFCURVE",
"982 1109 OFFCURVE",
"982 979 CURVE SMOOTH",
"982 493 LINE SMOOTH",
"982 364 OFFCURVE",
"931 198 OFFCURVE"
);
},
{
closed = 1;
nodes = (
"719 -27 CURVE SMOOTH",
"1111 -27 OFFCURVE",
"1270 238 OFFCURVE",
"1270 502 CURVE SMOOTH",
"1270 967 LINE SMOOTH",
"1270 1239 OFFCURVE",
"1119 1503 OFFCURVE",
"719 1503 CURVE SMOOTH",
"312 1503 OFFCURVE",
"150 1243 OFFCURVE",
"150 971 CURVE SMOOTH",
"150 498 LINE SMOOTH",
"150 231 OFFCURVE",
"318 -27 OFFCURVE"
);
}
);
width = 1420;
}
);
unicode = 0030;
},
{
glyphname = one;
lastChange = "2014-01-28 19:50:35 -0800";
layers = (
{
layerId = "F85E8FEC-B3CD-4A54-BF30-AB1986ECE904";
name = Regular;
paths = (
{
closed = 1;
nodes = (
"206 0 LINE",
"1162 0 LINE",
"1162 155 LINE",
"808 155 LINE",
"808 1446 LINE",
"644 1446 LINE",
"215 1396 LINE",
"233 1237 LINE",
"607 1277 LINE",
"607 155 LINE",
"206 155 LINE"
);
}
);
width = 1250;
},
{
layerId = "C6C96970-2BBD-4A47-8C90-C83F37B7F23D";
name = Bold;
paths = (
{
closed = 1;
nodes = (
"203 0 LINE",
"1311 0 LINE",
"1311 209 LINE",
"932 209 LINE",
"932 1476 LINE",
"727 1476 LINE",
"199 1404 LINE",
"225 1187 LINE",
"635 1241 LINE",
"635 209 LINE",
"203 209 LINE"
);
}
);
width = 1420;
}
);
unicode = 0031;
},
{
glyphname = two;
lastChange = "2014-01-28 19:50:35 -0800";
layers = (
{
layerId = "F85E8FEC-B3CD-4A54-BF30-AB1986ECE904";
name = Regular;
paths = (
{
closed = 1;
nodes = (
"231 0 LINE",
"1087 0 LINE",
"1087 156 LINE",
"441 156 LINE",
"842 581 LINE SMOOTH",
"988 735 OFFCURVE",
"1095 834 OFFCURVE",
"1095 1059 CURVE SMOOTH",
"1095 1289 OFFCURVE",
"950 1468 OFFCURVE",
"639 1468 CURVE SMOOTH",
"347 1468 OFFCURVE",
"164 1342 OFFCURVE",
"164 1024 CURVE",
"365 1024 LINE",
"365 1259 OFFCURVE",
"443 1306 OFFCURVE",
"654 1306 CURVE SMOOTH",
"831.607 1306 OFFCURVE",
"905.04 1241.74 OFFCURVE",
"905.04 1056.55 CURVE SMOOTH",
"905.04 911.579 OFFCURVE",
"845.622 846.842 OFFCURVE",
"700 689 CURVE SMOOTH",
"212 158 LINE"
);
}
);
width = 1250;
},
{
layerId = "C6C96970-2BBD-4A47-8C90-C83F37B7F23D";
name = Bold;
paths = (
{
closed = 1;
nodes = (
"245 0 LINE",
"1218 0 LINE",
"1218 227 LINE",
"566 227 LINE",
"936 544 LINE SMOOTH",
"1137 716 OFFCURVE",
"1243 850 OFFCURVE",
"1243 1067 CURVE SMOOTH",
"1243 1310 OFFCURVE",
"1093 1503 OFFCURVE",
"714 1503 CURVE SMOOTH",
"315 1503 OFFCURVE",
"162 1344 OFFCURVE",
"162 992 CURVE",
"467 992 LINE",
"467 1207 OFFCURVE",
"537 1279 OFFCURVE",
"727 1279 CURVE SMOOTH",
"892 1279 OFFCURVE",
"956 1202 OFFCURVE",
"955 1065 CURVE SMOOTH",
"955 938 OFFCURVE",
"911 859 OFFCURVE",
"756 719 CURVE SMOOTH",
"209 226 LINE"
);
}
);
width = 1420;
}
);
unicode = 0032;
},
{
glyphname = three;
lastChange = "2014-01-28 19:50:35 -0800";
layers = (
{
layerId = "F85E8FEC-B3CD-4A54-BF30-AB1986ECE904";
name = Regular;
paths = (
{
closed = 1;
nodes = (
"679 -22 CURVE SMOOTH",
"963 -22 OFFCURVE",
"1126 122 OFFCURVE",
"1126 398 CURVE SMOOTH",
"1126 642 OFFCURVE",
"1030 734 OFFCURVE",
"865 768 CURVE",
"1033 795 OFFCURVE",
"1097 901 OFFCURVE",
"1097 1091 CURVE SMOOTH",
"1097 1354 OFFCURVE",
"924 1468 OFFCURVE",
"675 1468 CURVE SMOOTH",
"418 1468 OFFCURVE",
"218 1393 OFFCURVE",
"218 1025 CURVE",
"410 1025 LINE",
"410 1273 OFFCURVE",
"498 1306 OFFCURVE",
"676 1306 CURVE SMOOTH",
"848 1306 OFFCURVE",
"909 1224 OFFCURVE",
"909 1088 CURVE SMOOTH",
"909 924 OFFCURVE",
"896 840 OFFCURVE",
"587 840 CURVE",
"587 691 LINE",
"887 691 OFFCURVE",
"935 622 OFFCURVE",
"935 399 CURVE SMOOTH",
"935 230 OFFCURVE",
"863 140 OFFCURVE",
"690 140 CURVE SMOOTH",
"491 140 OFFCURVE",
"416 189 OFFCURVE",
"400 431 CURVE",
"208 431 LINE",
"242 91 OFFCURVE",
"357 -22 OFFCURVE"
);
}
);
width = 1250;
},
{
layerId = "C6C96970-2BBD-4A47-8C90-C83F37B7F23D";
name = Bold;
paths = (
{
closed = 1;
nodes = (
"720 -27 CURVE SMOOTH",
"1107 -27 OFFCURVE",
"1260 167 OFFCURVE",
"1260 426 CURVE SMOOTH",
"1260 593 OFFCURVE",
"1202 732 OFFCURVE",
"1023 780 CURVE",
"1212 820 OFFCURVE",
"1247 962 OFFCURVE",
"1247 1101 CURVE SMOOTH",
"1247 1357 OFFCURVE",
"1030 1503 OFFCURVE",
"714 1503 CURVE SMOOTH",
"394 1503 OFFCURVE",
"190 1387 OFFCURVE",
"188 1033 CURVE",
"456 1033 LINE",
"455 1218 OFFCURVE",
"517 1279 OFFCURVE",
"717 1279 CURVE SMOOTH",
"910 1279 OFFCURVE",
"970 1210 OFFCURVE",
"970 1087 CURVE SMOOTH",
"970 942 OFFCURVE",
"942 877 OFFCURVE",
"654 877 CURVE",
"654 678 LINE",
"912 678 OFFCURVE",
"978 621 OFFCURVE",
"978 439 CURVE SMOOTH",
"978 281 OFFCURVE",
"902 198 OFFCURVE",
"723 198 CURVE SMOOTH",
"531 198 OFFCURVE",
"453 251 OFFCURVE",
"450 436 CURVE",
"182 436 LINE",
"190 146 OFFCURVE",
"343 -27 OFFCURVE"
);
}
);
width = 1420;
}
);
unicode = 0033;
},
{
glyphname = four;
lastChange = "2014-01-28 19:50:35 -0800";
layers = (
{
layerId = "F85E8FEC-B3CD-4A54-BF30-AB1986ECE904";
name = Regular;
paths = (
{
closed = 1;
nodes = (
"783 0 LINE",
"950 0 LINE",
"950 351 LINE",
"1162 351 LINE",
"1162 506 LINE",
"950 506 LINE",
"950 837 LINE",
"783 837 LINE",
"783 506 LINE",
"367 506 LINE",
"881 1446 LINE",
"672 1446 LINE",
"143 508 LINE",
"143 351 LINE",
"783 351 LINE"
);
}
);
width = 1250;
},
{
layerId = "C6C96970-2BBD-4A47-8C90-C83F37B7F23D";
name = Bold;
paths = (
{
closed = 1;
nodes = (
"839 0 LINE",
"1076 0 LINE",
"1076 282 LINE",
"1296 282 LINE",
"1296 528 LINE",
"1076 528 LINE",
"1076 862 LINE",
"839 862 LINE",
"839 528 LINE",
"494 528 LINE",
"924 1476 LINE",
"619 1476 LINE",
"170 531 LINE",
"170 282 LINE",
"839 282 LINE"
);
}
);
width = 1420;
}
);
unicode = 0034;
},
{
glyphname = five;
lastChange = "2014-01-28 19:50:35 -0800";
layers = (
{
layerId = "F85E8FEC-B3CD-4A54-BF30-AB1986ECE904";
name = Regular;
paths = (
{
closed = 1;
nodes = (
"632 -22 CURVE SMOOTH",
"924 -22 OFFCURVE",
"1117 169 OFFCURVE",
"1117 449 CURVE SMOOTH",
"1117 734 OFFCURVE",
"968 911 OFFCURVE",
"669 911 CURVE SMOOTH",
"568 911 OFFCURVE",
"469 877 OFFCURVE",
"406 819 CURVE",
"448 1281 LINE",
"1024 1281 LINE",
"1024 1446 LINE",
"287 1446 LINE",
"236 712 LINE",
"382 652 LINE",
"485 727 OFFCURVE",
"546 762 OFFCURVE",
"645 762 CURVE SMOOTH",
"845.266 762 OFFCURVE",
"928.1 633.091 OFFCURVE",
"928.1 439.094 CURVE SMOOTH",
"928.1 246.353 OFFCURVE",
"812.79 140 OFFCURVE",
"624 140 CURVE SMOOTH",
"420 140 OFFCURVE",
"330 191 OFFCURVE",
"226 260 CURVE",
"173 107 LINE",
"277 46 OFFCURVE",
"408 -22 OFFCURVE"
);
}
);
width = 1250;
},
{
layerId = "C6C96970-2BBD-4A47-8C90-C83F37B7F23D";
name = Bold;
paths = (
{
closed = 1;
nodes = (
"726 -27 CURVE SMOOTH",
"1069 -27 OFFCURVE",
"1283 172 OFFCURVE",
"1283 467 CURVE SMOOTH",
"1283 736 OFFCURVE",
"1102 950 OFFCURVE",
"804 950 CURVE SMOOTH",
"705 950 OFFCURVE",
"576 928 OFFCURVE",
"511 860 CURVE",
"552 1230 LINE",
"1170 1230 LINE",
"1170 1476 LINE",
"328 1476 LINE",
"247 704 LINE",
"461 597 LINE",
"554 685 OFFCURVE",
"671 700 OFFCURVE",
"751 700 CURVE SMOOTH",
"888 700 OFFCURVE",
"993 611 OFFCURVE",
"993 466 CURVE SMOOTH",
"993 466 OFFCURVE",
"993 465 OFFCURVE",
"993 465 CURVE SMOOTH",
"992 267 OFFCURVE",
"874 196 OFFCURVE",
"710 196 CURVE SMOOTH",
"599 196 OFFCURVE",
"438 220 OFFCURVE",
"274 318 CURVE",
"195 119 LINE",
"280 57 OFFCURVE",
"499 -27 OFFCURVE"
);
}
);
width = 1420;
}
);
unicode = 0035;
},
{
glyphname = six;
lastChange = "2014-01-28 19:50:35 -0800";
layers = (
{
layerId = "F85E8FEC-B3CD-4A54-BF30-AB1986ECE904";
name = Regular;
paths = (
{
closed = 1;
nodes = (
"647 -22 CURVE SMOOTH",
"923 -22 OFFCURVE",
"1132 104 OFFCURVE",
"1132 422 CURVE SMOOTH",
"1132 752 OFFCURVE",
"950 878 OFFCURVE",
"654 878 CURVE SMOOTH",
"594 878 OFFCURVE",
"519 860 OFFCURVE",
"476 841 CURVE",
"833 1446 LINE",
"633 1446 LINE",
"319 897 LINE",
"225 728 OFFCURVE",
"178 568 OFFCURVE",
"178 426 CURVE SMOOTH",
"178 106 OFFCURVE",
"371 -22 OFFCURVE"
);
},
{
closed = 1;
nodes = (
"650 140 CURVE SMOOTH",
"469 140 OFFCURVE",
"365 197 OFFCURVE",
"365 425 CURVE SMOOTH",
"365 646 OFFCURVE",
"469 715 OFFCURVE",
"650 715 CURVE SMOOTH",
"829 715 OFFCURVE",
"945 668 OFFCURVE",
"945 422 CURVE SMOOTH",
"945 197 OFFCURVE",
"830 140 OFFCURVE"
);
}
);
width = 1250;
},
{
layerId = "C6C96970-2BBD-4A47-8C90-C83F37B7F23D";
name = Bold;
paths = (
{
closed = 1;
nodes = (
"737 -26 CURVE SMOOTH",
"1097 -26 OFFCURVE",
"1278 101 OFFCURVE",
"1278 443 CURVE SMOOTH",
"1278 801 OFFCURVE",
"1107 930 OFFCURVE",
"793 930 CURVE SMOOTH",
"763 930 OFFCURVE",
"673 915 OFFCURVE",
"637 904 CURVE",
"959 1477 LINE",
"639 1477 LINE",
"349 965 LINE SMOOTH",
"271 816 OFFCURVE",
"214 647 OFFCURVE",
"214 456 CURVE SMOOTH",
"214 120 OFFCURVE",
"371 -26 OFFCURVE"
);
},
{
closed = 1;
nodes = (
"751 193 CURVE SMOOTH",
"572 193 OFFCURVE",
"498 289 OFFCURVE",
"498 452 CURVE SMOOTH",
"498 623 OFFCURVE",
"572 720 OFFCURVE",
"747 720 CURVE SMOOTH",
"939 720 OFFCURVE",
"1005 617 OFFCURVE",
"1005 454 CURVE SMOOTH",
"1005 295 OFFCURVE",
"937 193 OFFCURVE"
);
}
);
width = 1420;
}
);
unicode = 0036;
},
{
glyphname = seven;
lastChange = "2014-01-28 19:50:35 -0800";
layers = (
{
layerId = "F85E8FEC-B3CD-4A54-BF30-AB1986ECE904";
name = Regular;
paths = (
{
closed = 1;
nodes = (
"369 0 LINE",
"580 0 LINE",
"1070 1289 LINE",
"1070 1446 LINE",
"189 1446 LINE",
"189 1291 LINE",
"869 1291 LINE"
);
}
);
width = 1250;
},
{
layerId = "C6C96970-2BBD-4A47-8C90-C83F37B7F23D";
name = Bold;
paths = (
{
closed = 1;
nodes = (
"360 0 LINE",
"674 0 LINE",
"1228 1270 LINE",
"1228 1476 LINE",
"230 1476 LINE",
"230 1244 LINE",
"904 1244 LINE"
);
}
);
width = 1420;
}
);
unicode = 0037;
},
{
glyphname = eight;
lastChange = "2014-01-28 19:50:35 -0800";
layers = (
{
layerId = "F85E8FEC-B3CD-4A54-BF30-AB1986ECE904";
name = Regular;
paths = (
{
closed = 1;
nodes = (
"621 -22 CURVE SMOOTH",
"921 -22 OFFCURVE",
"1118 103 OFFCURVE",
"1118 367 CURVE SMOOTH",
"1118 580 OFFCURVE",
"969 703 OFFCURVE",
"811 773 CURVE",
"962 842 OFFCURVE",
"1090 922 OFFCURVE",
"1090 1108 CURVE SMOOTH",
"1090 1375 OFFCURVE",
"878 1468 OFFCURVE",
"626 1468 CURVE SMOOTH",
"371 1468 OFFCURVE",
"160 1375 OFFCURVE",
"160 1108 CURVE SMOOTH",
"160 922 OFFCURVE",
"287 842 OFFCURVE",
"438 773 CURVE",
"280 703 OFFCURVE",
"132 580 OFFCURVE",
"132 367 CURVE SMOOTH",
"132 103 OFFCURVE",
"327 -22 OFFCURVE"
);
},
{
closed = 1;
nodes = (
"626 140 CURVE SMOOTH",
"435 140 OFFCURVE",
"323 199 OFFCURVE",
"323 372 CURVE SMOOTH",
"323 529 OFFCURVE",
"462 610 OFFCURVE",
"625 689 CURVE",
"787 610 OFFCURVE",
"927 529 OFFCURVE",
"927 372 CURVE SMOOTH",
"927 199 OFFCURVE",
"814 140 OFFCURVE"
);
},
{
closed = 1;
nodes = (
"625 846 CURVE",
"479 916 OFFCURVE",
"355 977 OFFCURVE",
"355 1107 CURVE SMOOTH",
"355 1230 OFFCURVE",
"425 1306 OFFCURVE",
"626 1306 CURVE SMOOTH",
"825 1306 OFFCURVE",
"895 1230 OFFCURVE",
"895 1107 CURVE SMOOTH",
"895 977 OFFCURVE",
"771 917 OFFCURVE"
);
}
);
width = 1250;
},
{
layerId = "C6C96970-2BBD-4A47-8C90-C83F37B7F23D";
name = Bold;
paths = (
{
closed = 1;
nodes = (
"707 -26 CURVE SMOOTH",
"1060 -26 OFFCURVE",
"1256 113 OFFCURVE",
"1256 368 CURVE SMOOTH",
"1256 545 OFFCURVE",
"1160 697 OFFCURVE",
"924 783 CURVE",
"1130 848 OFFCURVE",
"1219 989 OFFCURVE",
"1219 1135 CURVE SMOOTH",
"1219 1340 OFFCURVE",
"1081 1503 OFFCURVE",
"709 1503 CURVE SMOOTH",
"340 1503 OFFCURVE",
"191 1342 OFFCURVE",
"191 1141 CURVE SMOOTH",
"191 982 OFFCURVE",
"279 854 OFFCURVE",
"477 783 CURVE",
"281 697 OFFCURVE",
"164 565 OFFCURVE",
"164 366 CURVE SMOOTH",
"164 120 OFFCURVE",
"365 -26 OFFCURVE"
);
},
{
closed = 1;
nodes = (
"709 187 CURVE SMOOTH",
"502 187 OFFCURVE",
"437 276 OFFCURVE",
"437 385 CURVE SMOOTH",
"437 496 OFFCURVE",
"524 586 OFFCURVE",
"708 672 CURVE",
"893 586 OFFCURVE",
"979 496 OFFCURVE",
"979 385 CURVE SMOOTH",
"979 277 OFFCURVE",
"915 187 OFFCURVE"
);
},
{
closed = 1;
nodes = (
"708 876 CURVE",
"539 957 OFFCURVE",
"471 1017 OFFCURVE",
"471 1126 CURVE SMOOTH",
"471 1224 OFFCURVE",
"525 1296 OFFCURVE",
"709 1296 CURVE SMOOTH",
"894 1296 OFFCURVE",
"944 1220 OFFCURVE",
"944 1126 CURVE SMOOTH",
"944 1022 OFFCURVE",
"870 957 OFFCURVE"
);
}
);
width = 1420;
}
);
unicode = 0038;
},
{
glyphname = nine;
lastChange = "2014-01-28 19:50:35 -0800";
layers = (
{
layerId = "F85E8FEC-B3CD-4A54-BF30-AB1986ECE904";
name = Regular;
paths = (
{
closed = 1;
nodes = (
"451 0 LINE",
"651 0 LINE",
"965 549 LINE",
"1059 718 OFFCURVE",
"1106 878 OFFCURVE",
"1106 1020 CURVE SMOOTH",
"1106 1340 OFFCURVE",
"913 1468 OFFCURVE",
"637 1468 CURVE SMOOTH",
"361 1468 OFFCURVE",
"151 1342 OFFCURVE",
"151 1024 CURVE SMOOTH",
"151 694 OFFCURVE",
"334 568 OFFCURVE",
"630 568 CURVE SMOOTH",
"690 568 OFFCURVE",
"765 586 OFFCURVE",
"808 605 CURVE"
);
},
{
closed = 1;
nodes = (
"634 731 CURVE SMOOTH",
"455 731 OFFCURVE",
"338 778 OFFCURVE",
"338 1024 CURVE SMOOTH",
"338 1249 OFFCURVE",
"454 1306 OFFCURVE",
"634 1306 CURVE SMOOTH",
"815 1306 OFFCURVE",
"919 1249 OFFCURVE",
"919 1021 CURVE SMOOTH",
"919 800 OFFCURVE",
"815 731 OFFCURVE"
);
}
);
width = 1250;
},
{
layerId = "C6C96970-2BBD-4A47-8C90-C83F37B7F23D";
name = Bold;
paths = (
{
closed = 1;
nodes = (
"499 0 LINE",
"819 0 LINE",
"1109 528 LINE SMOOTH",
"1187 677 OFFCURVE",
"1244 840 OFFCURVE",
"1244 1031 CURVE SMOOTH",
"1244 1367 OFFCURVE",
"1087 1503 OFFCURVE",
"721 1503 CURVE SMOOTH",
"361 1503 OFFCURVE",
"180 1386 OFFCURVE",
"180 1044 CURVE SMOOTH",
"180 686 OFFCURVE",
"355 569 OFFCURVE",
"669 569 CURVE SMOOTH",
"699 569 OFFCURVE",
"785 578 OFFCURVE",
"821 589 CURVE"
);
},
{
closed = 1;
nodes = (
"720 789 CURVE SMOOTH",
"528 789 OFFCURVE",
"465 851 OFFCURVE",
"465 1044 CURVE SMOOTH",
"465 1233 OFFCURVE",
"531 1289 OFFCURVE",
"717 1289 CURVE SMOOTH",
"896 1289 OFFCURVE",
"952 1239 OFFCURVE",
"952 1046 CURVE SMOOTH",
"952 855 OFFCURVE",
"895 789 OFFCURVE"
);
}
);
width = 1420;
}
);
unicode = 0039;
},
{
glyphname = fraction;
lastChange = "2014-01-28 19:50:35 -0800";
layers = (
{
layerId = "F85E8FEC-B3CD-4A54-BF30-AB1986ECE904";
name = Regular;
paths = (
{
closed = 1;
nodes = (
"16 0 LINE",
"203 0 LINE",
"752 1506 LINE",
"569 1506 LINE"
);
}
);
width = 768;
},
{
layerId = "C6C96970-2BBD-4A47-8C90-C83F37B7F23D";
name = Bold;
paths = (
{
closed = 1;
nodes = (
"55 0 LINE",
"298 0 LINE",
"865 1516 LINE",
"622 1516 LINE"
);
}
);
width = 919;
}
);
unicode = 2044;
},
{
glyphname = onehalf;
lastChange = "2014-01-28 19:50:35 -0800";
layers = (
{
layerId = "F85E8FEC-B3CD-4A54-BF30-AB1986ECE904";
name = Regular;
paths = (
{
closed = 1;
nodes = (
"1371 2 LINE",
"1883 2 LINE",
"1883 101 LINE",
"1512 101 LINE",
"1725 339 LINE SMOOTH",
"1807 431 OFFCURVE",
"1879 495 OFFCURVE",
"1879 625 CURVE SMOOTH",
"1879 758 OFFCURVE",
"1795 867 OFFCURVE",
"1614 867 CURVE SMOOTH",
"1445 867 OFFCURVE",
"1332 789 OFFCURVE",
"1332 605 CURVE",
"1449 605 LINE",
"1449 741 OFFCURVE",
"1494 765 OFFCURVE",
"1616 765 CURVE SMOOTH",
"1718.82 765 OFFCURVE",
"1762.02 719.06 OFFCURVE",
"1762.02 624.28 CURVE SMOOTH",
"1762.02 542.049 OFFCURVE",
"1726.86 502.925 OFFCURVE",
"1643 413 CURVE",
"1360 94 LINE"
);
},
{
closed = 1;
nodes = (
"164 654 LINE",
"800 654 LINE",
"800 755 LINE",
"569 755 LINE",
"569 1505 LINE",
"462 1505 LINE",
"170 1472 LINE",
"182 1368 LINE",
"438 1394 LINE",
"438 755 LINE",
"164 755 LINE"
);
},
{
closed = 1;
nodes = (
"687 0 LINE",
"819 0 LINE",
"1497 1446 LINE",
"1371 1446 LINE"
);
}
);
width = 2047;
},
{
layerId = "C6C96970-2BBD-4A47-8C90-C83F37B7F23D";
name = Bold;
paths = (
{
closed = 1;
nodes = (
"1723 -2 LINE",
"2370 -2 LINE",
"2370 160 LINE",
"1933 160 LINE",
"2166 386 LINE SMOOTH",
"2284 501 OFFCURVE",
"2381 612 OFFCURVE",
"2381 767 CURVE SMOOTH",
"2381 940 OFFCURVE",
"2295 1071 OFFCURVE",
"2025 1071 CURVE SMOOTH",
"1740 1071 OFFCURVE",
"1652 958 OFFCURVE",
"1652 706 CURVE",
"1870 706 LINE",
"1870 860 OFFCURVE",
"1892 911 OFFCURVE",
"2027 911 CURVE SMOOTH",
"2131 911 OFFCURVE",
"2168 863 OFFCURVE",
"2167 765 CURVE",
"2167 675 OFFCURVE",
"2120 606 OFFCURVE",
"2033 518 CURVE SMOOTH",
"1678 159 LINE"
);
},
{
closed = 1;
nodes = (
"131 422 LINE",
"856 422 LINE",
"856 569 LINE",
"610 569 LINE",
"610 1477 LINE",
"464 1477 LINE",
"128 1424 LINE",
"146 1279 LINE",
"398 1318 LINE",
"398 569 LINE",
"130 569 LINE"
);
},
{
closed = 1;
nodes = (
"879 0 LINE",
"1053 0 LINE",
"1694 1505 LINE",
"1520 1505 LINE"
);
}
);
width = 2579;
}
);
unicode = 00BD;
},
{
glyphname = onequarter;
lastChange = "2014-01-28 19:50:35 -0800";
layers = (
{
layerId = "F85E8FEC-B3CD-4A54-BF30-AB1986ECE904";
name = Regular;
paths = (
{
closed = 1;
nodes = (
"1655 0 LINE",
"1768 0 LINE",
"1768 207 LINE",
"1912 207 LINE",
"1912 298 LINE",
"1768 298 LINE",
"1768 533 LINE",
"1655 533 LINE",
"1655 298 LINE",
"1373 298 LINE",
"1721 892 LINE",
"1580 892 LINE",
"1221 299 LINE",
"1221 207 LINE",
"1655 207 LINE"
);
},
{
closed = 1;
nodes = (
"164 654 LINE",
"800 654 LINE",
"800 755 LINE",
"569 755 LINE",
"569 1505 LINE",
"462 1505 LINE",
"170 1472 LINE",
"182 1368 LINE",
"438 1394 LINE",
"438 755 LINE",
"164 755 LINE"
);
},
{
closed = 1;
nodes = (
"687 0 LINE",
"819 0 LINE",
"1497 1446 LINE",
"1371 1446 LINE"
);
}
);
width = 2047;
},
{
layerId = "C6C96970-2BBD-4A47-8C90-C83F37B7F23D";
name = Bold;
paths = (
{
closed = 1;
nodes = (
"1978 0 LINE",
"2137 0 LINE",
"2137 210 LINE",
"2305 210 LINE",
"2305 373 LINE",
"2137 373 LINE",
"2137 615 LINE",
"1978 615 LINE",
"1978 373 LINE",
"1679 373 LINE",
"1948 1074 LINE",
"1757 1074 LINE",
"1477 369 LINE",
"1477 210 LINE",
"1978 210 LINE"
);
},
{
closed = 1;
nodes = (
"131 422 LINE",
"856 422 LINE",
"856 569 LINE",
"610 569 LINE",
"610 1477 LINE",
"464 1477 LINE",
"128 1424 LINE",
"146 1279 LINE",
"398 1318 LINE",
"398 569 LINE",
"130 569 LINE"
);
},
{
closed = 1;
nodes = (
"849 0 LINE",
"1023 0 LINE",
"1664 1505 LINE",
"1490 1505 LINE"
);
}
);
width = 2433.36;
}
);
unicode = 00BC;
},
{
glyphname = threequarters;
lastChange = "2014-01-28 19:50:35 -0800";
layers = (
{
layerId = "F85E8FEC-B3CD-4A54-BF30-AB1986ECE904";
name = Regular;
paths = (
{
closed = 1;
nodes = (
"540 653 CURVE SMOOTH",
"739 653 OFFCURVE",
"847 736 OFFCURVE",
"847 896 CURVE SMOOTH",
"847 1037 OFFCURVE",
"780 1090 OFFCURVE",
"664 1110 CURVE",
"782 1126 OFFCURVE",
"827 1187 OFFCURVE",
"827 1297 CURVE SMOOTH",
"827 1449 OFFCURVE",
"706 1515 OFFCURVE",
"532 1515 CURVE SMOOTH",
"351 1515 OFFCURVE",
"217 1477 OFFCURVE",
"212 1253 CURVE",
"347 1253 LINE",
"346 1408 OFFCURVE",
"408 1421 OFFCURVE",
"533 1421 CURVE SMOOTH",
"654 1421 OFFCURVE",
"695 1374 OFFCURVE",
"695 1295 CURVE SMOOTH",
"695 1200 OFFCURVE",
"685 1151 OFFCURVE",
"469 1151 CURVE",
"469 1066 LINE",
"679 1066 OFFCURVE",
"713 1025 OFFCURVE",
"713 897 CURVE SMOOTH",
"713 799 OFFCURVE",
"669 746 OFFCURVE",
"547 746 CURVE SMOOTH",
"408 746 OFFCURVE",
"342 774 OFFCURVE",
"334 932 CURVE",
"199 932 LINE",
"217 719 OFFCURVE",
"314 653 OFFCURVE"
);
},
{
closed = 1;
nodes = (
"1655 0 LINE",
"1768 0 LINE",
"1768 207 LINE",
"1912 207 LINE",
"1912 298 LINE",
"1768 298 LINE",
"1768 533 LINE",
"1655 533 LINE",
"1655 298 LINE",
"1373 298 LINE",
"1721 892 LINE",
"1580 892 LINE",
"1221 299 LINE",
"1221 207 LINE",
"1655 207 LINE"
);
},
{
closed = 1;
nodes = (
"687 0 LINE",
"819 0 LINE",
"1497 1446 LINE",
"1371 1446 LINE"
);
}
);
width = 2047;
},
{
layerId = "C6C96970-2BBD-4A47-8C90-C83F37B7F23D";
name = Bold;
paths = (
{
closed = 1;
nodes = (
"613 437 CURVE SMOOTH",
"889 437 OFFCURVE",
"967 582 OFFCURVE",
"967 744 CURVE SMOOTH",
"967 863 OFFCURVE",
"931 956 OFFCURVE",
"803 990 CURVE",
"938 1018 OFFCURVE",
"958 1120 OFFCURVE",
"958 1219 CURVE SMOOTH",
"958 1392 OFFCURVE",
"844 1496 OFFCURVE",
"619 1496 CURVE SMOOTH",
"390 1496 OFFCURVE",
"250 1423 OFFCURVE",
"249 1156 CURVE",
"434 1156 LINE",
"433 1310 OFFCURVE",
"468 1344 OFFCURVE",
"611 1344 CURVE SMOOTH",
"735 1344 OFFCURVE",
"773 1297 OFFCURVE",
"773 1209 CURVE SMOOTH",
"773 1106 OFFCURVE",
"767 1059 OFFCURVE",
"562 1059 CURVE",
"562 917 LINE",
"746 917 OFFCURVE",
"779 873 OFFCURVE",
"779 753 CURVE SMOOTH",
"779 651 OFFCURVE",
"754 591 OFFCURVE",
"626 591 CURVE SMOOTH",
"489 591 OFFCURVE",
"432 612 OFFCURVE",
"430 773 CURVE",
"245 773 LINE",
"250 537 OFFCURVE",
"344 437 OFFCURVE"
);
},
{
closed = 1;
nodes = (
"2018 0 LINE",
"2177 0 LINE",
"2177 210 LINE",
"2345 210 LINE",
"2345 373 LINE",
"2177 373 LINE",
"2177 615 LINE",
"2018 615 LINE",
"2018 373 LINE",
"1719 373 LINE",
"1988 1074 LINE",
"1797 1074 LINE",
"1517 369 LINE",
"1517 210 LINE",
"2018 210 LINE"
);
},
{
closed = 1;
nodes = (
"889 0 LINE",
"1063 0 LINE",
"1704 1505 LINE",
"1530 1505 LINE"
);
}
);
width = 2882;
}
);
unicode = 00BE;
},
{
glyphname = onesuperior;
lastChange = "2014-01-28 19:50:35 -0800";
layers = (
{
layerId = "F85E8FEC-B3CD-4A54-BF30-AB1986ECE904";
name = Regular;
paths = (
{
closed = 1;
nodes = (
"207 654 LINE",
"843 654 LINE",
"843 755 LINE",
"612 755 LINE",
"612 1505 LINE",
"505 1505 LINE",
"213 1472 LINE",
"225 1368 LINE",
"481 1394 LINE",
"481 755 LINE",
"207 755 LINE"
);
}
);
width = 1050;
},
{
components = (
{
name = one;
transform = "{1, 0, 0, 1, 0, 0}";
}
);
layerId = "C6C96970-2BBD-4A47-8C90-C83F37B7F23D";
name = Bold;
width = 1420;
}
);
unicode = 00B9;
},
{
glyphname = twosuperior;
lastChange = "2014-01-28 19:50:35 -0800";
layers = (
{
layerId = "F85E8FEC-B3CD-4A54-BF30-AB1986ECE904";
name = Regular;
paths = (
{
closed = 1;
nodes = (
"230 449 LINE",
"815 449 LINE",
"815 549 LINE",
"350 549 LINE",
"670 865 LINE",
"766 963 OFFCURVE",
"820 1042 OFFCURVE",
"820 1199 CURVE SMOOTH",
"820 1359 OFFCURVE",
"703 1484 OFFCURVE",
"516 1484 CURVE SMOOTH",
"340 1484 OFFCURVE",
"190 1396 OFFCURVE",
"190 1174 CURVE",
"311 1174 LINE",
"311 1338 OFFCURVE",
"398 1387 OFFCURVE",
"525 1387 CURVE SMOOTH",
"642.221 1387 OFFCURVE",
"698.885 1307.44 OFFCURVE",
"698.885 1186.44 CURVE SMOOTH",
"698.885 1093.46 OFFCURVE",
"663.204 1039.62 OFFCURVE",
"578 948 CURVE SMOOTH",
"219 559 LINE"
);
}
);
width = 1052;
},
{
components = (
{
name = two;
transform = "{1, 0, 0, 1, 0, 0}";
}
);
layerId = "C6C96970-2BBD-4A47-8C90-C83F37B7F23D";
name = Bold;
width = 1420;
}
);
unicode = 00B2;
},
{
glyphname = threesuperior;
lastChange = "2014-01-28 19:50:35 -0800";
layers = (
{
layerId = "F85E8FEC-B3CD-4A54-BF30-AB1986ECE904";
name = Regular;
paths = (
{
closed = 1;
nodes = (
"590 418 CURVE SMOOTH",
"790 418 OFFCURVE",
"948 510 OFFCURVE",
"948 719 CURVE SMOOTH",
"948 892 OFFCURVE",
"865 948 OFFCURVE",
"735 972 CURVE",
"868 997 OFFCURVE",
"927 1072 OFFCURVE",
"927 1206 CURVE SMOOTH",
"927 1394 OFFCURVE",
"767 1484 OFFCURVE",
"591 1484 CURVE SMOOTH",
"388 1484 OFFCURVE",
"218 1427 OFFCURVE",
"213 1153 CURVE",
"349 1153 LINE",
"348 1342 OFFCURVE",
"443 1378 OFFCURVE",
"590 1378 CURVE SMOOTH",
"740 1378 OFFCURVE",
"794 1300 OFFCURVE",
"794 1204 CURVE SMOOTH",
"794 1102 OFFCURVE",
"788 1020 OFFCURVE",
"499 1020 CURVE",
"499 921 LINE",
"753 921 OFFCURVE",
"813 862 OFFCURVE",
"813 711 CURVE SMOOTH",
"813 584 OFFCURVE",
"719 525 OFFCURVE",
"597 525 CURVE SMOOTH",
"457 525 OFFCURVE",
"344 547 OFFCURVE",
"338 761 CURVE",
"200 761 LINE",
"211 487 OFFCURVE",
"358 418 OFFCURVE"
);
}
);
width = 1173;
},
{
layerId = "C6C96970-2BBD-4A47-8C90-C83F37B7F23D";
name = Bold;
paths = (
{
closed = 1;
nodes = (
"415 500 CURVE SMOOTH",
"575 500 OFFCURVE",
"682 587 OFFCURVE",
"682 749 CURVE SMOOTH",
"682 856 OFFCURVE",
"630 911 OFFCURVE",
"541 938 CURVE",
"632 966 OFFCURVE",
"676 1025 OFFCURVE",
"676 1121 CURVE SMOOTH",
"676 1277 OFFCURVE",
"568 1363 OFFCURVE",
"415 1363 CURVE SMOOTH",
"251 1363 OFFCURVE",
"145 1279 OFFCURVE",
"144 1097 CURVE",
"312 1097 LINE",
"312 1176 OFFCURVE",
"337 1241 OFFCURVE",
"415 1241 CURVE SMOOTH",
"493 1241 OFFCURVE",
"507 1172 OFFCURVE",
"507 1121 CURVE SMOOTH",
"507 1036 OFFCURVE",
"485 999 OFFCURVE",
"342 999 CURVE",
"342 877 LINE",
"475 877 OFFCURVE",
"513 847 OFFCURVE",
"513 747 CURVE SMOOTH",
"513 686 OFFCURVE",
"486 624 OFFCURVE",
"417 624 CURVE SMOOTH",
"342 624 OFFCURVE",
"311 682 OFFCURVE",
"309 770 CURVE",
"140 770 LINE",
"143 587 OFFCURVE",
"241 500 OFFCURVE"
);
}
);
width = 834;
}
);
unicode = 00B3;
},
{
glyphname = foursuperior;
lastChange = "2014-01-28 19:50:35 -0800";
layers = (
{
layerId = "F85E8FEC-B3CD-4A54-BF30-AB1986ECE904";
name = Regular;
paths = (
{
closed = 1;
nodes = (
"689 614 LINE",
"802 614 LINE",
"802 821 LINE",
"946 821 LINE",
"946 912 LINE",
"802 912 LINE",
"802 1147 LINE",
"689 1147 LINE",
"689 912 LINE",
"407 912 LINE",
"755 1506 LINE",
"614 1506 LINE",
"255 913 LINE",
"255 821 LINE",
"689 821 LINE"
);
}
);
width = 1267;
},
{
components = (
{
name = four;
transform = "{1, 0, 0, 1, 0, 0}";
}
);
layerId = "C6C96970-2BBD-4A47-8C90-C83F37B7F23D";
name = Bold;
width = 1420;
}
);
unicode = 2074;
},
{
glyphname = asterisk;
lastChange = "2014-01-28 19:50:35 -0800";
layers = (
{
layerId = "F85E8FEC-B3CD-4A54-BF30-AB1986ECE904";
name = Regular;
paths = (
{
closed = 1;
nodes = (
"423 599 LINE",
"601 599 LINE",
"572 912 LINE",
"819 722 LINE",
"914 875 LINE",
"634 1017 LINE",
"925 1134 LINE",
"844 1295 LINE",
"571 1121 LINE",
"601 1446 LINE",
"423 1446 LINE",
"451 1133 LINE",
"204 1323 LINE",
"109 1170 LINE",
"389 1028 LINE",
"99 911 LINE",
"179 750 LINE",
"452 924 LINE"
);
}
);
width = 1024;
},
{
layerId = "C6C96970-2BBD-4A47-8C90-C83F37B7F23D";
name = Bold;
paths = (
{
closed = 1;
nodes = (
"410 599 LINE",
"588 599 LINE",
"559 912 LINE",
"806 722 LINE",
"901 875 LINE",
"621 1017 LINE",
"912 1134 LINE",
"831 1295 LINE",
"558 1121 LINE",
"588 1446 LINE",
"410 1446 LINE",
"438 1133 LINE",
"191 1323 LINE",
"96 1170 LINE",
"376 1028 LINE",
"86 911 LINE",
"166 750 LINE",
"439 924 LINE"
);
}
);
width = 998;
}
);
unicode = 002A;
},
{
glyphname = backslash;
lastChange = "2014-01-28 19:50:35 -0800";
layers = (
{
layerId = "F85E8FEC-B3CD-4A54-BF30-AB1986ECE904";
name = Regular;
paths = (
{
closed = 1;
nodes = (
"521 0 LINE",
"704 0 LINE",
"251 1506 LINE",
"64 1506 LINE"
);
}
);
width = 768;
},
{
layerId = "C6C96970-2BBD-4A47-8C90-C83F37B7F23D";
name = Bold;
paths = (
{
closed = 1;
nodes = (
"675 0 LINE",
"918 0 LINE",
"349 1516 LINE",
"106 1516 LINE"
);
}
);
width = 1024;
}
);
unicode = 005C;
},
{
glyphname = bullet;
lastChange = "2014-01-28 19:50:35 -0800";
layers = (
{
layerId = "F85E8FEC-B3CD-4A54-BF30-AB1986ECE904";
name = Regular;
paths = (
{
closed = 1;
nodes = (
"486 298 CURVE SMOOTH",
"713 298 OFFCURVE",
"795 405 OFFCURVE",
"795 599 CURVE SMOOTH",
"795 795 OFFCURVE",
"714 901 OFFCURVE",
"487 901 CURVE SMOOTH",
"262 901 OFFCURVE",
"180 795 OFFCURVE",
"180 599 CURVE SMOOTH",
"180 404 OFFCURVE",
"260 298 OFFCURVE"
);
}
);
width = 975;
},
{
layerId = "C6C96970-2BBD-4A47-8C90-C83F37B7F23D";
name = Bold;
paths = (
{
closed = 1;
nodes = (
"511 390 CURVE SMOOTH",
"704 390 OFFCURVE",
"832 524 OFFCURVE",
"832 707 CURVE SMOOTH",
"832 891 OFFCURVE",
"704 1025 OFFCURVE",
"512 1025 CURVE SMOOTH",
"319 1025 OFFCURVE",
"192 891 OFFCURVE",
"192 707 CURVE SMOOTH",
"192 523 OFFCURVE",
"319 390 OFFCURVE"
);
}
);
width = 1024;
}
);
unicode = 2022;
},
{
glyphname = comma;
lastChange = "2014-01-28 19:50:35 -0800";
layers = (
{
layerId = "F85E8FEC-B3CD-4A54-BF30-AB1986ECE904";
name = Regular;
paths = (
{
closed = 1;
nodes = (
"277 -338 LINE",
"335 -284 OFFCURVE",
"449 -141 OFFCURVE",
"449 50 CURVE SMOOTH",
"449 233 LINE",
"192 233 LINE",
"192 0 LINE",
"333 0 LINE",
"333 -132 OFFCURVE",
"243 -239 OFFCURVE",
"196 -294 CURVE"
);
}
);
width = 641;
},
{
layerId = "C6C96970-2BBD-4A47-8C90-C83F37B7F23D";
name = Bold;
paths = (
{
closed = 1;
nodes = (
"349 -389 LINE",
"411 -333 OFFCURVE",
"545 -148 OFFCURVE",
"545 53 CURVE SMOOTH",
"545 276 LINE",
"223 276 LINE",
"223 0 LINE",
"388 0 LINE",
"388 -138 OFFCURVE",
"293 -285 OFFCURVE",
"242 -343 CURVE"
);
}
);
width = 768;
}
);
unicode = 002C;
},
{
glyphname = ellipsis;
lastChange = "2014-01-28 19:50:35 -0800";
layers = (
{
components = (
{
name = period;
transform = "{1, 0, 0, 1, 1256, 0}";
},
{
name = period;
transform = "{1, 0, 0, 1, 628, 0}";
},
{
name = period;
transform = "{1, 0, 0, 1, 0, 0}";
}
);
layerId = "F85E8FEC-B3CD-4A54-BF30-AB1986ECE904";
name = Regular;
width = 1884;
},
{
layerId = "C6C96970-2BBD-4A47-8C90-C83F37B7F23D";
name = Bold;
paths = (
{
closed = 1;
nodes = (
"176 0 LINE",
"474 0 LINE",
"474 284 LINE",
"176 284 LINE"
);
},
{
closed = 1;
nodes = (
"776 0 LINE",
"1074 0 LINE",
"1074 284 LINE",
"776 284 LINE"
);
},
{
closed = 1;
nodes = (
"1376 0 LINE",
"1674 0 LINE",
"1674 284 LINE",
"1376 284 LINE"
);
}
);
width = 1800;
}
);
unicode = 2026;
},
{
glyphname = exclam;
lastChange = "2014-01-28 19:50:35 -0800";
layers = (
{
layerId = "F85E8FEC-B3CD-4A54-BF30-AB1986ECE904";
name = Regular;
paths = (
{
closed = 1;
nodes = (
"280 0 LINE",
"484 0 LINE",
"484 206 LINE",
"280 206 LINE"
);
},
{
closed = 1;
nodes = (
"353 371 CURVE",
"409 371 LINE",
"409 371 OFFCURVE",
"488 1060 OFFCURVE",
"488 1446 CURVE",
"286 1446 LINE",
"286 1060 OFFCURVE",
"353 371 OFFCURVE"
);
}
);
width = 768;
},
{
layerId = "C6C96970-2BBD-4A47-8C90-C83F37B7F23D";
name = Bold;
paths = (
{
closed = 1;
nodes = (
"192 0 LINE",
"442 0 LINE",
"442 245 LINE",
"192 245 LINE"
);
},
{
closed = 1;
nodes = (
"280 410 CURVE",
"356 410 LINE",
"356 410 OFFCURVE",
"456 1359 OFFCURVE",
"456 1477 CURVE",
"197 1477 LINE",
"197 1359 OFFCURVE",
"280 410 OFFCURVE"
);
}
);
width = 648;
}
);
unicode = 0021;
},
{
glyphname = numbersign;
lastChange = "2014-01-28 19:50:35 -0800";
layers = (
{
layerId = "F85E8FEC-B3CD-4A54-BF30-AB1986ECE904";
name = Regular;
paths = (
{
closed = 1;
nodes = (
"180 0 LINE",
"358 0 LINE",
"442 475 LINE",
"740 475 LINE",
"653 0 LINE",
"831 0 LINE",
"915 475 LINE",
"1174 475 LINE",
"1174 594 LINE",
"936 594 LINE",
"992 910 LINE",
"1198 910 LINE",
"1198 1029 LINE",
"1013 1029 LINE",
"1087 1446 LINE",
"917 1446 LINE",
"841 1029 LINE",
"540 1029 LINE",
"614 1446 LINE",
"444 1446 LINE",
"368 1029 LINE",
"110 1029 LINE",
"110 910 LINE",
"346 910 LINE",
"289 594 LINE",
"86 594 LINE",
"86 475 LINE",
"267 475 LINE"
);
},
{
closed = 1;
nodes = (
"463 594 LINE",
"519 910 LINE",
"819 910 LINE",
"762 594 LINE"
);
}
);
width = 1284;
},
{
layerId = "C6C96970-2BBD-4A47-8C90-C83F37B7F23D";
name = Bold;
paths = (
{
closed = 1;
nodes = (
"223 0 LINE",
"429 0 LINE",
"512 478 LINE",
"769 478 LINE",
"683 0 LINE",
"889 0 LINE",
"971 478 LINE",
"1244 478 LINE",
"1244 618 LINE",
"996 618 LINE",
"1044 896 LINE",
"1268 896 LINE",
"1268 1036 LINE",
"1069 1036 LINE",
"1145 1477 LINE",
"947 1477 LINE",
"868 1036 LINE",
"609 1036 LINE",
"685 1477 LINE",
"487 1477 LINE",
"408 1036 LINE",
"128 1036 LINE",
"128 896 LINE",
"384 896 LINE",
"334 618 LINE",
"104 618 LINE",
"104 478 LINE",
"309 478 LINE"
);
},
{
closed = 1;
nodes = (
"536 618 LINE",
"584 896 LINE",
"843 896 LINE",
"793 618 LINE"
);
}
);
width = 1430;
}
);
unicode = 0023;
},
{
glyphname = period;
lastChange = "2014-01-28 19:50:35 -0800";
layers = (
{
layerId = "F85E8FEC-B3CD-4A54-BF30-AB1986ECE904";
name = Regular;
paths = (
{
closed = 1;
nodes = (
"186 0 LINE",
"442 0 LINE",
"442 242 LINE",
"186 242 LINE"
);
}
);
width = 628;
},
{
layerId = "C6C96970-2BBD-4A47-8C90-C83F37B7F23D";
name = Bold;
paths = (
{
closed = 1;
nodes = (
"235 0 LINE",
"533 0 LINE",
"533 284 LINE",
"235 284 LINE"
);
}
);
width = 768;
}
);
unicode = 002E;
},
{
glyphname = periodcentered;
lastChange = "2014-01-29 04:36:00 -0800";
layers = (
{
anchors = (
{
name = _mid;
position = "{105, 714}";
}
);
layerId = "F85E8FEC-B3CD-4A54-BF30-AB1986ECE904";
name = Regular;
paths = (
{
closed = 1;
nodes = (
"429 622 LINE",
"634 622 LINE",
"634 828 LINE",
"429 828 LINE"
);
}
);
width = 734;
},
{
anchors = (
{
name = _mid;
position = "{1, 902}";
}
);
layerId = "C6C96970-2BBD-4A47-8C90-C83F37B7F23D";
name = Bold;
paths = (
{
closed = 1;
nodes = (
"264 780 LINE",
"512 780 LINE",
"512 1025 LINE",
"264 1025 LINE"
);
}
);
width = 512;
}
);
unicode = 00B7;
},
{
glyphname = question;
lastChange = "2014-01-28 19:50:35 -0800";
layers = (
{
layerId = "F85E8FEC-B3CD-4A54-BF30-AB1986ECE904";
name = Regular;
paths = (
{
closed = 1;
nodes = (
"466 431 LINE",
"626 431 LINE",
"834 650 LINE SMOOTH",
"989 814 OFFCURVE",
"1096 931 OFFCURVE",
"1096 1114 CURVE SMOOTH",
"1096 1277 OFFCURVE",
"1005 1468 OFFCURVE",
"657 1468 CURVE SMOOTH",
"316 1468 OFFCURVE",
"179 1374 OFFCURVE",
"179 1071 CURVE SMOOTH",
"179 1039 LINE",
"376 1039 LINE",
"376 1092 LINE SMOOTH",
"376 1225 OFFCURVE",
"441 1306 OFFCURVE",
"657 1306 CURVE SMOOTH",
"836 1306 OFFCURVE",
"883 1222 OFFCURVE",
"883 1103 CURVE SMOOTH",
"883 986 OFFCURVE",
"825 909 OFFCURVE",
"740 795 CURVE SMOOTH"
);
},
{
closed = 1;
nodes = (
"440 0 LINE",
"644 0 LINE",
"644 206 LINE",
"440 206 LINE"
);
}
);
width = 1240;
},
{
layerId = "C6C96970-2BBD-4A47-8C90-C83F37B7F23D";
name = Bold;
paths = (
{
closed = 1;
nodes = (
"445 431 LINE",
"674 431 LINE",
"856 582 LINE SMOOTH",
"1038 733 OFFCURVE",
"1118 862 OFFCURVE",
"1118 1067 CURVE SMOOTH",
"1118 1289 OFFCURVE",
"1047 1501 OFFCURVE",
"619 1501 CURVE SMOOTH",
"186 1501 OFFCURVE",
"130 1309 OFFCURVE",
"130 1036 CURVE SMOOTH",
"130 962 LINE",
"404 962 LINE",
"404 1047 LINE SMOOTH",
"404 1188 OFFCURVE",
"417 1279 OFFCURVE",
"619 1279 CURVE SMOOTH",
"805 1279 OFFCURVE",
"826 1166 OFFCURVE",
"826 1056 CURVE SMOOTH",
"826 936 OFFCURVE",
"789 860 OFFCURVE",
"693 740 CURVE SMOOTH"
);
},
{
closed = 1;
nodes = (
"429 0 LINE",
"678 0 LINE",
"678 245 LINE",
"429 245 LINE"
);
}
);
width = 1244;
}
);
unicode = 003F;
},
{
glyphname = questiondown;
lastChange = "2014-01-28 19:50:35 -0800";
layers = (
{
components = (
{
name = question;
transform = "{-1, 0, 0, -1, 1243, 1266}";
}
);
layerId = "F85E8FEC-B3CD-4A54-BF30-AB1986ECE904";
name = Regular;
width = 1240;
},
{
layerId = "C6C96970-2BBD-4A47-8C90-C83F37B7F23D";
name = Bold;
paths = (
{
closed = 1;
nodes = (
"645 -182 CURVE SMOOTH",
"1078 -182 OFFCURVE",
"1134 10 OFFCURVE",
"1134 283 CURVE SMOOTH",
"1134 357 LINE",
"860 357 LINE",
"860 272 LINE SMOOTH",
"860 131 OFFCURVE",
"847 40 OFFCURVE",
"645 40 CURVE SMOOTH",
"459 40 OFFCURVE",
"438 113 OFFCURVE",
"438 223 CURVE SMOOTH",
"438 343 OFFCURVE",
"483 413 OFFCURVE",
"571 539 CURVE SMOOTH",
"819 888 LINE",
"590 888 LINE",
"408 697 LINE SMOOTH",
"246 525 OFFCURVE",
"146 417 OFFCURVE",
"146 212 CURVE SMOOTH",
"146 -10 OFFCURVE",
"217 -182 OFFCURVE"
);
},
{
closed = 1;
nodes = (
"586 1074 LINE",
"835 1074 LINE",
"835 1319 LINE",
"586 1319 LINE"
);
}
);
width = 1244;
}
);
unicode = 00BF;
},
{
glyphname = quotedbl;
lastChange = "2014-01-28 19:50:35 -0800";
layers = (
{
layerId = "F85E8FEC-B3CD-4A54-BF30-AB1986ECE904";
name = Regular;
paths = (
{
closed = 1;
nodes = (
"220 930 LINE",
"332 930 LINE",
"381 1506 LINE",
"176 1506 LINE"
);
},
{
closed = 1;
nodes = (
"553 930 LINE",
"665 930 LINE",
"714 1506 LINE",
"509 1506 LINE"
);
}
);
width = 890;
},
{
layerId = "C6C96970-2BBD-4A47-8C90-C83F37B7F23D";
name = Bold;
paths = (
{
closed = 1;
nodes = (
"277 872 LINE",
"396 872 LINE",
"451 1516 LINE",
"198 1516 LINE"
);
},
{
closed = 1;
nodes = (
"630 872 LINE",
"749 872 LINE",
"826 1516 LINE",
"572 1516 LINE"
);
}
);
width = 1024;
}
);
unicode = 0022;
},
{
glyphname = quotesingle;
lastChange = "2014-01-28 19:50:35 -0800";
layers = (
{
layerId = "F85E8FEC-B3CD-4A54-BF30-AB1986ECE904";
name = Regular;
paths = (
{
closed = 1;
nodes = (
"223 930 LINE",
"335 930 LINE",
"384 1506 LINE",
"179 1506 LINE"
);
}
);
width = 896;
},
{
layerId = "C6C96970-2BBD-4A47-8C90-C83F37B7F23D";
name = Bold;
paths = (
{
closed = 1;
nodes = (
"337 872 LINE",
"456 872 LINE",
"511 1516 LINE",
"258 1516 LINE"
);
}
);
width = 769;
}
);
unicode = 0027;
},
{
glyphname = slash;
lastChange = "2014-01-28 19:50:35 -0800";
layers = (
{
layerId = "F85E8FEC-B3CD-4A54-BF30-AB1986ECE904";
name = Regular;
paths = (
{
closed = 1;
nodes = (
"64 0 LINE",
"251 0 LINE",
"704 1506 LINE",
"521 1506 LINE"
);
}
);
width = 768;
},
{
layerId = "C6C96970-2BBD-4A47-8C90-C83F37B7F23D";
name = Bold;
paths = (
{
closed = 1;
nodes = (
"106 0 LINE",
"349 0 LINE",
"918 1516 LINE",
"675 1516 LINE"
);
}
);
width = 1024;
}
);
unicode = 002F;
},
{
glyphname = underscore;
lastChange = "2014-01-28 19:50:35 -0800";
layers = (
{
layerId = "F85E8FEC-B3CD-4A54-BF30-AB1986ECE904";
name = Regular;
paths = (
{
closed = 1;
nodes = (
"14 -104 LINE",
"915 -104 LINE",
"915 46 LINE",
"14 46 LINE"
);
}
);
width = 929;
},
{
layerId = "C6C96970-2BBD-4A47-8C90-C83F37B7F23D";
name = Bold;
paths = (
{
closed = 1;
nodes = (
"8 -32 LINE",
"891 -32 LINE",
"891 143 LINE",
"8 143 LINE"
);
}
);
width = 904;
}
);
unicode = 005F;
},
{
glyphname = braceleft;
lastChange = "2014-01-28 19:50:35 -0800";
layers = (
{
layerId = "F85E8FEC-B3CD-4A54-BF30-AB1986ECE904";
name = Regular;
paths = (
{
closed = 1;
nodes = (
"866 -207 CURVE",
"866 -56 LINE",
"583.529 -56 OFFCURVE",
"577.991 2.15571 OFFCURVE",
"577.991 234.652 CURVE SMOOTH",
"577.991 244.141 OFFCURVE",
"578 253.922 OFFCURVE",
"578 264 CURVE SMOOTH",
"578 297 LINE SMOOTH",
"578 469 OFFCURVE",
"548 613 OFFCURVE",
"474 650 CURVE",
"548 686 OFFCURVE",
"578 830 OFFCURVE",
"578 1002 CURVE SMOOTH",
"578 1035 LINE SMOOTH",
"578 1045.08 OFFCURVE",
"577.991 1054.86 OFFCURVE",
"577.991 1064.35 CURVE SMOOTH",
"577.991 1296.84 OFFCURVE",
"583.529 1355 OFFCURVE",
"866 1355 CURVE",
"866 1506 LINE",
"390.798 1506 OFFCURVE",
"385.998 1340.88 OFFCURVE",
"385.998 1046.38 CURVE SMOOTH",
"385.998 1040.31 OFFCURVE",
"386 1034.18 OFFCURVE",
"386 1028 CURVE SMOOTH",
"386 1005 LINE SMOOTH",
"386 738.508 OFFCURVE",
"386 724.821 OFFCURVE",
"221.29 724.821 CURVE SMOOTH",
"202.434 724.821 OFFCURVE",
"181.42 725 OFFCURVE",
"158 725 CURVE",
"158 574 LINE",
"181.42 574 OFFCURVE",
"202.434 574.179 OFFCURVE",
"221.29 574.179 CURVE SMOOTH",
"386 574.179 OFFCURVE",
"386 560.492 OFFCURVE",
"386 294 CURVE SMOOTH",
"386 271 LINE SMOOTH",
"386 264.818 OFFCURVE",
"385.998 258.691 OFFCURVE",
"385.998 252.619 CURVE SMOOTH",
"385.998 -42 OFFCURVE",
"390.798 -207 OFFCURVE"
);
}
);
width = 952;
},
{
layerId = "C6C96970-2BBD-4A47-8C90-C83F37B7F23D";
name = Bold;
paths = (
{
closed = 1;
nodes = (
"846 -128 CURVE",
"846 -128 OFFCURVE",
"847 46 OFFCURVE",
"846 46 CURVE SMOOTH",
"673 46 OFFCURVE",
"659 101 OFFCURVE",
"659 252 CURVE SMOOTH",
"659 369 LINE SMOOTH",
"659 569 OFFCURVE",
"616 680 OFFCURVE",
"498 722 CURVE",
"611 758 OFFCURVE",
"658 896 OFFCURVE",
"658 1080 CURVE SMOOTH",
"658 1210 LINE SMOOTH",
"658 1349 OFFCURVE",
"671 1382 OFFCURVE",
"846 1382 CURVE SMOOTH",
"847 1382 OFFCURVE",
"846 1556 OFFCURVE",
"846 1556 CURVE",
"489 1556 OFFCURVE",
"379 1515 OFFCURVE",
"379 1139 CURVE SMOOTH",
"379 1036 LINE SMOOTH",
"379 873 OFFCURVE",
"335 833 OFFCURVE",
"188 833 CURVE",
"188 595 LINE",
"334 595 OFFCURVE",
"379 572 OFFCURVE",
"379 409 CURVE SMOOTH",
"379 322 LINE SMOOTH",
"379 -11 OFFCURVE",
"471 -128 OFFCURVE"
);
}
);
width = 992;
}
);
unicode = 007B;
},
{
glyphname = braceright;
lastChange = "2014-01-28 19:50:35 -0800";
layers = (
{
layerId = "F85E8FEC-B3CD-4A54-BF30-AB1986ECE904";
name = Regular;
paths = (
{
closed = 1;
nodes = (
"128 -207 LINE",
"603.202 -207 OFFCURVE",
"608.002 -42 OFFCURVE",
"608.002 252.619 CURVE SMOOTH",
"608.002 258.691 OFFCURVE",
"608 264.818 OFFCURVE",
"608 271 CURVE SMOOTH",
"608 294 LINE SMOOTH",
"608 560.492 OFFCURVE",
"608 574.179 OFFCURVE",
"772.71 574.179 CURVE SMOOTH",
"791.566 574.179 OFFCURVE",
"812.58 574 OFFCURVE",
"836 574 CURVE",
"836 725 LINE",
"812.58 725 OFFCURVE",
"791.566 724.821 OFFCURVE",
"772.71 724.821 CURVE SMOOTH",
"608 724.821 OFFCURVE",
"608 738.508 OFFCURVE",
"608 1005 CURVE SMOOTH",
"608 1028 LINE SMOOTH",
"608 1034.18 OFFCURVE",
"608.002 1040.31 OFFCURVE",
"608.002 1046.38 CURVE SMOOTH",
"608.002 1340.88 OFFCURVE",
"603.202 1506 OFFCURVE",
"128 1506 CURVE",
"128 1355 LINE",
"410.471 1355 OFFCURVE",
"416.009 1296.84 OFFCURVE",
"416.009 1064.35 CURVE SMOOTH",
"416.009 1054.86 OFFCURVE",
"416 1045.08 OFFCURVE",
"416 1035 CURVE SMOOTH",
"416 1002 LINE SMOOTH",
"416 830 OFFCURVE",
"446 686 OFFCURVE",
"520 649 CURVE",
"446 613 OFFCURVE",
"416 469 OFFCURVE",
"416 297 CURVE SMOOTH",
"416 264 LINE SMOOTH",
"416 253.922 OFFCURVE",
"416.009 244.141 OFFCURVE",
"416.009 234.652 CURVE SMOOTH",
"416.009 2.15571 OFFCURVE",
"410.471 -56 OFFCURVE",
"128 -56 CURVE"
);
}
);
width = 952;
},
{
layerId = "C6C96970-2BBD-4A47-8C90-C83F37B7F23D";
name = Bold;
paths = (
{
closed = 1;
nodes = (
"175 -117 LINE SMOOTH",
"532 -117 OFFCURVE",
"642 -75 OFFCURVE",
"642 300 CURVE SMOOTH",
"642 404 LINE SMOOTH",
"642 566 OFFCURVE",
"685 606 OFFCURVE",
"832 606 CURVE",
"832 844 LINE",
"686 844 OFFCURVE",
"642 868 OFFCURVE",
"642 1030 CURVE SMOOTH",
"642 1118 LINE SMOOTH",
"642 1451 OFFCURVE",
"550 1567 OFFCURVE",
"175 1567 CURVE",
"175 1567 OFFCURVE",
"174 1393 OFFCURVE",
"175 1393 CURVE SMOOTH",
"348 1393 OFFCURVE",
"362 1339 OFFCURVE",
"362 1187 CURVE SMOOTH",
"362 1071 LINE",
"362 870 OFFCURVE",
"405 760 OFFCURVE",
"523 718 CURVE",
"410 682 OFFCURVE",
"363 543 OFFCURVE",
"363 360 CURVE SMOOTH",
"363 229 LINE",
"363 90 OFFCURVE",
"350 57 OFFCURVE",
"175 57 CURVE SMOOTH",
"174 57 OFFCURVE",
"175 -117 OFFCURVE",
"175 -117 CURVE"
);
}
);
width = 991;
}
);
unicode = 007D;
},
{
glyphname = bracketleft;
lastChange = "2014-01-28 19:50:35 -0800";
layers = (
{
layerId = "F85E8FEC-B3CD-4A54-BF30-AB1986ECE904";
name = Regular;
paths = (
{
closed = 1;
nodes = (
"256 -76 LINE",
"634 -76 LINE",
"634 58 LINE",
"444 58 LINE",
"444 1396 LINE",
"634 1396 LINE",
"634 1529 LINE",
"256 1529 LINE"
);
}
);
width = 768;
},
{
layerId = "C6C96970-2BBD-4A47-8C90-C83F37B7F23D";
name = Bold;
paths = (
{
closed = 1;
nodes = (
"212 -89 LINE",
"694 -89 LINE",
"694 72 LINE",
"485 72 LINE",
"485 1431 LINE",
"694 1431 LINE",
"694 1592 LINE",
"212 1592 LINE"
);
}
);
width = 842;
}
);
unicode = 005B;
},
{
glyphname = bracketright;
lastChange = "2014-01-28 19:50:35 -0800";
layers = (
{
layerId = "F85E8FEC-B3CD-4A54-BF30-AB1986ECE904";
name = Regular;
paths = (
{
closed = 1;
nodes = (
"195 -76 LINE",
"573 -76 LINE",
"573 1529 LINE",
"195 1529 LINE",
"195 1395 LINE",
"385 1395 LINE",
"385 57 LINE",
"195 57 LINE"
);
}
);
width = 768;
},
{
layerId = "C6C96970-2BBD-4A47-8C90-C83F37B7F23D";
name = Bold;
paths = (
{
closed = 1;
nodes = (
"146 -89 LINE",
"628 -89 LINE",
"628 1592 LINE",
"146 1592 LINE",
"146 1431 LINE",
"356 1431 LINE",
"356 72 LINE",
"146 72 LINE"
);
}
);
width = 842;
}
);
unicode = 005D;
},
{
glyphname = parenleft;
lastChange = "2014-01-28 19:50:35 -0800";
layers = (
{
layerId = "F85E8FEC-B3CD-4A54-BF30-AB1986ECE904";
name = Regular;
paths = (
{
closed = 1;
nodes = (
"644 -150 CURVE",
"644 0 LINE",
"366 0 OFFCURVE",
"364 153 OFFCURVE",
"364 409 CURVE SMOOTH",
"364 996 LINE SMOOTH",
"364 1253 OFFCURVE",
"366 1416 OFFCURVE",
"644 1416 CURVE",
"644 1567 LINE",
"174 1567 OFFCURVE",
"172 1265 OFFCURVE",
"172 959 CURVE SMOOTH",
"172 440 LINE SMOOTH",
"172 139 OFFCURVE",
"174 -150 OFFCURVE"
);
}
);
width = 768;
},
{
layerId = "C6C96970-2BBD-4A47-8C90-C83F37B7F23D";
name = Bold;
paths = (
{
closed = 1;
nodes = (
"782 -159 CURVE",
"782 56 LINE",
"574 56 OFFCURVE",
"487 121 OFFCURVE",
"487 390 CURVE SMOOTH",
"487 1020 LINE SMOOTH",
"487 1291 OFFCURVE",
"576 1359 OFFCURVE",
"782 1359 CURVE",
"782 1575 LINE",
"344 1576 OFFCURVE",
"208 1342 OFFCURVE",
"208 986 CURVE SMOOTH",
"208 420 LINE SMOOTH",
"208 67 OFFCURVE",
"345 -160 OFFCURVE"
);
}
);
width = 946;
}
);
unicode = 0028;
},
{
glyphname = parenright;
lastChange = "2014-01-28 19:50:35 -0800";
layers = (
{
layerId = "F85E8FEC-B3CD-4A54-BF30-AB1986ECE904";
name = Regular;
paths = (
{
closed = 1;
nodes = (
"124 -150 LINE",
"594 -150 OFFCURVE",
"596 152 OFFCURVE",
"596 458 CURVE SMOOTH",
"596 977 LINE SMOOTH",
"596 1278 OFFCURVE",
"594 1567 OFFCURVE",
"124 1567 CURVE",
"124 1417 LINE",
"402 1417 OFFCURVE",
"404 1264 OFFCURVE",
"404 1008 CURVE SMOOTH",
"404 421 LINE SMOOTH",
"404 164 OFFCURVE",
"402 1 OFFCURVE",
"124 1 CURVE"
);
}
);
width = 768;
},
{
layerId = "C6C96970-2BBD-4A47-8C90-C83F37B7F23D";
name = Bold;
paths = (
{
closed = 1;
nodes = (
"181 -159 LINE",
"619 -160 OFFCURVE",
"754 74 OFFCURVE",
"754 430 CURVE SMOOTH",
"754 996 LINE SMOOTH",
"754 1349 OFFCURVE",
"618 1576 OFFCURVE",
"181 1575 CURVE",
"181 1359 LINE",
"389 1359 OFFCURVE",
"476 1295 OFFCURVE",
"476 1025 CURVE SMOOTH",
"476 395 LINE SMOOTH",
"476 125 OFFCURVE",
"387 57 OFFCURVE",
"181 57 CURVE"
);
}
);
width = 946;
}
);
unicode = 0029;
},
{
glyphname = emdash;
lastChange = "2014-01-28 19:50:35 -0800";
layers = (
{
layerId = "F85E8FEC-B3CD-4A54-BF30-AB1986ECE904";
name = Regular;
paths = (
{
closed = 1;
nodes = (
"2 402 LINE",
"1098 402 LINE",
"1098 548 LINE",
"2 548 LINE"
);
}
);
width = 1101;
},
{
layerId = "C6C96970-2BBD-4A47-8C90-C83F37B7F23D";
name = Bold;
paths = (
{
closed = 1;
nodes = (
"3 383 LINE",
"957 383 LINE",
"957 556 LINE",
"3 556 LINE"
);
}
);
width = 961;
}
);
unicode = 2014;
},
{
glyphname = endash;
lastChange = "2014-01-28 19:50:35 -0800";
layers = (
{
layerId = "F85E8FEC-B3CD-4A54-BF30-AB1986ECE904";
name = Regular;
paths = (
{
closed = 1;
nodes = (
"2 606 LINE",
"535 606 LINE",
"535 732 LINE",
"2 732 LINE"
);
}
);
width = 539;
},
{
layerId = "C6C96970-2BBD-4A47-8C90-C83F37B7F23D";
name = Bold;
paths = (
{
closed = 1;
nodes = (
"128 446 LINE",
"588 446 LINE",
"588 612 LINE",
"128 612 LINE"
);
}
);
width = 716;
}
);
unicode = 2013;
},
{
glyphname = hyphen;
lastChange = "2014-01-28 19:50:35 -0800";
layers = (
{
anchors = (
{
name = _mid;
position = "{508, 567}";
}
);
layerId = "F85E8FEC-B3CD-4A54-BF30-AB1986ECE904";
name = Regular;
paths = (
{
closed = 1;
nodes = (
"172 499 LINE",
"832 499 LINE",
"832 642 LINE",
"172 642 LINE"
);
}
);
width = 1024;
},
{
anchors = (
{
name = _mid;
position = "{476, 569}";
}
);
layerId = "C6C96970-2BBD-4A47-8C90-C83F37B7F23D";
name = Bold;
paths = (
{
closed = 1;
nodes = (
"132 494 LINE",
"836 494 LINE",
"836 642 LINE",
"132 642 LINE"
);
}
);
width = 968;
}
);
unicode = 002D;
},
{
glyphname = guillemetleft;
lastChange = "2014-01-28 19:50:35 -0800";
layers = (
{
layerId = "F85E8FEC-B3CD-4A54-BF30-AB1986ECE904";
name = Regular;
paths = (
{
closed = 1;
nodes = (
"376 80 LINE",
"516 150 LINE",
"309 530 LINE",
"516 910 LINE",
"369 980 LINE",
"96 530 LINE"
);
},
{
closed = 1;
nodes = (
"790 80 LINE",
"928 150 LINE",
"723 530 LINE",
"928 910 LINE",
"783 980 LINE",
"510 530 LINE"
);
}
);
width = 1054;
},
{
layerId = "C6C96970-2BBD-4A47-8C90-C83F37B7F23D";
name = Bold;
paths = (
{
closed = 1;
nodes = (
"347 80 LINE",
"487 150 LINE",
"280 530 LINE",
"487 910 LINE",
"340 980 LINE",
"67 530 LINE"
);
},
{
closed = 1;
nodes = (
"761 80 LINE",
"899 150 LINE",
"694 530 LINE",
"899 910 LINE",
"754 980 LINE",
"481 530 LINE"
);
}
);
width = 1024;
}
);
unicode = 00AB;
},
{
glyphname = guillemetright;
lastChange = "2014-01-28 19:50:35 -0800";
layers = (
{
layerId = "F85E8FEC-B3CD-4A54-BF30-AB1986ECE904";
name = Regular;
paths = (
{
closed = 1;
nodes = (
"271 80 LINE",
"544 530 LINE",
"264 980 LINE",
"126 910 LINE",
"331 530 LINE",
"126 150 LINE"
);
},
{
closed = 1;
nodes = (
"685 80 LINE",
"958 530 LINE",
"678 980 LINE",
"538 910 LINE",
"745 530 LINE",
"538 150 LINE"
);
}
);
width = 1054;
},
{
layerId = "C6C96970-2BBD-4A47-8C90-C83F37B7F23D";
name = Bold;
paths = (
{
closed = 1;
nodes = (
"299 80 LINE",
"572 530 LINE",
"292 980 LINE",
"154 910 LINE",
"359 530 LINE",
"154 150 LINE"
);
},
{
closed = 1;
nodes = (
"713 80 LINE",
"986 530 LINE",
"706 980 LINE",
"566 910 LINE",
"773 530 LINE",
"566 150 LINE"
);
}
);
width = 1024;
}
);
unicode = 00BB;
},
{
glyphname = guilsinglleft;
lastChange = "2014-01-28 19:50:35 -0800";
layers = (
{
layerId = "F85E8FEC-B3CD-4A54-BF30-AB1986ECE904";
name = Regular;
paths = (
{
closed = 1;
nodes = (
"454 80 LINE",
"594 150 LINE",
"387 530 LINE",
"594 910 LINE",
"447 980 LINE",
"174 530 LINE"
);
}
);
width = 768;
},
{
layerId = "C6C96970-2BBD-4A47-8C90-C83F37B7F23D";
name = Bold;
paths = (
{
closed = 1;
nodes = (
"454 80 LINE",
"594 150 LINE",
"387 530 LINE",
"594 910 LINE",
"447 980 LINE",
"174 530 LINE"
);
}
);
width = 768;
}
);
unicode = 2039;
},
{
glyphname = guilsinglright;
lastChange = "2014-01-28 19:50:35 -0800";
layers = (
{
layerId = "F85E8FEC-B3CD-4A54-BF30-AB1986ECE904";
name = Regular;
paths = (
{
closed = 1;
nodes = (
"327 80 LINE",
"600 530 LINE",
"320 980 LINE",
"180 910 LINE",
"387 530 LINE",
"180 150 LINE"
);
}
);
width = 768;
},
{
layerId = "C6C96970-2BBD-4A47-8C90-C83F37B7F23D";
name = Bold;
paths = (
{
closed = 1;
nodes = (
"327 80 LINE",
"600 530 LINE",
"320 980 LINE",
"180 910 LINE",
"387 530 LINE",
"180 150 LINE"
);
}
);
width = 768;
}
);
unicode = 203A;
},
{
glyphname = quotedblbase;
lastChange = "2014-01-28 19:50:35 -0800";
layers = (
{
components = (
{
name = comma;
transform = "{1, 0, 0, 1, 412, 0}";
},
{
name = comma;
transform = "{1, 0, 0, 1, 0, 0}";
}
);
layerId = "F85E8FEC-B3CD-4A54-BF30-AB1986ECE904";
name = Regular;
width = 1181;
},
{
layerId = "C6C96970-2BBD-4A47-8C90-C83F37B7F23D";
name = Bold;
paths = (
{
closed = 1;
nodes = (
"422 -389 LINE",
"484 -333 OFFCURVE",
"618 -148 OFFCURVE",
"618 53 CURVE SMOOTH",
"618 276 LINE",
"296 276 LINE",
"296 0 LINE",
"461 0 LINE",
"461 -138 OFFCURVE",
"366 -285 OFFCURVE",
"315 -343 CURVE"
);
},
{
closed = 1;
nodes = (
"921 -389 LINE",
"983 -333 OFFCURVE",
"1117 -148 OFFCURVE",
"1117 53 CURVE SMOOTH",
"1117 276 LINE",
"795 276 LINE",
"795 0 LINE",
"960 0 LINE",
"960 -138 OFFCURVE",
"865 -285 OFFCURVE",
"814 -343 CURVE"
);
}
);
width = 1373;
}
);
unicode = 201E;
},
{
glyphname = quotedblleft;
lastChange = "2014-01-28 19:50:35 -0800";
layers = (
{
components = (
{
name = comma;
transform = "{-1, 0, 0, -1, 769, 1130}";
},
{
name = comma;
transform = "{-1, 0, 0, -1, 1181, 1130}";
}
);
layerId = "F85E8FEC-B3CD-4A54-BF30-AB1986ECE904";
name = Regular;
width = 1181;
},
{
layerId = "C6C96970-2BBD-4A47-8C90-C83F37B7F23D";
name = Bold;
paths = (
{
closed = 1;
nodes = (
"256 850 LINE",
"578 850 LINE",
"578 1126 LINE",
"413 1126 LINE",
"413 1264 OFFCURVE",
"508 1411 OFFCURVE",
"559 1469 CURVE",
"452 1515 LINE",
"390 1459 OFFCURVE",
"256 1274 OFFCURVE",
"256 1073 CURVE SMOOTH"
);
},
{
closed = 1;
nodes = (
"732 850 LINE",
"1054 850 LINE",
"1054 1126 LINE",
"889 1126 LINE",
"889 1264 OFFCURVE",
"984 1411 OFFCURVE",
"1035 1469 CURVE",
"928 1515 LINE",
"866 1459 OFFCURVE",
"732 1274 OFFCURVE",
"732 1073 CURVE SMOOTH"
);
}
);
width = 1310;
}
);
unicode = 201C;
},
{
glyphname = quotedblright;
lastChange = "2014-01-28 19:50:35 -0800";
layers = (
{
components = (
{
name = comma;
transform = "{1, 0, 0, 1, 0, 1235}";
},
{
name = comma;
transform = "{1, 0, 0, 1, 412, 1235}";
}
);
layerId = "F85E8FEC-B3CD-4A54-BF30-AB1986ECE904";
name = Regular;
width = 1181;
},
{
layerId = "C6C96970-2BBD-4A47-8C90-C83F37B7F23D";
name = Bold;
paths = (
{
closed = 1;
nodes = (
"422 851 LINE",
"484 907 OFFCURVE",
"618 1092 OFFCURVE",
"618 1293 CURVE SMOOTH",
"618 1516 LINE",
"296 1516 LINE",
"296 1240 LINE",
"461 1240 LINE",
"461 1102 OFFCURVE",
"366 955 OFFCURVE",
"315 897 CURVE"
);
},
{
closed = 1;
nodes = (
"898 851 LINE",
"960 907 OFFCURVE",
"1094 1092 OFFCURVE",
"1094 1293 CURVE SMOOTH",
"1094 1516 LINE",
"772 1516 LINE",
"772 1240 LINE",
"937 1240 LINE",
"937 1102 OFFCURVE",
"842 955 OFFCURVE",
"791 897 CURVE"
);
}
);
width = 1350;
}
);
unicode = 201D;
},
{
glyphname = quoteleft;
lastChange = "2014-01-28 19:50:35 -0800";
layers = (
{
components = (
{
name = comma;
transform = "{-1, 0, 0, -1, 769, 1130}";
}
);
layerId = "F85E8FEC-B3CD-4A54-BF30-AB1986ECE904";
name = Regular;
width = 769;
},
{
layerId = "C6C96970-2BBD-4A47-8C90-C83F37B7F23D";
name = Bold;
paths = (
{
closed = 1;
nodes = (
"296 838 LINE",
"618 838 LINE",
"618 1114 LINE",
"453 1114 LINE",
"453 1252 OFFCURVE",
"548 1399 OFFCURVE",
"599 1457 CURVE",
"492 1503 LINE",
"430 1447 OFFCURVE",
"296 1262 OFFCURVE",
"296 1061 CURVE SMOOTH"
);
}
);
width = 874;
}
);
unicode = 2018;
},
{
glyphname = quoteright;
lastChange = "2014-01-28 19:50:35 -0800";
layers = (
{
components = (
{
name = comma;
transform = "{1, 0, 0, 1, 0, 1235}";
}
);
layerId = "F85E8FEC-B3CD-4A54-BF30-AB1986ECE904";
name = Regular;
width = 769;
},
{
layerId = "C6C96970-2BBD-4A47-8C90-C83F37B7F23D";
name = Bold;
paths = (
{
closed = 1;
nodes = (
"382 839 LINE",
"444 895 OFFCURVE",
"578 1080 OFFCURVE",
"578 1281 CURVE SMOOTH",
"578 1504 LINE",
"256 1504 LINE",
"256 1228 LINE",
"421 1228 LINE",
"421 1090 OFFCURVE",
"326 943 OFFCURVE",
"275 885 CURVE"
);
}
);
width = 834;
}
);
unicode = 2019;
},
{
glyphname = quotesinglbase;
lastChange = "2014-01-28 19:50:35 -0800";
layers = (
{
components = (
{
name = comma;
transform = "{1, 0, 0, 1, 0, 0}";
}
);
layerId = "F85E8FEC-B3CD-4A54-BF30-AB1986ECE904";
name = Regular;
width = 769;
},
{
layerId = "C6C96970-2BBD-4A47-8C90-C83F37B7F23D";
name = Bold;
paths = (
{
closed = 1;
nodes = (
"422 -389 LINE",
"484 -333 OFFCURVE",
"618 -148 OFFCURVE",
"618 53 CURVE SMOOTH",
"618 276 LINE",
"296 276 LINE",
"296 0 LINE",
"461 0 LINE",
"461 -138 OFFCURVE",
"366 -285 OFFCURVE",
"315 -343 CURVE"
);
}
);
width = 874;
}
);
unicode = 201A;
},
{
glyphname = .notdef;
lastChange = "2014-01-28 19:50:35 -0800";
layers = (
{
layerId = "F85E8FEC-B3CD-4A54-BF30-AB1986ECE904";
name = Regular;
width = 600;
},
{
layerId = "C6C96970-2BBD-4A47-8C90-C83F37B7F23D";
name = Bold;
paths = (
{
closed = 1;
nodes = (
"204 102 LINE",
"204 799 LINE",
"820 799 LINE",
"820 102 LINE"
);
},
{
closed = 1;
nodes = (
"102 0 LINE",
"922 0 LINE",
"922 901 LINE",
"102 901 LINE"
);
}
);
width = 1024;
}
);
},
{
glyphname = florin;
lastChange = "2014-01-28 19:50:35 -0800";
layers = (
{
layerId = "F85E8FEC-B3CD-4A54-BF30-AB1986ECE904";
name = Regular;
paths = (
{
closed = 1;
nodes = (
"251 -190 CURVE SMOOTH",
"452 -190 OFFCURVE",
"521 -98 OFFCURVE",
"521 91 CURVE SMOOTH",
"521 727 LINE",
"650 727 LINE",
"650 858 LINE",
"521 858 LINE",
"521 1177 LINE SMOOTH",
"521 1263 OFFCURVE",
"542 1335 OFFCURVE",
"680 1335 CURVE SMOOTH",
"690 1335 OFFCURVE",
"699 1335 OFFCURVE",
"710 1334 CURVE",
"710 1458 LINE",
"672 1462 OFFCURVE",
"637 1464 OFFCURVE",
"606 1464 CURVE SMOOTH",
"398 1464 OFFCURVE",
"333 1372 OFFCURVE",
"333 1155 CURVE SMOOTH",
"333 858 LINE",
"216 858 LINE",
"216 727 LINE",
"333 727 LINE",
"333 63 LINE SMOOTH",
"333 -18 OFFCURVE",
"300 -61 OFFCURVE",
"189 -61 CURVE SMOOTH",
"174 -61 OFFCURVE",
"158 -61 OFFCURVE",
"141 -59 CURVE",
"141 -183 LINE",
"181 -188 OFFCURVE",
"218 -190 OFFCURVE"
);
}
);
width = 890;
},
{
layerId = "C6C96970-2BBD-4A47-8C90-C83F37B7F23D";
name = Bold;
paths = (
{
closed = 1;
nodes = (
"366 -205 CURVE SMOOTH",
"594 -205 OFFCURVE",
"615 -67 OFFCURVE",
"615 101 CURVE SMOOTH",
"615 843 LINE",
"787 843 LINE",
"787 962 LINE",
"615 962 LINE",
"615 1207 LINE SMOOTH",
"615 1281 OFFCURVE",
"627 1347 OFFCURVE",
"725 1347 CURVE SMOOTH",
"739 1347 OFFCURVE",
"762 1342 OFFCURVE",
"783 1341 CURVE",
"783 1488 LINE",
"730 1494 OFFCURVE",
"698 1496 OFFCURVE",
"661 1496 CURVE SMOOTH",
"430 1496 OFFCURVE",
"410 1358 OFFCURVE",
"410 1181 CURVE SMOOTH",
"410 962 LINE",
"263 962 LINE",
"263 843 LINE",
"410 843 LINE",
"410 74 LINE SMOOTH",
"410 1 OFFCURVE",
"396 -56 OFFCURVE",
"306 -56 CURVE SMOOTH",
"291 -56 OFFCURVE",
"265 -53 OFFCURVE",
"241 -49 CURVE",
"241 -196 LINE",
"295 -203 OFFCURVE",
"328 -205 OFFCURVE"
);
}
);
width = 1024;
}
);
unicode = 0192;
},
{
glyphname = cent;
lastChange = "2014-01-28 19:50:35 -0800";
layers = (
{
components = (
{
name = c;
transform = "{1, 0, 0, 1, 0, 0}";
}
);
layerId = "F85E8FEC-B3CD-4A54-BF30-AB1986ECE904";
name = Regular;
paths = (
{
closed = 1;
nodes = (
"540 1013 LINE",
"643 1013 LINE",
"643 1277 LINE",
"540 1277 LINE"
);
},
{
closed = 1;
nodes = (
"540 -205 LINE",
"643 -205 LINE",
"643 59 LINE",
"540 59 LINE"
);
}
);
width = 1110;
},
{
components = (
{
name = c;
transform = "{1, 0, 0, 1, 0, 0}";
}
);
layerId = "C6C96970-2BBD-4A47-8C90-C83F37B7F23D";
name = Bold;
paths = (
{
closed = 1;
nodes = (
"538 1006 LINE",
"631 1006 LINE",
"631 1291 LINE",
"538 1291 LINE"
);
},
{
closed = 1;
nodes = (
"538 -214 LINE",
"631 -214 LINE",
"631 71 LINE",
"538 71 LINE"
);
}
);
width = 1107;
}
);
unicode = 00A2;
},
{
glyphname = currency;
lastChange = "2014-01-28 19:50:35 -0800";
layers = (
{
layerId = "F85E8FEC-B3CD-4A54-BF30-AB1986ECE904";
name = Regular;
paths = (
{
closed = 1;
nodes = (
"564 360 CURVE SMOOTH",
"666 360 OFFCURVE",
"759 406 OFFCURVE",
"817 486 CURVE",
"981 376 LINE",
"1033 457 LINE",
"862 571 LINE",
"876 608 OFFCURVE",
"883 648 OFFCURVE",
"883 689 CURVE SMOOTH",
"883 751 OFFCURVE",
"866 809 OFFCURVE",
"839 860 CURVE",
"1023 993 LINE",
"973 1075 LINE",
"780 935 LINE",
"723 990 OFFCURVE",
"647 1018 OFFCURVE",
"564 1018 CURVE SMOOTH",
"482 1018 OFFCURVE",
"407 991 OFFCURVE",
"350 937 CURVE",
"170 1061 LINE",
"116 979 LINE",
"291 862 LINE",
"261 811 OFFCURVE",
"245 752 OFFCURVE",
"245 689 CURVE SMOOTH",
"245 640 OFFCURVE",
"255 592 OFFCURVE",
"274 549 CURVE",
"126 443 LINE",
"177 360 LINE",
"324 468 LINE",
"384 398 OFFCURVE",
"469 360 OFFCURVE"
);
},
{
closed = 1;
nodes = (
"565 444 CURVE SMOOTH",
"436 444 OFFCURVE",
"340 555 OFFCURVE",
"340 690 CURVE SMOOTH",
"340 826 OFFCURVE",
"436 936 OFFCURVE",
"565 936 CURVE SMOOTH",
"694 936 OFFCURVE",
"790 826 OFFCURVE",
"790 690 CURVE SMOOTH",
"790 555 OFFCURVE",
"694 444 OFFCURVE"
);
}
);
width = 1149;
},
{
layerId = "C6C96970-2BBD-4A47-8C90-C83F37B7F23D";
name = Bold;
paths = (
{
closed = 1;
nodes = (
"560 381 CURVE SMOOTH",
"669 381 OFFCURVE",
"754 423 OFFCURVE",
"811 485 CURVE",
"950 384 LINE",
"1002 465 LINE",
"864 563 LINE",
"888 611 OFFCURVE",
"899 667 OFFCURVE",
"899 723 CURVE SMOOTH",
"899 779 OFFCURVE",
"887 836 OFFCURVE",
"862 886 CURVE",
"999 986 LINE",
"952 1067 LINE",
"809 964 LINE",
"752 1025 OFFCURVE",
"669 1064 OFFCURVE",
"560 1064 CURVE SMOOTH",
"452 1064 OFFCURVE",
"368 1026 OFFCURVE",
"311 968 CURVE",
"177 1067 LINE",
"124 987 LINE",
"256 892 LINE",
"230 840 OFFCURVE",
"216 782 OFFCURVE",
"216 723 CURVE SMOOTH",
"216 665 OFFCURVE",
"229 608 OFFCURVE",
"254 559 CURVE",
"126 467 LINE",
"174 383 LINE",
"309 480 LINE",
"366 420 OFFCURVE",
"451 381 OFFCURVE"
);
},
{
closed = 1;
nodes = (
"560 528 CURVE SMOOTH",
"429 528 OFFCURVE",
"368 622 OFFCURVE",
"368 723 CURVE SMOOTH",
"368 824 OFFCURVE",
"429 918 OFFCURVE",
"560 918 CURVE SMOOTH",
"689 918 OFFCURVE",
"748 824 OFFCURVE",
"748 723 CURVE SMOOTH",
"748 622 OFFCURVE",
"689 528 OFFCURVE"
);
}
);
width = 1126;
}
);
unicode = 00A4;
},
{
glyphname = dollar;
lastChange = "2014-01-28 19:57:18 -0800";
layers = (
{
components = (
{
name = S;
transform = "{1, 0, 0, 1, 0, 0}";
}
);
layerId = "F85E8FEC-B3CD-4A54-BF30-AB1986ECE904";
name = Regular;
paths = (
{
closed = 1;
nodes = (
"620 -372 LINE",
"730 -372 LINE",
"730 1758 LINE",
"620 1758 LINE"
);
}
);
width = 1303;
},
{
components = (
{
name = S;
transform = "{1, 0, 0, 1, 0, 0}";
}
);
layerId = "C6C96970-2BBD-4A47-8C90-C83F37B7F23D";
name = Bold;
paths = (
{
closed = 1;
nodes = (
"615 -312 LINE",
"725 -312 LINE",
"725 1758 LINE",
"615 1758 LINE"
);
}
);
width = 1281;
}
);
unicode = 0024;
},
{
glyphname = euro;
lastChange = "2014-01-28 19:50:35 -0800";
layers = (
{
components = (
{
name = C;
transform = "{1, 0, 0, 1, 0, 0}";
}
);
layerId = "F85E8FEC-B3CD-4A54-BF30-AB1986ECE904";
name = Regular;
paths = (
{
closed = 1;
nodes = (
"743 819 LINE",
"743 953 LINE",
"1 953 LINE",
"1 819 LINE"
);
},
{
closed = 1;
nodes = (
"743 505 LINE",
"743 639 LINE",
"1 639 LINE",
"1 505 LINE"
);
}
);
width = 1460;
},
{
components = (
{
name = C;
transform = "{1, 0, 0, 1, 0, 0}";
}
);
layerId = "C6C96970-2BBD-4A47-8C90-C83F37B7F23D";
name = Bold;
paths = (
{
closed = 1;
nodes = (
"788 838 LINE",
"788 972 LINE",
"46 972 LINE",
"46 838 LINE"
);
},
{
closed = 1;
nodes = (
"788 536 LINE",
"788 670 LINE",
"46 670 LINE",
"46 536 LINE"
);
}
);
width = 1490;
}
);
unicode = 20AC;
},
{
glyphname = sterling;
lastChange = "2014-01-28 19:50:35 -0800";
layers = (
{
layerId = "F85E8FEC-B3CD-4A54-BF30-AB1986ECE904";
name = Regular;
paths = (
{
closed = 1;
nodes = (
"261 0 LINE",
"1036 0 LINE",
"1036 162 LINE",
"462 162 LINE",
"514 668 LINE",
"1012 668 LINE",
"1012 809 LINE",
"529 809 LINE",
"559 1104 LINE SMOOTH",
"577 1275 OFFCURVE",
"666 1327 OFFCURVE",
"770 1327 CURVE SMOOTH",
"871 1327 OFFCURVE",
"984 1278 OFFCURVE",
"1023 1259 CURVE",
"1077 1398 LINE",
"951 1459 OFFCURVE",
"841 1484 OFFCURVE",
"748 1484 CURVE SMOOTH",
"514 1484 OFFCURVE",
"385 1319 OFFCURVE",
"367 1125 CURVE",
"336 809 LINE",
"166 809 LINE",
"166 668 LINE",
"323 668 LINE"
);
}
);
width = 1273;
},
{
layerId = "C6C96970-2BBD-4A47-8C90-C83F37B7F23D";
name = Bold;
paths = (
{
closed = 1;
nodes = (
"206 0 LINE",
"1124 0 LINE",
"1124 226 LINE",
"516 226 LINE",
"550 621 LINE",
"1043 621 LINE",
"1043 812 LINE",
"567 812 LINE",
"586 1044 LINE SMOOTH",
"596 1180 OFFCURVE",
"639 1281 OFFCURVE",
"795 1281 CURVE SMOOTH",
"866 1281 OFFCURVE",
"953 1261 OFFCURVE",
"1059 1214 CURVE",
"1130 1415 LINE",
"1052 1467 OFFCURVE",
"914 1515 OFFCURVE",
"771 1515 CURVE SMOOTH",
"440 1515 OFFCURVE",
"307 1344 OFFCURVE",
"291 1061 CURVE SMOOTH",
"271 812 LINE",
"134 812 LINE",
"134 621 LINE",
"256 621 LINE"
);
}
);
width = 1285;
}
);
unicode = 00A3;
},
{
glyphname = yen;
lastChange = "2014-01-28 19:50:35 -0800";
layers = (
{
components = (
{
name = Y;
transform = "{1, 0, 0, 1, 0, 0}";
}
);
layerId = "F85E8FEC-B3CD-4A54-BF30-AB1986ECE904";
name = Regular;
paths = (
{
closed = 1;
nodes = (
"1063 560 LINE",
"1063 708 LINE",
"260 708 LINE",
"260 560 LINE"
);
},
{
closed = 1;
nodes = (
"1063 252 LINE",
"1063 400 LINE",
"260 400 LINE",
"260 252 LINE"
);
}
);
width = 1318;
},
{
components = (
{
name = Y;
transform = "{1, 0, 0, 1, 0, 0}";
}
);
layerId = "C6C96970-2BBD-4A47-8C90-C83F37B7F23D";
name = Bold;
paths = (
{
closed = 1;
nodes = (
"1020 533 LINE",
"1020 667 LINE",
"278 667 LINE",
"278 533 LINE"
);
},
{
closed = 1;
nodes = (
"1020 231 LINE",
"1020 365 LINE",
"278 365 LINE",
"278 231 LINE"
);
}
);
width = 1304;
}
);
unicode = 00A5;
},
{
glyphname = Ohm;
lastChange = "2014-01-29 03:46:42 -0800";
layers = (
{
background = {
components = (
{
name = O;
transform = "{1, 0, 0, 1, 0, 0}";
}
);
};
layerId = "F85E8FEC-B3CD-4A54-BF30-AB1986ECE904";
name = Regular;
paths = (
{
closed = 1;
nodes = (
"1400 1372 OFFCURVE",
"1151 1468 OFFCURVE",
"793 1468 CURVE SMOOTH",
"435 1468 OFFCURVE",
"186 1372 OFFCURVE",
"186 716 CURVE SMOOTH",
"186 365 OFFCURVE",
"297 219 OFFCURVE",
"452 141 CURVE",
"207 141 LINE",
"207 0 LINE",
"697 0 LINE",
"697 141 LINE",
"468 225 OFFCURVE",
"386 360 OFFCURVE",
"386 736 CURVE SMOOTH",
"386 1248 OFFCURVE",
"533 1304 OFFCURVE",
"793 1304 CURVE SMOOTH",
"1053 1304 OFFCURVE",
"1200 1248 OFFCURVE",
"1200 736 CURVE SMOOTH",
"1200 360 OFFCURVE",
"1118 225 OFFCURVE",
"889 141 CURVE",
"889 0 LINE",
"1379 0 LINE",
"1379 141 LINE",
"1134 141 LINE",
"1289 219 OFFCURVE",
"1400 365 OFFCURVE",
"1400 716 CURVE SMOOTH"
);
}
);
width = 1586;
},
{
background = {
paths = (
{
closed = 1;
nodes = (
"1414 1372 OFFCURVE",
"1165 1468 OFFCURVE",
"807 1468 CURVE SMOOTH",
"449 1468 OFFCURVE",
"200 1372 OFFCURVE",
"200 716 CURVE SMOOTH",
"200 365 OFFCURVE",
"311 242 OFFCURVE",
"466 164 CURVE",
"221 164 LINE",
"221 0 LINE",
"711 0 LINE",
"711 164 LINE",
"482 248 OFFCURVE",
"400 360 OFFCURVE",
"400 736 CURVE SMOOTH",
"400 1248 OFFCURVE",
"547 1304 OFFCURVE",
"807 1304 CURVE SMOOTH",
"1067 1304 OFFCURVE",
"1214 1248 OFFCURVE",
"1214 736 CURVE SMOOTH",
"1214 360 OFFCURVE",
"1132 248 OFFCURVE",
"903 164 CURVE",
"903 0 LINE",
"1393 0 LINE",
"1393 164 LINE",
"1148 164 LINE",
"1303 242 OFFCURVE",
"1414 365 OFFCURVE",
"1414 716 CURVE SMOOTH"
);
}
);
};
layerId = "C6C96970-2BBD-4A47-8C90-C83F37B7F23D";
name = Bold;
paths = (
{
closed = 1;
nodes = (
"1488 1418 OFFCURVE",
"1211 1489 OFFCURVE",
"817 1489 CURVE",
"433 1489 OFFCURVE",
"146 1418 OFFCURVE",
"146 746 CURVE",
"146 458 OFFCURVE",
"280 296 OFFCURVE",
"421 206 CURVE",
"167 206 LINE",
"167 0 LINE",
"735 0 LINE",
"735 192 LINE",
"512 305 OFFCURVE",
"454 447 OFFCURVE",
"454 779 CURVE",
"454 1231 OFFCURVE",
"584 1271 OFFCURVE",
"817 1271 CURVE",
"1060 1271 OFFCURVE",
"1180 1231 OFFCURVE",
"1180 779 CURVE",
"1180 447 OFFCURVE",
"1122 305 OFFCURVE",
"899 192 CURVE",
"899 0 LINE",
"1467 0 LINE",
"1467 206 LINE",
"1213 206 LINE",
"1354 296 OFFCURVE",
"1488 458 OFFCURVE",
"1488 746 CURVE"
);
}
);
width = 1634;
}
);
unicode = 2126;
},
{
glyphname = approxequal;
lastChange = "2014-01-28 19:50:35 -0800";
layers = (
{
layerId = "F85E8FEC-B3CD-4A54-BF30-AB1986ECE904";
name = Regular;
paths = (
{
closed = 1;
nodes = (
"601 635 CURVE SMOOTH",
"721 635 OFFCURVE",
"817 719 OFFCURVE",
"817 884 CURVE",
"720 884 LINE",
"720 822 OFFCURVE",
"691 781 OFFCURVE",
"610 781 CURVE SMOOTH",
"539 781 OFFCURVE",
"417 898 OFFCURVE",
"280 898 CURVE SMOOTH",
"160 898 OFFCURVE",
"64 814 OFFCURVE",
"64 649 CURVE",
"161 649 LINE",
"161 711 OFFCURVE",
"190 752 OFFCURVE",
"271 752 CURVE SMOOTH",
"342 752 OFFCURVE",
"464 635 OFFCURVE"
);
},
{
closed = 1;
nodes = (
"601 941 CURVE SMOOTH",
"721 941 OFFCURVE",
"817 1025 OFFCURVE",
"817 1190 CURVE",
"720 1190 LINE",
"720 1128 OFFCURVE",
"691 1087 OFFCURVE",
"610 1087 CURVE SMOOTH",
"539 1087 OFFCURVE",
"417 1204 OFFCURVE",
"280 1204 CURVE SMOOTH",
"160 1204 OFFCURVE",
"64 1120 OFFCURVE",
"64 955 CURVE",
"161 955 LINE",
"161 1017 OFFCURVE",
"190 1058 OFFCURVE",
"271 1058 CURVE SMOOTH",
"342 1058 OFFCURVE",
"464 941 OFFCURVE"
);
}
);
width = 881;
},
{
layerId = "C6C96970-2BBD-4A47-8C90-C83F37B7F23D";
name = Bold;
paths = (
{
closed = 1;
nodes = (
"721 738.4 CURVE SMOOTH",
"856 738.4 OFFCURVE",
"964 839.4 OFFCURVE",
"964 1027.4 CURVE",
"855 1027.4 LINE",
"855 956.4 OFFCURVE",
"822 905.4 OFFCURVE",
"732 905.4 CURVE SMOOTH",
"652 905.4 OFFCURVE",
"455 1043.4 OFFCURVE",
"302 1043.4 CURVE SMOOTH",
"167 1043.4 OFFCURVE",
"60 943.4 OFFCURVE",
"60 754.4 CURVE",
"168 754.4 LINE",
"168 825.4 OFFCURVE",
"201 877.4 OFFCURVE",
"292 877.4 CURVE SMOOTH",
"371 877.4 OFFCURVE",
"567 738.4 OFFCURVE"
);
},
{
closed = 1;
nodes = (
"721 1131 CURVE SMOOTH",
"856 1131 OFFCURVE",
"964 1232 OFFCURVE",
"964 1420 CURVE",
"855 1420 LINE",
"855 1349 OFFCURVE",
"822 1298 OFFCURVE",
"732 1298 CURVE SMOOTH",
"652 1298 OFFCURVE",
"455 1436 OFFCURVE",
"302 1436 CURVE SMOOTH",
"167 1436 OFFCURVE",
"60 1336 OFFCURVE",
"60 1147 CURVE",
"168 1147 LINE",
"168 1218 OFFCURVE",
"201 1270 OFFCURVE",
"292 1270 CURVE SMOOTH",
"371 1270 OFFCURVE",
"567 1131 OFFCURVE"
);
}
);
width = 1024;
}
);
unicode = 2248;
},
{
glyphname = asciitilde;
lastChange = "2014-01-28 20:24:15 -0800";
layers = (
{
layerId = "F85E8FEC-B3CD-4A54-BF30-AB1986ECE904";
name = Regular;
paths = (
{
closed = 1;
nodes = (
"64 1352 OFFCURVE",
"64 1187 CURVE",
"161 1187 LINE",
"161 1249 OFFCURVE",
"190 1320 OFFCURVE",
"271 1320 CURVE SMOOTH",
"342 1320 OFFCURVE",
"464 1173 OFFCURVE",
"601 1173 CURVE SMOOTH",
"721 1173 OFFCURVE",
"817 1287 OFFCURVE",
"817 1452 CURVE",
"720 1452 LINE",
"720 1390 OFFCURVE",
"691 1319 OFFCURVE",
"610 1319 CURVE SMOOTH",
"539 1319 OFFCURVE",
"417 1466 OFFCURVE",
"280 1466 CURVE SMOOTH",
"160 1466 OFFCURVE"
);
}
);
width = 881;
},
{
layerId = "C6C96970-2BBD-4A47-8C90-C83F37B7F23D";
name = Bold;
paths = (
{
closed = 1;
nodes = (
"691 1131 CURVE SMOOTH",
"826 1131 OFFCURVE",
"934 1262 OFFCURVE",
"934 1450 CURVE",
"825 1450 LINE",
"825 1379 OFFCURVE",
"792 1298 OFFCURVE",
"702 1298 CURVE SMOOTH",
"622 1298 OFFCURVE",
"485 1466 OFFCURVE",
"332 1466 CURVE SMOOTH",
"197 1466 OFFCURVE",
"90 1336 OFFCURVE",
"90 1147 CURVE",
"198 1147 LINE",
"198 1218 OFFCURVE",
"231 1300 OFFCURVE",
"322 1300 CURVE SMOOTH",
"401 1300 OFFCURVE",
"537 1131 OFFCURVE"
);
}
);
width = 1024;
}
);
unicode = 007E;
},
{
glyphname = bulletoperator;
lastChange = "2014-01-28 19:50:35 -0800";
layers = (
{
layerId = "F85E8FEC-B3CD-4A54-BF30-AB1986ECE904";
name = Regular;
paths = (
{
closed = 1;
nodes = (
"396 325 CURVE SMOOTH",
"265 325 OFFCURVE",
"168 432 OFFCURVE",
"168 563 CURVE SMOOTH",
"168 694 OFFCURVE",
"265 801 OFFCURVE",
"396 801 CURVE SMOOTH",
"527 801 OFFCURVE",
"624 694 OFFCURVE",
"624 563 CURVE SMOOTH",
"624 432 OFFCURVE",
"527 325 OFFCURVE"
);
}
);
width = 792;
},
{
layerId = "C6C96970-2BBD-4A47-8C90-C83F37B7F23D";
name = Bold;
paths = (
{
closed = 1;
nodes = (
"117 1251 LINE",
"365 1251 LINE",
"365 1498 LINE",
"117 1498 LINE"
);
}
);
width = 459;
}
);
unicode = 2219;
},
{
glyphname = divide;
lastChange = "2014-01-28 19:50:35 -0800";
layers = (
{
layerId = "F85E8FEC-B3CD-4A54-BF30-AB1986ECE904";
name = Regular;
paths = (
{
closed = 1;
nodes = (
"413 90 LINE",
"618 90 LINE",
"618 299 LINE",
"413 299 LINE"
);
},
{
closed = 1;
nodes = (
"100 472 LINE",
"925 472 LINE",
"925 609 LINE",
"100 609 LINE"
);
},
{
closed = 1;
nodes = (
"413 787 LINE",
"618 787 LINE",
"618 996 LINE",
"413 996 LINE"
);
}
);
width = 1025;
},
{
layerId = "C6C96970-2BBD-4A47-8C90-C83F37B7F23D";
name = Bold;
paths = (
{
closed = 1;
nodes = (
"389 94 LINE",
"617 94 LINE",
"617 323 LINE",
"389 323 LINE"
);
},
{
closed = 1;
nodes = (
"112 479 LINE",
"892 479 LINE",
"892 642 LINE",
"112 642 LINE"
);
},
{
closed = 1;
nodes = (
"389 792 LINE",
"617 792 LINE",
"617 1021 LINE",
"389 1021 LINE"
);
}
);
width = 1004;
}
);
unicode = 00F7;
},
{
glyphname = emptyset;
lastChange = "2014-01-28 19:50:35 -0800";
layers = (
{
layerId = "F85E8FEC-B3CD-4A54-BF30-AB1986ECE904";
name = Regular;
paths = (
{
closed = 1;
nodes = (
"778 167 CURVE SMOOTH",
"485 167 OFFCURVE",
"271 388 OFFCURVE",
"271 682 CURVE SMOOTH",
"271 974 OFFCURVE",
"485 1196 OFFCURVE",
"778 1196 CURVE SMOOTH",
"1072 1196 OFFCURVE",
"1283 974 OFFCURVE",
"1283 682 CURVE SMOOTH",
"1283 388 OFFCURVE",
"1072 167 OFFCURVE"
);
},
{
closed = 1;
nodes = (
"776 66 CURVE SMOOTH",
"1124 66 OFFCURVE",
"1392 331 OFFCURVE",
"1392 682 CURVE SMOOTH",
"1392 1031 OFFCURVE",
"1124 1296 OFFCURVE",
"776 1296 CURVE SMOOTH",
"430 1296 OFFCURVE",
"160 1031 OFFCURVE",
"160 682 CURVE SMOOTH",
"160 331 OFFCURVE",
"430 66 OFFCURVE"
);
},
{
closed = 1;
nodes = (
"207 54 LINE",
"274 -2 LINE",
"1351 1281 LINE",
"1284 1337 LINE"
);
}
);
width = 1552;
},
{
layerId = "C6C96970-2BBD-4A47-8C90-C83F37B7F23D";
name = Bold;
paths = (
{
closed = 1;
nodes = (
"778 206 CURVE SMOOTH",
"507 206 OFFCURVE",
"310 410 OFFCURVE",
"310 682 CURVE SMOOTH",
"310 952 OFFCURVE",
"507 1157 OFFCURVE",
"778 1157 CURVE SMOOTH",
"1050 1157 OFFCURVE",
"1244 952 OFFCURVE",
"1244 682 CURVE SMOOTH",
"1244 410 OFFCURVE",
"1050 206 OFFCURVE"
);
},
{
closed = 1;
nodes = (
"776 66 CURVE SMOOTH",
"1124 66 OFFCURVE",
"1392 331 OFFCURVE",
"1392 682 CURVE SMOOTH",
"1392 1031 OFFCURVE",
"1124 1296 OFFCURVE",
"776 1296 CURVE SMOOTH",
"430 1296 OFFCURVE",
"160 1031 OFFCURVE",
"160 682 CURVE SMOOTH",
"160 331 OFFCURVE",
"430 66 OFFCURVE"
);
},
{
closed = 1;
nodes = (
"199 70 LINE",
"286 -6 LINE",
"1363 1277 LINE",
"1276 1353 LINE"
);
}
);
width = 1552;
}
);
unicode = 2205;
},
{
glyphname = equal;
lastChange = "2014-01-28 19:50:35 -0800";
layers = (
{
layerId = "F85E8FEC-B3CD-4A54-BF30-AB1986ECE904";
name = Regular;
paths = (
{
closed = 1;
nodes = (
"224 467 LINE",
"1026 467 LINE",
"1026 615 LINE",
"224 615 LINE"
);
},
{
closed = 1;
nodes = (
"224 805 LINE",
"1026 805 LINE",
"1026 953 LINE",
"224 953 LINE"
);
}
);
width = 1250;
},
{
layerId = "C6C96970-2BBD-4A47-8C90-C83F37B7F23D";
name = Bold;
paths = (
{
closed = 1;
nodes = (
"112 371 LINE",
"768 371 LINE",
"768 544 LINE",
"112 544 LINE"
);
},
{
closed = 1;
nodes = (
"112 740 LINE",
"768 740 LINE",
"768 913 LINE",
"112 913 LINE"
);
}
);
width = 880;
}
);
unicode = 003D;
},
{
glyphname = greater;
lastChange = "2014-01-28 19:50:35 -0800";
layers = (
{
layerId = "F85E8FEC-B3CD-4A54-BF30-AB1986ECE904";
name = Regular;
paths = (
{
closed = 1;
nodes = (
"208 0 LINE",
"1094 472 LINE",
"1094 673 LINE",
"208 1144 LINE",
"208 935 LINE",
"939 571 LINE",
"208 203 LINE"
);
}
);
width = 1250;
},
{
layerId = "C6C96970-2BBD-4A47-8C90-C83F37B7F23D";
name = Bold;
paths = (
{
closed = 1;
nodes = (
"152 31 LINE",
"896 446 LINE",
"896 665 LINE",
"152 1081 LINE",
"152 848 LINE",
"715 556 LINE",
"152 260 LINE"
);
}
);
width = 1024;
}
);
unicode = 003E;
},
{
glyphname = greaterequal;
lastChange = "2014-01-28 19:50:35 -0800";
layers = (
{
components = (
{
name = greater;
transform = "{1, 0, 0, 1, 0, 0}";
},
{
name = underscore;
transform = "{1, 0, 0, 1, 158, -138}";
}
);
layerId = "F85E8FEC-B3CD-4A54-BF30-AB1986ECE904";
name = Regular;
width = 1250;
},
{
layerId = "C6C96970-2BBD-4A47-8C90-C83F37B7F23D";
name = Bold;
paths = (
{
closed = 1;
nodes = (
"245 236 LINE",
"988 651 LINE",
"988 870 LINE",
"245 1286 LINE",
"245 1053 LINE",
"808 761 LINE",
"245 465 LINE"
);
},
{
closed = 1;
nodes = (
"184 0 LINE",
"1066 0 LINE",
"1066 175 LINE",
"184 175 LINE"
);
}
);
width = 1250;
}
);
unicode = 2265;
},
{
glyphname = infinity;
lastChange = "2014-01-28 19:50:35 -0800";
layers = (
{
layerId = "F85E8FEC-B3CD-4A54-BF30-AB1986ECE904";
name = Regular;
paths = (
{
closed = 1;
nodes = (
"369 485 CURVE SMOOTH",
"547 485 OFFCURVE",
"818 736 OFFCURVE",
"818 736 CURVE",
"818 736 OFFCURVE",
"1103 485 OFFCURVE",
"1281 485 CURVE SMOOTH",
"1484 485 OFFCURVE",
"1586 652 OFFCURVE",
"1586 820 CURVE SMOOTH",
"1586 989 OFFCURVE",
"1483 1158 OFFCURVE",
"1281 1158 CURVE SMOOTH",
"1103 1158 OFFCURVE",
"818 933 OFFCURVE",
"818 933 CURVE",
"818 933 OFFCURVE",
"547 1158 OFFCURVE",
"369 1158 CURVE SMOOTH",
"166 1158 OFFCURVE",
"64 990 OFFCURVE",
"64 822 CURVE SMOOTH",
"64 654 OFFCURVE",
"166 485 OFFCURVE"
);
},
{
closed = 1;
nodes = (
"376 616 CURVE SMOOTH",
"272 616 OFFCURVE",
"220 718 OFFCURVE",
"220 821 CURVE SMOOTH",
"220 924 OFFCURVE",
"272 1027 OFFCURVE",
"376 1027 CURVE SMOOTH",
"450 1027 OFFCURVE",
"717 829 OFFCURVE",
"717 829 CURVE",
"717 829 OFFCURVE",
"450 616 OFFCURVE"
);
},
{
closed = 1;
nodes = (
"1261 616 CURVE SMOOTH",
"1187 616 OFFCURVE",
"919 826 OFFCURVE",
"919 826 CURVE",
"919 826 OFFCURVE",
"1187 1027 OFFCURVE",
"1261 1027 CURVE SMOOTH",
"1365 1027 OFFCURVE",
"1417 924 OFFCURVE",
"1417 821 CURVE SMOOTH",
"1417 718 OFFCURVE",
"1365 616 OFFCURVE"
);
}
);
width = 1650;
},
{
layerId = "C6C96970-2BBD-4A47-8C90-C83F37B7F23D";
name = Bold;
paths = (
{
closed = 1;
nodes = (
"508 360 CURVE SMOOTH",
"691 360 OFFCURVE",
"1024 620 OFFCURVE",
"1024 620 CURVE",
"1024 620 OFFCURVE",
"1357 360 OFFCURVE",
"1540 360 CURVE SMOOTH",
"1702 360 OFFCURVE",
"1830 500 OFFCURVE",
"1830 765 CURVE SMOOTH",
"1830 1030 OFFCURVE",
"1702 1170 OFFCURVE",
"1540 1170 CURVE SMOOTH",
"1357 1170 OFFCURVE",
"1024 910 OFFCURVE",
"1024 910 CURVE",
"1024 910 OFFCURVE",
"691 1170 OFFCURVE",
"508 1170 CURVE SMOOTH",
"346 1170 OFFCURVE",
"218 1030 OFFCURVE",
"218 765 CURVE SMOOTH",
"218 500 OFFCURVE",
"346 360 OFFCURVE"
);
},
{
closed = 1;
nodes = (
"526 593 CURVE SMOOTH",
"417 593 OFFCURVE",
"378 666 OFFCURVE",
"378 765 CURVE SMOOTH",
"378 864 OFFCURVE",
"417 937 OFFCURVE",
"526 937 CURVE SMOOTH",
"600 937 OFFCURVE",
"783 817 OFFCURVE",
"889 765 CURVE",
"783 713 OFFCURVE",
"600 593 OFFCURVE"
);
},
{
closed = 1;
nodes = (
"1522 593 CURVE SMOOTH",
"1448 593 OFFCURVE",
"1265 713 OFFCURVE",
"1159 765 CURVE",
"1265 817 OFFCURVE",
"1448 937 OFFCURVE",
"1522 937 CURVE SMOOTH",
"1631 937 OFFCURVE",
"1670 864 OFFCURVE",
"1670 765 CURVE SMOOTH",
"1670 666 OFFCURVE",
"1631 593 OFFCURVE"
);
}
);
width = 2048;
}
);
unicode = 221E;
},
{
glyphname = integral;
lastChange = "2014-01-28 19:50:35 -0800";
layers = (
{
layerId = "F85E8FEC-B3CD-4A54-BF30-AB1986ECE904";
name = Regular;
paths = (
{
closed = 1;
nodes = (
"251 -380 CURVE SMOOTH",
"452 -380 OFFCURVE",
"521 -288 OFFCURVE",
"521 -99 CURVE SMOOTH",
"521 1181 LINE SMOOTH",
"521 1267 OFFCURVE",
"542 1339 OFFCURVE",
"680 1339 CURVE SMOOTH",
"690 1339 OFFCURVE",
"699 1339 OFFCURVE",
"710 1338 CURVE",
"710 1462 LINE",
"672 1466 OFFCURVE",
"637 1468 OFFCURVE",
"606 1468 CURVE SMOOTH",
"398 1468 OFFCURVE",
"333 1376 OFFCURVE",
"333 1159 CURVE SMOOTH",
"333 -127 LINE SMOOTH",
"333 -208 OFFCURVE",
"300 -251 OFFCURVE",
"189 -251 CURVE SMOOTH",
"174 -251 OFFCURVE",
"158 -251 OFFCURVE",
"141 -249 CURVE",
"141 -373 LINE",
"181 -378 OFFCURVE",
"218 -380 OFFCURVE"
);
}
);
width = 890;
},
{
layerId = "C6C96970-2BBD-4A47-8C90-C83F37B7F23D";
name = Bold;
paths = (
{
closed = 1;
nodes = (
"176 -263 CURVE SMOOTH",
"404 -263 OFFCURVE",
"425 -125 OFFCURVE",
"425 43 CURVE SMOOTH",
"425 1152 LINE SMOOTH",
"425 1227 OFFCURVE",
"437 1292 OFFCURVE",
"535 1292 CURVE SMOOTH",
"549 1292 OFFCURVE",
"572 1288 OFFCURVE",
"593 1286 CURVE",
"593 1433 LINE",
"540 1439 OFFCURVE",
"508 1442 OFFCURVE",
"471 1442 CURVE SMOOTH",
"240 1442 OFFCURVE",
"220 1303 OFFCURVE",
"220 1126 CURVE SMOOTH",
"220 16 LINE SMOOTH",
"220 -57 OFFCURVE",
"206 -114 OFFCURVE",
"116 -114 CURVE SMOOTH",
"101 -114 OFFCURVE",
"75 -111 OFFCURVE",
"51 -107 CURVE",
"51 -254 LINE",
"105 -261 OFFCURVE",
"138 -263 OFFCURVE"
);
}
);
width = 693;
}
);
unicode = 222B;
},
{
glyphname = less;
lastChange = "2014-01-28 19:50:35 -0800";
layers = (
{
layerId = "F85E8FEC-B3CD-4A54-BF30-AB1986ECE904";
name = Regular;
paths = (
{
closed = 1;
nodes = (
"1042 0 LINE",
"1042 209 LINE",
"311 573 LINE",
"1042 941 LINE",
"1042 1144 LINE",
"156 672 LINE",
"156 471 LINE"
);
}
);
width = 1250;
},
{
layerId = "C6C96970-2BBD-4A47-8C90-C83F37B7F23D";
name = Bold;
paths = (
{
closed = 1;
nodes = (
"856 31 LINE",
"856 262 LINE",
"293 556 LINE",
"856 850 LINE",
"856 1081 LINE",
"112 664 LINE",
"112 445 LINE"
);
}
);
width = 1024;
}
);
unicode = 003C;
},
{
glyphname = lessequal;
lastChange = "2014-01-28 19:50:35 -0800";
layers = (
{
components = (
{
name = less;
transform = "{1, 0, 0, 1, 0, 0}";
},
{
name = underscore;
transform = "{1, 0, 0, 1, 128, -148}";
}
);
layerId = "F85E8FEC-B3CD-4A54-BF30-AB1986ECE904";
name = Regular;
width = 1250;
},
{
layerId = "C6C96970-2BBD-4A47-8C90-C83F37B7F23D";
name = Bold;
paths = (
{
closed = 1;
nodes = (
"1023 239 LINE",
"1023 470 LINE",
"420 764 LINE",
"1023 1058 LINE",
"1023 1289 LINE",
"239 872 LINE",
"239 653 LINE"
);
},
{
closed = 1;
nodes = (
"229 0 LINE",
"1021 0 LINE",
"1021 175 LINE",
"229 175 LINE"
);
}
);
width = 1252;
}
);
unicode = 2264;
},
{
glyphname = logicalnot;
lastChange = "2014-01-28 19:50:35 -0800";
layers = (
{
layerId = "F85E8FEC-B3CD-4A54-BF30-AB1986ECE904";
name = Regular;
paths = (
{
closed = 1;
nodes = (
"589 333 LINE",
"721 333 LINE",
"721 692 LINE",
"98 692 LINE",
"98 556 LINE",
"589 556 LINE"
);
}
);
width = 864;
},
{
layerId = "C6C96970-2BBD-4A47-8C90-C83F37B7F23D";
name = Bold;
paths = (
{
closed = 1;
nodes = (
"705 226 LINE",
"853 226 LINE",
"853 757 LINE",
"129 757 LINE",
"129 587 LINE",
"705 587 LINE"
);
}
);
width = 1024;
}
);
unicode = 00AC;
},
{
glyphname = minus;
lastChange = "2014-01-28 19:50:35 -0800";
layers = (
{
layerId = "F85E8FEC-B3CD-4A54-BF30-AB1986ECE904";
name = Regular;
paths = (
{
closed = 1;
nodes = (
"142 439 LINE",
"769 439 LINE",
"769 609 LINE",
"142 609 LINE"
);
}
);
width = 911;
},
{
layerId = "C6C96970-2BBD-4A47-8C90-C83F37B7F23D";
name = Bold;
paths = (
{
closed = 1;
nodes = (
"122 439 LINE",
"664 439 LINE",
"664 619 LINE",
"122 619 LINE"
);
}
);
width = 792;
}
);
unicode = 2212;
},
{
glyphname = multiply;
lastChange = "2014-01-28 19:50:35 -0800";
layers = (
{
layerId = "F85E8FEC-B3CD-4A54-BF30-AB1986ECE904";
name = Regular;
paths = (
{
closed = 1;
nodes = (
"239 216 LINE",
"487 458 LINE",
"735 216 LINE",
"844 344 LINE",
"608 576 LINE",
"844 806 LINE",
"735 937 LINE",
"487 694 LINE",
"239 937 LINE",
"129 806 LINE",
"366 576 LINE",
"129 344 LINE"
);
}
);
width = 973;
},
{
layerId = "C6C96970-2BBD-4A47-8C90-C83F37B7F23D";
name = Bold;
paths = (
{
closed = 1;
nodes = (
"265 216 LINE",
"513 458 LINE",
"761 216 LINE",
"871 344 LINE",
"634 576 LINE",
"871 806 LINE",
"761 937 LINE",
"513 694 LINE",
"265 937 LINE",
"154 806 LINE",
"392 576 LINE",
"154 344 LINE"
);
}
);
width = 1025;
}
);
unicode = 00D7;
},
{
glyphname = notequal;
lastChange = "2014-01-28 19:50:35 -0800";
layers = (
{
components = (
{
name = equal;
transform = "{1, 0, 0, 1, -241, 0}";
}
);
layerId = "F85E8FEC-B3CD-4A54-BF30-AB1986ECE904";
name = Regular;
paths = (
{
closed = 1;
nodes = (
"128 205 LINE",
"275 205 LINE",
"652 1186 LINE",
"509 1186 LINE"
);
}
);
width = 768;
},
{
components = (
{
name = equal;
transform = "{1, 0, 0, 1, 0, 0}";
}
);
layerId = "C6C96970-2BBD-4A47-8C90-C83F37B7F23D";
name = Bold;
paths = (
{
closed = 1;
nodes = (
"126 150 LINE",
"299 150 LINE",
"738 1094 LINE",
"565 1094 LINE"
);
}
);
width = 919;
}
);
unicode = 2260;
},
{
glyphname = partialdiff;
lastChange = "2014-01-28 19:54:00 -0800";
layers = (
{
layerId = "F85E8FEC-B3CD-4A54-BF30-AB1986ECE904";
name = Regular;
paths = (
{
closed = 1;
nodes = (
"483 98 CURVE SMOOTH",
"409 98 OFFCURVE",
"372 169 OFFCURVE",
"372 266 CURVE SMOOTH",
"372 475 OFFCURVE",
"540 808 OFFCURVE",
"856 828 CURVE",
"836 542 OFFCURVE",
"725 98 OFFCURVE"
);
},
{
closed = 1;
nodes = (
"469 -20 CURVE SMOOTH",
"821 -20 OFFCURVE",
"1056 385 OFFCURVE",
"1056 913 CURVE SMOOTH",
"1056 1325 OFFCURVE",
"838 1507 OFFCURVE",
"580 1507 CURVE SMOOTH",
"471 1507 OFFCURVE",
"356 1475 OFFCURVE",
"246 1415 CURVE",
"271 1354 LINE",
"345 1389 OFFCURVE",
"422 1407 OFFCURVE",
"496 1407 CURVE SMOOTH",
"694 1407 OFFCURVE",
"863 1273 OFFCURVE",
"863 969 CURVE SMOOTH",
"863 957 OFFCURVE",
"863 944 OFFCURVE",
"862 931 CURVE",
"406 924 OFFCURVE",
"152 568 OFFCURVE",
"152 294 CURVE SMOOTH",
"152 121 OFFCURVE",
"254 -20 OFFCURVE"
);
}
);
width = 1202;
},
{
background = {
paths = (
{
closed = 1;
nodes = (
"483 98 CURVE SMOOTH",
"409 98 OFFCURVE",
"372 169 OFFCURVE",
"372 266 CURVE SMOOTH",
"372 475 OFFCURVE",
"540 808 OFFCURVE",
"856 828 CURVE",
"836 542 OFFCURVE",
"725 98 OFFCURVE"
);
},
{
closed = 1;
nodes = (
"469 -20 CURVE SMOOTH",
"821 -20 OFFCURVE",
"1056 385 OFFCURVE",
"1056 913 CURVE SMOOTH",
"1056 1325 OFFCURVE",
"838 1507 OFFCURVE",
"580 1507 CURVE SMOOTH",
"471 1507 OFFCURVE",
"356 1475 OFFCURVE",
"246 1415 CURVE",
"271 1354 LINE",
"345 1389 OFFCURVE",
"422 1407 OFFCURVE",
"496 1407 CURVE SMOOTH",
"694 1407 OFFCURVE",
"863 1273 OFFCURVE",
"863 969 CURVE SMOOTH",
"863 957 OFFCURVE",
"863 944 OFFCURVE",
"862 931 CURVE",
"406 924 OFFCURVE",
"152 568 OFFCURVE",
"152 294 CURVE SMOOTH",
"152 121 OFFCURVE",
"254 -20 OFFCURVE"
);
}
);
};
layerId = "C6C96970-2BBD-4A47-8C90-C83F37B7F23D";
name = Bold;
paths = (
{
closed = 1;
nodes = (
"789 529 OFFCURVE",
"675 130 OFFCURVE",
"488 130 CURVE",
"454 130 OFFCURVE",
"423 186 OFFCURVE",
"423 282 CURVE",
"423 477 OFFCURVE",
"567 744 OFFCURVE",
"813 794 CURVE"
);
},
{
closed = 1;
nodes = (
"111 136 OFFCURVE",
"223 -20 OFFCURVE",
"474 -20 CURVE",
"867 -20 OFFCURVE",
"1107 387 OFFCURVE",
"1107 902 CURVE",
"1107 1303 OFFCURVE",
"874 1496 OFFCURVE",
"585 1496 CURVE",
"457 1496 OFFCURVE",
"314 1454 OFFCURVE",
"206 1389 CURVE",
"247 1288 LINE",
"350 1343 OFFCURVE",
"423 1364 OFFCURVE",
"501 1364 CURVE",
"669 1364 OFFCURVE",
"822 1241 OFFCURVE",
"822 958 CURVE",
"822 950 OFFCURVE",
"822 942 OFFCURVE",
"822 934 CURVE",
"362 906 OFFCURVE",
"111 573 OFFCURVE",
"111 310 CURVE"
);
}
);
width = 1216;
}
);
unicode = 2202;
},
{
glyphname = percent;
lastChange = "2014-01-28 19:50:35 -0800";
layers = (
{
layerId = "F85E8FEC-B3CD-4A54-BF30-AB1986ECE904";
name = Regular;
paths = (
{
closed = 1;
nodes = (
"470 794 CURVE SMOOTH",
"332 794 OFFCURVE",
"315 899 OFFCURVE",
"315 1040 CURVE SMOOTH",
"315 1135 LINE SMOOTH",
"315 1271 OFFCURVE",
"327 1365 OFFCURVE",
"470 1365 CURVE SMOOTH",
"614 1365 OFFCURVE",
"627 1271 OFFCURVE",
"627 1133 CURVE SMOOTH",
"627 1040 LINE SMOOTH",
"627 899 OFFCURVE",
"608 794 OFFCURVE"
);
},
{
closed = 1;
nodes = (
"470 678 CURVE SMOOTH",
"700 678 OFFCURVE",
"772 828 OFFCURVE",
"772 1057 CURVE SMOOTH",
"772 1111 LINE",
"770 1344 OFFCURVE",
"700 1481 OFFCURVE",
"470 1481 CURVE SMOOTH",
"239 1481 OFFCURVE",
"172 1343 OFFCURVE",
"172 1110 CURVE SMOOTH",
"172 1057 LINE SMOOTH",
"172 829 OFFCURVE",
"240 678 OFFCURVE"
);
},
{
closed = 1;
nodes = (
"1574 97 CURVE SMOOTH",
"1436 97 OFFCURVE",
"1419 202 OFFCURVE",
"1419 343 CURVE SMOOTH",
"1419 438 LINE SMOOTH",
"1419 574 OFFCURVE",
"1431 668 OFFCURVE",
"1574 668 CURVE SMOOTH",
"1718 668 OFFCURVE",
"1731 574 OFFCURVE",
"1731 436 CURVE SMOOTH",
"1731 343 LINE SMOOTH",
"1731 202 OFFCURVE",
"1712 97 OFFCURVE"
);
},
{
closed = 1;
nodes = (
"1574 -19 CURVE SMOOTH",
"1804 -19 OFFCURVE",
"1876 131 OFFCURVE",
"1876 360 CURVE SMOOTH",
"1876 414 LINE",
"1874 647 OFFCURVE",
"1804 784 OFFCURVE",
"1574 784 CURVE SMOOTH",
"1343 784 OFFCURVE",
"1276 646 OFFCURVE",
"1276 413 CURVE SMOOTH",
"1276 360 LINE SMOOTH",
"1276 132 OFFCURVE",
"1344 -19 OFFCURVE"
);
},
{
closed = 1;
nodes = (
"668 0 LINE",
"822 0 LINE",
"1360 1446 LINE",
"1211 1446 LINE"
);
}
);
width = 2048;
},
{
layerId = "C6C96970-2BBD-4A47-8C90-C83F37B7F23D";
name = Bold;
paths = (
{
closed = 1;
nodes = (
"496 794 CURVE SMOOTH",
"369 794 OFFCURVE",
"356 894 OFFCURVE",
"356 1029 CURVE SMOOTH",
"356 1118 LINE SMOOTH",
"356 1248 OFFCURVE",
"365 1337 OFFCURVE",
"496 1337 CURVE SMOOTH",
"629 1337 OFFCURVE",
"638 1248 OFFCURVE",
"638 1116 CURVE SMOOTH",
"638 1029 LINE SMOOTH",
"638 894 OFFCURVE",
"623 794 OFFCURVE"
);
},
{
closed = 1;
nodes = (
"496 664 CURVE SMOOTH",
"726 664 OFFCURVE",
"801 814 OFFCURVE",
"801 1043 CURVE SMOOTH",
"801 1097 LINE SMOOTH",
"799 1330 OFFCURVE",
"726 1467 OFFCURVE",
"496 1467 CURVE SMOOTH",
"265 1467 OFFCURVE",
"196 1329 OFFCURVE",
"196 1096 CURVE SMOOTH",
"196 1043 LINE SMOOTH",
"196 815 OFFCURVE",
"266 664 OFFCURVE"
);
},
{
closed = 1;
nodes = (
"1614 111 CURVE SMOOTH",
"1486 111 OFFCURVE",
"1473 211 OFFCURVE",
"1473 346 CURVE SMOOTH",
"1473 435 LINE SMOOTH",
"1473 565 OFFCURVE",
"1482 654 OFFCURVE",
"1614 654 CURVE SMOOTH",
"1746 654 OFFCURVE",
"1755 565 OFFCURVE",
"1755 433 CURVE SMOOTH",
"1755 346 LINE SMOOTH",
"1755 211 OFFCURVE",
"1740 111 OFFCURVE"
);
},
{
closed = 1;
nodes = (
"1614 -19 CURVE SMOOTH",
"1844 -19 OFFCURVE",
"1918 131 OFFCURVE",
"1918 360 CURVE SMOOTH",
"1918 414 LINE SMOOTH",
"1916 647 OFFCURVE",
"1844 784 OFFCURVE",
"1614 784 CURVE SMOOTH",
"1383 784 OFFCURVE",
"1313 646 OFFCURVE",
"1313 413 CURVE SMOOTH",
"1313 360 LINE SMOOTH",
"1313 132 OFFCURVE",
"1384 -19 OFFCURVE"
);
},
{
closed = 1;
nodes = (
"694 0 LINE",
"872 0 LINE",
"1410 1446 LINE",
"1237 1446 LINE"
);
}
);
width = 2114;
}
);
unicode = 0025;
},
{
glyphname = perthousand;
lastChange = "2014-01-28 19:50:35 -0800";
layers = (
{
layerId = "F85E8FEC-B3CD-4A54-BF30-AB1986ECE904";
name = Regular;
paths = (
{
closed = 1;
nodes = (
"507 774 CURVE SMOOTH",
"369 774 OFFCURVE",
"352 879 OFFCURVE",
"352 1020 CURVE SMOOTH",
"352 1115 LINE SMOOTH",
"352 1251 OFFCURVE",
"364 1345 OFFCURVE",
"507 1345 CURVE SMOOTH",
"651 1345 OFFCURVE",
"664 1251 OFFCURVE",
"664 1113 CURVE SMOOTH",
"664 1020 LINE SMOOTH",
"664 879 OFFCURVE",
"645 774 OFFCURVE"
);
},
{
closed = 1;
nodes = (
"507 658 CURVE SMOOTH",
"737 658 OFFCURVE",
"809 808 OFFCURVE",
"809 1037 CURVE SMOOTH",
"809 1091 LINE",
"807 1324 OFFCURVE",
"737 1461 OFFCURVE",
"507 1461 CURVE SMOOTH",
"276 1461 OFFCURVE",
"209 1323 OFFCURVE",
"209 1090 CURVE SMOOTH",
"209 1037 LINE SMOOTH",
"209 809 OFFCURVE",
"277 658 OFFCURVE"
);
},
{
closed = 1;
nodes = (
"1611 97 CURVE SMOOTH",
"1473 97 OFFCURVE",
"1456 202 OFFCURVE",
"1456 343 CURVE SMOOTH",
"1456 438 LINE SMOOTH",
"1456 574 OFFCURVE",
"1468 668 OFFCURVE",
"1611 668 CURVE SMOOTH",
"1755 668 OFFCURVE",
"1768 574 OFFCURVE",
"1768 436 CURVE SMOOTH",
"1768 343 LINE SMOOTH",
"1768 202 OFFCURVE",
"1749 97 OFFCURVE"
);
},
{
closed = 1;
nodes = (
"1611 -19 CURVE SMOOTH",
"1841 -19 OFFCURVE",
"1913 131 OFFCURVE",
"1913 360 CURVE SMOOTH",
"1913 414 LINE",
"1911 647 OFFCURVE",
"1841 784 OFFCURVE",
"1611 784 CURVE SMOOTH",
"1380 784 OFFCURVE",
"1313 646 OFFCURVE",
"1313 413 CURVE SMOOTH",
"1313 360 LINE SMOOTH",
"1313 132 OFFCURVE",
"1381 -19 OFFCURVE"
);
},
{
closed = 1;
nodes = (
"2390 97 CURVE SMOOTH",
"2252 97 OFFCURVE",
"2235 202 OFFCURVE",
"2235 343 CURVE SMOOTH",
"2235 438 LINE SMOOTH",
"2235 574 OFFCURVE",
"2247 668 OFFCURVE",
"2390 668 CURVE SMOOTH",
"2534 668 OFFCURVE",
"2547 574 OFFCURVE",
"2547 436 CURVE SMOOTH",
"2547 343 LINE SMOOTH",
"2547 202 OFFCURVE",
"2528 97 OFFCURVE"
);
},
{
closed = 1;
nodes = (
"2390 -19 CURVE SMOOTH",
"2620 -19 OFFCURVE",
"2692 131 OFFCURVE",
"2692 360 CURVE SMOOTH",
"2692 414 LINE",
"2690 647 OFFCURVE",
"2620 784 OFFCURVE",
"2390 784 CURVE SMOOTH",
"2159 784 OFFCURVE",
"2092 646 OFFCURVE",
"2092 413 CURVE SMOOTH",
"2092 360 LINE SMOOTH",
"2092 132 OFFCURVE",
"2160 -19 OFFCURVE"
);
},
{
closed = 1;
nodes = (
"705 0 LINE",
"859 0 LINE",
"1397 1446 LINE",
"1248 1446 LINE"
);
}
);
width = 2886;
},
{
layerId = "C6C96970-2BBD-4A47-8C90-C83F37B7F23D";
name = Bold;
paths = (
{
closed = 1;
nodes = (
"429 788 CURVE SMOOTH",
"301 788 OFFCURVE",
"288 888 OFFCURVE",
"288 1023 CURVE SMOOTH",
"288 1112 LINE SMOOTH",
"288 1242 OFFCURVE",
"297 1331 OFFCURVE",
"429 1331 CURVE SMOOTH",
"561 1331 OFFCURVE",
"570 1242 OFFCURVE",
"570 1110 CURVE SMOOTH",
"570 1023 LINE SMOOTH",
"570 888 OFFCURVE",
"556 788 OFFCURVE"
);
},
{
closed = 1;
nodes = (
"429 658 CURVE SMOOTH",
"659 658 OFFCURVE",
"733 808 OFFCURVE",
"733 1037 CURVE SMOOTH",
"733 1091 LINE SMOOTH",
"731 1324 OFFCURVE",
"659 1461 OFFCURVE",
"429 1461 CURVE SMOOTH",
"198 1461 OFFCURVE",
"128 1323 OFFCURVE",
"128 1090 CURVE SMOOTH",
"128 1037 LINE SMOOTH",
"128 809 OFFCURVE",
"199 658 OFFCURVE"
);
},
{
closed = 1;
nodes = (
"1546 111 CURVE SMOOTH",
"1418 111 OFFCURVE",
"1405 211 OFFCURVE",
"1405 346 CURVE SMOOTH",
"1405 435 LINE SMOOTH",
"1405 565 OFFCURVE",
"1414 654 OFFCURVE",
"1546 654 CURVE SMOOTH",
"1678 654 OFFCURVE",
"1688 565 OFFCURVE",
"1688 433 CURVE SMOOTH",
"1688 346 LINE SMOOTH",
"1688 211 OFFCURVE",
"1673 111 OFFCURVE"
);
},
{
closed = 1;
nodes = (
"1546 -19 CURVE SMOOTH",
"1776 -19 OFFCURVE",
"1851 131 OFFCURVE",
"1851 360 CURVE SMOOTH",
"1851 414 LINE SMOOTH",
"1849 647 OFFCURVE",
"1776 784 OFFCURVE",
"1546 784 CURVE SMOOTH",
"1315 784 OFFCURVE",
"1245 646 OFFCURVE",
"1245 413 CURVE SMOOTH",
"1245 360 LINE SMOOTH",
"1245 132 OFFCURVE",
"1316 -19 OFFCURVE"
);
},
{
closed = 1;
nodes = (
"2300 111 CURVE SMOOTH",
"2172 111 OFFCURVE",
"2159 211 OFFCURVE",
"2159 346 CURVE SMOOTH",
"2159 435 LINE SMOOTH",
"2159 565 OFFCURVE",
"2168 654 OFFCURVE",
"2300 654 CURVE SMOOTH",
"2432 654 OFFCURVE",
"2442 565 OFFCURVE",
"2442 433 CURVE SMOOTH",
"2442 346 LINE SMOOTH",
"2442 211 OFFCURVE",
"2427 111 OFFCURVE"
);
},
{
closed = 1;
nodes = (
"2300 -19 CURVE SMOOTH",
"2530 -19 OFFCURVE",
"2605 131 OFFCURVE",
"2605 360 CURVE SMOOTH",
"2605 414 LINE SMOOTH",
"2603 647 OFFCURVE",
"2530 784 OFFCURVE",
"2300 784 CURVE SMOOTH",
"2069 784 OFFCURVE",
"1999 646 OFFCURVE",
"1999 413 CURVE SMOOTH",
"1999 360 LINE SMOOTH",
"1999 132 OFFCURVE",
"2070 -19 OFFCURVE"
);
},
{
closed = 1;
nodes = (
"626 0 LINE",
"804 0 LINE",
"1342 1446 LINE",
"1169 1446 LINE"
);
}
);
width = 2769;
}
);
unicode = 2030;
},
{
glyphname = plus;
lastChange = "2014-01-28 19:50:35 -0800";
layers = (
{
layerId = "F85E8FEC-B3CD-4A54-BF30-AB1986ECE904";
name = Regular;
paths = (
{
closed = 1;
nodes = (
"437 156 LINE",
"588 156 LINE",
"588 494 LINE",
"862 494 LINE",
"862 642 LINE",
"588 642 LINE",
"588 968 LINE",
"437 968 LINE",
"437 642 LINE",
"162 642 LINE",
"162 494 LINE",
"437 494 LINE"
);
}
);
width = 1024;
},
{
layerId = "C6C96970-2BBD-4A47-8C90-C83F37B7F23D";
name = Bold;
paths = (
{
closed = 1;
nodes = (
"401 156 LINE",
"565 156 LINE",
"565 487 LINE",
"834 487 LINE",
"834 649 LINE",
"565 649 LINE",
"565 968 LINE",
"401 968 LINE",
"401 649 LINE",
"132 649 LINE",
"132 487 LINE",
"401 487 LINE"
);
}
);
width = 966;
}
);
unicode = 002B;
},
{
glyphname = plusminus;
lastChange = "2014-01-28 19:50:35 -0800";
layers = (
{
layerId = "F85E8FEC-B3CD-4A54-BF30-AB1986ECE904";
name = Regular;
paths = (
{
closed = 1;
nodes = (
"460 334 LINE",
"581 334 LINE",
"581 611 LINE",
"834 611 LINE",
"834 726 LINE",
"581 726 LINE",
"581 992 LINE",
"460 992 LINE",
"460 726 LINE",
"207 726 LINE",
"207 611 LINE",
"460 611 LINE"
);
},
{
closed = 1;
nodes = (
"207 0 LINE",
"834 0 LINE",
"834 120 LINE",
"207 120 LINE"
);
}
);
width = 1041;
},
{
layerId = "C6C96970-2BBD-4A47-8C90-C83F37B7F23D";
name = Bold;
paths = (
{
closed = 1;
nodes = (
"429 326 LINE",
"595 326 LINE",
"595 591 LINE",
"853 591 LINE",
"853 755 LINE",
"595 755 LINE",
"595 1018 LINE",
"429 1018 LINE",
"429 755 LINE",
"171 755 LINE",
"171 591 LINE",
"429 591 LINE"
);
},
{
closed = 1;
nodes = (
"171 0 LINE",
"853 0 LINE",
"853 165 LINE",
"171 165 LINE"
);
}
);
width = 1024;
}
);
unicode = 00B1;
},
{
glyphname = product;
lastChange = "2014-01-28 19:50:35 -0800";
layers = (
{
layerId = "F85E8FEC-B3CD-4A54-BF30-AB1986ECE904";
name = Regular;
paths = (
{
closed = 1;
nodes = (
"660 319 LINE",
"791 319 LINE",
"791 652 LINE",
"969 652 LINE SMOOTH",
"1189 652 OFFCURVE",
"1245 760 OFFCURVE",
"1245 894 CURVE SMOOTH",
"1245 908 LINE",
"1241 1082 OFFCURVE",
"1139 1153 OFFCURVE",
"982 1153 CURVE SMOOTH",
"660 1153 LINE"
);
},
{
closed = 1;
nodes = (
"791 742 LINE",
"791 1062 LINE",
"986 1062 LINE SMOOTH",
"1104 1062 OFFCURVE",
"1113 960 OFFCURVE",
"1113 901 CURVE SMOOTH",
"1113 877 LINE",
"1112 814 OFFCURVE",
"1091 742 OFFCURVE",
"977 742 CURVE SMOOTH"
);
},
{
closed = 1;
nodes = (
"898 82 CURVE SMOOTH",
"534 82 OFFCURVE",
"269 357 OFFCURVE",
"269 722 CURVE SMOOTH",
"269 1086 OFFCURVE",
"534 1361 OFFCURVE",
"898 1361 CURVE SMOOTH",
"1264 1361 OFFCURVE",
"1526 1086 OFFCURVE",
"1526 722 CURVE SMOOTH",
"1526 357 OFFCURVE",
"1264 82 OFFCURVE"
);
},
{
closed = 1;
nodes = (
"896 -14 CURVE SMOOTH",
"1312 -14 OFFCURVE",
"1632 303 OFFCURVE",
"1632 722 CURVE SMOOTH",
"1632 1139 OFFCURVE",
"1312 1456 OFFCURVE",
"896 1456 CURVE SMOOTH",
"483 1456 OFFCURVE",
"160 1139 OFFCURVE",
"160 722 CURVE SMOOTH",
"160 303 OFFCURVE",
"483 -14 OFFCURVE"
);
}
);
width = 1792;
},
{
layerId = "C6C96970-2BBD-4A47-8C90-C83F37B7F23D";
name = Bold;
paths = (
{
closed = 1;
nodes = (
"652 319 LINE",
"783 319 LINE",
"783 652 LINE",
"961 652 LINE SMOOTH",
"1181 652 OFFCURVE",
"1237 760 OFFCURVE",
"1237 894 CURVE SMOOTH",
"1237 908 LINE SMOOTH",
"1233 1082 OFFCURVE",
"1131 1153 OFFCURVE",
"974 1153 CURVE SMOOTH",
"652 1153 LINE"
);
},
{
closed = 1;
nodes = (
"783 742 LINE",
"783 1062 LINE",
"978 1062 LINE SMOOTH",
"1096 1062 OFFCURVE",
"1105 960 OFFCURVE",
"1105 901 CURVE SMOOTH",
"1105 877 LINE",
"1104 814 OFFCURVE",
"1083 742 OFFCURVE",
"969 742 CURVE SMOOTH"
);
},
{
closed = 1;
nodes = (
"890 82 CURVE SMOOTH",
"526 82 OFFCURVE",
"261 357 OFFCURVE",
"261 722 CURVE SMOOTH",
"261 1086 OFFCURVE",
"526 1361 OFFCURVE",
"890 1361 CURVE SMOOTH",
"1256 1361 OFFCURVE",
"1518 1086 OFFCURVE",
"1518 722 CURVE SMOOTH",
"1518 357 OFFCURVE",
"1256 82 OFFCURVE"
);
},
{
closed = 1;
nodes = (
"888 -14 CURVE SMOOTH",
"1304 -14 OFFCURVE",
"1624 303 OFFCURVE",
"1624 722 CURVE SMOOTH",
"1624 1139 OFFCURVE",
"1304 1456 OFFCURVE",
"888 1456 CURVE SMOOTH",
"475 1456 OFFCURVE",
"152 1139 OFFCURVE",
"152 722 CURVE SMOOTH",
"152 303 OFFCURVE",
"475 -14 OFFCURVE"
);
}
);
width = 1776;
}
);
unicode = 220F;
},
{
glyphname = radical;
lastChange = "2014-01-28 19:50:35 -0800";
layers = (
{
layerId = "F85E8FEC-B3CD-4A54-BF30-AB1986ECE904";
name = Regular;
paths = (
{
closed = 1;
nodes = (
"98 442 LINE",
"217 442 LINE",
"447 0 LINE",
"624 0 LINE",
"1238 1506 LINE",
"1102 1506 LINE",
"544 159 LINE",
"359 553 LINE",
"98 553 LINE"
);
}
);
width = 1249;
},
{
layerId = "C6C96970-2BBD-4A47-8C90-C83F37B7F23D";
name = Bold;
paths = (
{
closed = 1;
nodes = (
"-2 512 LINE",
"117 512 LINE",
"427 0 LINE",
"674 0 LINE",
"1267 1506 LINE",
"1072 1506 LINE",
"554 229 LINE",
"339 623 LINE",
"-2 623 LINE"
);
}
);
width = 1298;
}
);
unicode = 221A;
},
{
glyphname = summation;
lastChange = "2014-01-28 19:50:35 -0800";
layers = (
{
layerId = "F85E8FEC-B3CD-4A54-BF30-AB1986ECE904";
name = Regular;
paths = (
{
closed = 1;
nodes = (
"1076 0 LINE",
"1076 162 LINE",
"321 162 LINE",
"777 738 LINE",
"777 807 LINE",
"317 1286 LINE",
"1076 1286 LINE",
"1076 1446 LINE",
"112 1446 LINE",
"112 1298 LINE",
"597 762 LINE",
"112 155 LINE",
"112 0 LINE"
);
}
);
width = 1123;
},
{
layerId = "C6C96970-2BBD-4A47-8C90-C83F37B7F23D";
name = Bold;
paths = (
{
closed = 1;
nodes = (
"1083 0 LINE",
"1083 232 LINE",
"456 232 LINE",
"903 718 LINE",
"903 817 LINE",
"468 1246 LINE",
"1083 1246 LINE",
"1083 1476 LINE",
"129 1476 LINE",
"129 1243 LINE",
"595 762 LINE",
"129 235 LINE",
"129 0 LINE"
);
}
);
width = 1196;
}
);
unicode = 2211;
},
{
glyphname = lozenge;
lastChange = "2014-01-28 19:50:35 -0800";
layers = (
{
layerId = "F85E8FEC-B3CD-4A54-BF30-AB1986ECE904";
name = Regular;
paths = (
{
closed = 1;
nodes = (
"480 0 LINE",
"650 0 LINE",
"988 725 LINE",
"650 1446 LINE",
"480 1446 LINE",
"116 725 LINE"
);
},
{
closed = 1;
nodes = (
"567 160 LINE",
"295 725 LINE",
"567 1276 LINE",
"814 725 LINE"
);
}
);
width = 1104;
},
{
layerId = "C6C96970-2BBD-4A47-8C90-C83F37B7F23D";
name = Bold;
paths = (
{
closed = 1;
nodes = (
"466 0 LINE",
"664 0 LINE",
"1002 754 LINE",
"664 1505 LINE",
"466 1505 LINE",
"102 754 LINE"
);
},
{
closed = 1;
nodes = (
"567 188 LINE",
"316 754 LINE",
"567 1307 LINE",
"793 754 LINE"
);
}
);
width = 1104;
}
);
unicode = 25CA;
},
